<svg xmlns="http://www.w3.org/2000/svg" xmlns:xlink="http://www.w3.org/1999/xlink" width="50" zoomAndPan="magnify" viewBox="0 0 37.5 37.499999" height="50" preserveAspectRatio="xMidYMid meet" version="1.0"><defs><clipPath id="080327f2d4"><path d="M 0 0 L 37.007812 0 L 37.007812 37.007812 L 0 37.007812 Z M 0 0 " clip-rule="nonzero"/></clipPath><clipPath id="1b4f8aa5ca"><path d="M 2.277344 5.671875 L 36.992188 5.671875 L 36.992188 31.21875 L 2.277344 31.21875 Z M 2.277344 5.671875 " clip-rule="nonzero"/></clipPath></defs><g clip-path="url(#080327f2d4)"><path fill="#ffffff" d="M 0 0 L 37.007812 0 L 37.007812 37.007812 L 0 37.007812 Z M 0 0 " fill-opacity="1" fill-rule="nonzero"/><path fill="#ffffff" d="M 0 0 L 37.007812 0 L 37.007812 37.007812 L 0 37.007812 Z M 0 0 " fill-opacity="1" fill-rule="nonzero"/></g><g clip-path="url(#1b4f8aa5ca)"><path fill="#004aad" d="M 35.15625 11.214844 L 34.46875 10.945312 L 33.363281 10.511719 L 33.566406 9.988281 C 33.710938 9.621094 34.09375 9.410156 34.46875 9.464844 C 34.53125 9.472656 34.59375 9.492188 34.652344 9.515625 L 35.15625 9.710938 L 35.808594 9.96875 C 36.242188 10.136719 36.453125 10.625 36.285156 11.054688 L 36.078125 11.578125 Z M 35.15625 13.933594 L 34.46875 15.683594 L 33.09375 19.1875 L 32.40625 20.941406 L 31.058594 24.375 L 30.003906 23.960938 L 34.320312 12.953125 L 34.46875 13.007812 L 35.15625 13.277344 L 35.378906 13.367188 Z M 34.46875 29.53125 C 34.46875 30.082031 34.019531 30.53125 33.46875 30.53125 L 6.027344 30.53125 C 5.476562 30.53125 5.027344 30.082031 5.027344 29.53125 L 5.027344 29.363281 L 31.40625 29.363281 C 32.335938 29.363281 33.09375 28.605469 33.09375 27.675781 L 33.09375 20.972656 L 34.46875 17.46875 Z M 3.96875 28.675781 C 3.414062 28.675781 2.964844 28.226562 2.964844 27.675781 L 2.964844 7.363281 C 2.964844 6.808594 3.414062 6.359375 3.96875 6.359375 L 31.40625 6.359375 C 31.957031 6.359375 32.40625 6.808594 32.40625 7.363281 L 32.40625 11.164062 L 32.117188 11.902344 L 32.054688 12.0625 L 27.734375 23.074219 L 27.542969 23.566406 L 27.917969 25.238281 C 27.882812 25.339844 27.863281 25.449219 27.867188 25.558594 L 27.90625 27.035156 C 27.914062 27.289062 28.039062 27.488281 28.242188 27.566406 C 28.300781 27.589844 28.359375 27.601562 28.421875 27.601562 C 28.570312 27.601562 28.722656 27.53125 28.847656 27.40625 L 29.882812 26.347656 C 29.957031 26.273438 30.019531 26.179688 30.0625 26.078125 L 31.472656 25.105469 L 31.664062 24.613281 L 32.40625 22.722656 L 32.40625 27.675781 C 32.40625 28.226562 31.957031 28.675781 31.40625 28.675781 Z M 28.34375 23.3125 L 32.40625 12.945312 L 32.660156 12.300781 L 33.714844 12.714844 L 29.398438 23.726562 Z M 28.566406 25.386719 L 28.625 25.410156 L 29.425781 25.722656 L 29.484375 25.746094 C 29.476562 25.789062 29.457031 25.851562 29.417969 25.894531 L 28.550781 26.777344 L 28.515625 25.539062 C 28.515625 25.484375 28.542969 25.425781 28.566406 25.386719 Z M 30.007812 25.324219 C 29.953125 25.253906 29.882812 25.203125 29.800781 25.171875 L 28.726562 24.75 C 28.644531 24.71875 28.558594 24.707031 28.46875 24.722656 L 28.308594 23.996094 L 30.617188 24.902344 Z M 35.46875 12.703125 L 35.15625 12.578125 L 34.46875 12.308594 L 33.046875 11.75 L 32.898438 11.695312 L 33.078125 11.230469 L 34.46875 11.777344 L 35.15625 12.046875 L 35.796875 12.296875 L 35.613281 12.757812 Z M 33.46875 8.214844 C 33.875 8.214844 34.222656 8.457031 34.378906 8.804688 C 33.867188 8.796875 33.375 9.050781 33.09375 9.492188 L 33.09375 8.214844 Z M 36.046875 9.363281 L 35.140625 9.007812 C 35.039062 8.175781 34.328125 7.527344 33.46875 7.527344 L 33.09375 7.527344 L 33.09375 7.363281 C 33.09375 6.429688 32.335938 5.671875 31.40625 5.671875 L 3.96875 5.671875 C 3.035156 5.671875 2.277344 6.429688 2.277344 7.363281 L 2.277344 27.675781 C 2.277344 28.605469 3.035156 29.363281 3.96875 29.363281 L 4.339844 29.363281 L 4.339844 29.53125 C 4.339844 30.460938 5.097656 31.21875 6.027344 31.21875 L 33.46875 31.21875 C 34.398438 31.21875 35.15625 30.460938 35.15625 29.53125 L 35.15625 15.714844 L 35.984375 13.605469 L 36.042969 13.453125 L 36.402344 12.535156 L 36.683594 11.816406 L 36.890625 11.292969 C 37.191406 10.527344 36.8125 9.660156 36.046875 9.363281 " fill-opacity="1" fill-rule="nonzero"/></g><path fill="#004aad" d="M 5.398438 17.4375 L 5.398438 15.363281 L 9.800781 11.160156 L 13.703125 15.699219 L 16.339844 13.132812 L 18.503906 15.359375 L 18.503906 17.4375 Z M 18.503906 8.585938 L 18.503906 14.421875 L 16.351562 12.210938 L 13.746094 14.75 L 9.847656 10.214844 L 5.398438 14.464844 L 5.398438 8.585938 Z M 19.152344 7.933594 L 4.75 7.933594 L 4.75 18.089844 L 19.152344 18.089844 L 19.152344 7.933594 " fill-opacity="1" fill-rule="nonzero"/><path fill="#004aad" d="M 13.882812 10.019531 C 14.417969 10.019531 14.851562 10.457031 14.851562 10.988281 C 14.851562 11.523438 14.417969 11.957031 13.882812 11.957031 C 13.347656 11.957031 12.914062 11.523438 12.914062 10.988281 C 12.914062 10.457031 13.347656 10.019531 13.882812 10.019531 Z M 13.882812 12.609375 C 14.777344 12.609375 15.503906 11.882812 15.503906 10.988281 C 15.503906 10.097656 14.777344 9.371094 13.882812 9.371094 C 12.992188 9.371094 12.265625 10.097656 12.265625 10.988281 C 12.265625 11.882812 12.992188 12.609375 13.882812 12.609375 " fill-opacity="1" fill-rule="nonzero"/><path fill="#004aad" d="M 28.792969 11.519531 L 30.414062 11.519531 L 30.414062 10.867188 L 28.792969 10.867188 L 28.792969 11.519531 " fill-opacity="1" fill-rule="nonzero"/><path fill="#004aad" d="M 27.054688 10.867188 L 20.792969 10.867188 L 20.792969 11.519531 L 27.054688 11.519531 L 27.054688 10.867188 " fill-opacity="1" fill-rule="nonzero"/><path fill="#004aad" d="M 24.695312 13.335938 L 30.414062 13.335938 L 30.414062 12.6875 L 24.695312 12.6875 L 24.695312 13.335938 " fill-opacity="1" fill-rule="nonzero"/><path fill="#004aad" d="M 23.828125 12.6875 L 20.792969 12.6875 L 20.792969 13.335938 L 23.828125 13.335938 L 23.828125 12.6875 " fill-opacity="1" fill-rule="nonzero"/><path fill="#004aad" d="M 21.089844 15.578125 L 28.304688 15.578125 L 28.304688 14.925781 L 21.089844 14.925781 L 21.089844 15.578125 " fill-opacity="1" fill-rule="nonzero"/><path fill="#004aad" d="M 24.597656 17.523438 L 28.304688 17.523438 L 28.304688 16.875 L 24.597656 16.875 L 24.597656 17.523438 " fill-opacity="1" fill-rule="nonzero"/><path fill="#004aad" d="M 23.859375 16.875 L 21.089844 16.875 L 21.089844 17.523438 L 23.859375 17.523438 L 23.859375 16.875 " fill-opacity="1" fill-rule="nonzero"/><path fill="#004aad" d="M 23.015625 19.5 L 27.640625 19.5 L 27.640625 18.847656 L 23.015625 18.847656 L 23.015625 19.5 " fill-opacity="1" fill-rule="nonzero"/><path fill="#004aad" d="M 21.089844 19.5 L 22.472656 19.5 L 22.472656 18.847656 L 21.089844 18.847656 L 21.089844 19.5 " fill-opacity="1" fill-rule="nonzero"/><path fill="#004aad" d="M 25.8125 22.164062 L 27.433594 22.164062 L 27.433594 21.511719 L 25.8125 21.511719 L 25.8125 22.164062 " fill-opacity="1" fill-rule="nonzero"/><path fill="#004aad" d="M 20.945312 22.164062 L 25.335938 22.164062 L 25.335938 21.511719 L 20.945312 21.511719 L 20.945312 22.164062 " fill-opacity="1" fill-rule="nonzero"/><path fill="#004aad" d="M 30.441406 8.464844 L 26.464844 8.464844 L 26.464844 9.117188 L 30.441406 9.117188 L 30.441406 8.464844 " fill-opacity="1" fill-rule="nonzero"/><path fill="#004aad" d="M 10.078125 21.882812 L 8.445312 21.882812 L 8.445312 20.253906 L 10.078125 20.253906 Z M 10.726562 19.601562 L 7.792969 19.601562 L 7.792969 22.535156 L 10.726562 22.535156 L 10.726562 19.601562 " fill-opacity="1" fill-rule="nonzero"/><path fill="#004aad" d="M 10.21875 24.316406 L 11.851562 24.316406 L 11.851562 25.949219 L 10.21875 25.949219 Z M 9.566406 26.597656 L 12.5 26.597656 L 12.5 23.664062 L 9.566406 23.664062 L 9.566406 26.597656 " fill-opacity="1" fill-rule="nonzero"/><path fill="#004aad" d="M 13.828125 21.09375 L 15.457031 21.09375 L 15.457031 22.722656 L 13.828125 22.722656 Z M 13.175781 23.375 L 16.109375 23.375 L 16.109375 20.441406 L 13.175781 20.441406 L 13.175781 23.375 " fill-opacity="1" fill-rule="nonzero"/></svg>