<svg xmlns="http://www.w3.org/2000/svg" xmlns:xlink="http://www.w3.org/1999/xlink" width="100" zoomAndPan="magnify" viewBox="0 0 75 74.999997" height="100" preserveAspectRatio="xMidYMid meet" version="1.0"><defs><clipPath id="25101dbea6"><path d="M 7.5 6.4375 L 74 6.4375 L 74 68.6875 L 7.5 68.6875 Z M 7.5 6.4375 " clip-rule="nonzero"/></clipPath><clipPath id="258d6b15ec"><path d="M 6.75 6.4375 L 73.5 6.4375 L 73.5 68.6875 L 6.75 68.6875 Z M 6.75 6.4375 " clip-rule="nonzero"/></clipPath></defs><g clip-path="url(#25101dbea6)"><path fill="#0c74ff" d="M 72.992188 29.828125 L 70.410156 27.171875 C 69.820312 26.582031 69.007812 26.210938 68.121094 26.210938 C 67.238281 26.210938 66.5 26.582031 65.835938 27.171875 L 62.738281 30.269531 L 62.738281 11.234375 C 62.738281 8.578125 60.597656 6.4375 57.941406 6.4375 L 12.347656 6.4375 C 9.691406 6.511719 7.550781 8.652344 7.550781 11.234375 L 7.550781 63.765625 C 7.550781 66.421875 9.691406 68.558594 12.347656 68.558594 L 58.015625 68.558594 C 60.671875 68.558594 62.808594 66.421875 62.808594 63.765625 L 62.808594 44.582031 L 73.066406 34.328125 C 74.246094 33.074219 74.246094 31.082031 72.992188 29.828125 Z M 28.578125 12.339844 L 30.054688 12.339844 C 30.644531 12.339844 31.160156 12.855469 31.160156 13.449219 C 31.160156 14.039062 30.644531 14.554688 30.054688 14.554688 L 28.578125 14.554688 C 27.988281 14.554688 27.472656 14.039062 27.472656 13.449219 C 27.472656 12.855469 27.988281 12.339844 28.578125 12.339844 Z M 22.085938 12.339844 L 23.5625 12.339844 C 24.152344 12.339844 24.667969 12.855469 24.667969 13.449219 C 24.667969 14.039062 24.152344 14.554688 23.5625 14.554688 L 22.085938 14.554688 C 21.496094 14.554688 20.976562 14.039062 20.976562 13.449219 C 20.976562 12.855469 21.496094 12.339844 22.085938 12.339844 Z M 15.59375 12.339844 L 17.066406 12.339844 C 17.660156 12.339844 18.175781 12.855469 18.175781 13.449219 C 18.175781 14.039062 17.660156 14.554688 17.066406 14.554688 L 15.59375 14.554688 C 15.003906 14.554688 14.484375 14.039062 14.484375 13.449219 C 14.484375 12.855469 15.003906 12.339844 15.59375 12.339844 Z M 60.523438 63.765625 C 60.523438 65.164062 59.34375 66.347656 57.941406 66.347656 L 12.347656 66.347656 C 10.945312 66.273438 9.765625 65.164062 9.765625 63.765625 L 9.765625 20.457031 L 60.523438 20.457031 L 60.523438 32.480469 L 43.039062 49.96875 C 42.890625 50.117188 42.816406 50.261719 42.742188 50.410156 L 39.71875 59.042969 C 39.570312 59.410156 39.644531 59.929688 40.011719 60.222656 C 40.234375 60.445312 40.53125 60.519531 40.824219 60.519531 C 40.972656 60.519531 41.046875 60.519531 41.195312 60.445312 L 49.824219 57.417969 C 49.972656 57.34375 50.121094 57.273438 50.269531 57.125 L 60.597656 46.796875 L 60.597656 63.765625 Z M 49.457031 54.761719 L 45.398438 50.777344 L 63.179688 33 L 67.238281 37.054688 Z M 49.457031 54.761719 " fill-opacity="1" fill-rule="nonzero"/></g><path fill="#0c74ff" d="M 42.152344 28.425781 L 54.179688 28.425781 C 54.769531 28.425781 55.285156 27.90625 55.285156 27.316406 C 55.285156 26.726562 54.769531 26.210938 54.179688 26.210938 L 42.152344 26.210938 C 41.5625 26.210938 41.046875 26.726562 41.046875 27.316406 C 41.046875 27.90625 41.488281 28.425781 42.152344 28.425781 Z M 42.152344 28.425781 " fill-opacity="1" fill-rule="nonzero"/><path fill="#0c74ff" d="M 42.152344 36.464844 L 51.375 36.464844 C 51.964844 36.464844 52.480469 35.949219 52.480469 35.359375 C 52.480469 34.769531 51.964844 34.253906 51.375 34.253906 L 42.152344 34.253906 C 41.5625 34.253906 41.046875 34.769531 41.046875 35.359375 C 41.046875 35.949219 41.488281 36.464844 42.152344 36.464844 Z M 42.152344 36.464844 " fill-opacity="1" fill-rule="nonzero"/><path fill="#0c74ff" d="M 16.109375 44.507812 L 40.75 44.507812 C 41.339844 44.507812 41.859375 43.992188 41.859375 43.402344 C 41.859375 42.8125 41.339844 42.292969 40.75 42.292969 L 16.109375 42.292969 C 15.519531 42.292969 15.003906 42.8125 15.003906 43.402344 C 15.003906 43.992188 15.519531 44.507812 16.109375 44.507812 Z M 16.109375 44.507812 " fill-opacity="1" fill-rule="nonzero"/><path fill="#0c74ff" d="M 33.667969 58.304688 L 16.109375 58.304688 C 15.519531 58.304688 15.003906 58.820312 15.003906 59.410156 C 15.003906 60 15.519531 60.519531 16.109375 60.519531 L 33.667969 60.519531 C 34.257812 60.519531 34.773438 60 34.773438 59.410156 C 34.773438 58.820312 34.332031 58.304688 33.667969 58.304688 Z M 33.667969 58.304688 " fill-opacity="1" fill-rule="nonzero"/><path fill="#0c74ff" d="M 37.429688 50.261719 L 16.109375 50.261719 C 15.519531 50.261719 15.003906 50.777344 15.003906 51.371094 C 15.003906 51.960938 15.519531 52.476562 16.109375 52.476562 L 37.355469 52.476562 C 37.949219 52.476562 38.464844 51.960938 38.464844 51.371094 C 38.464844 50.777344 38.019531 50.261719 37.429688 50.261719 Z M 37.429688 50.261719 " fill-opacity="1" fill-rule="nonzero"/><path fill="#0c74ff" d="M 16.109375 36.464844 L 35.144531 36.464844 C 35.734375 36.464844 36.25 35.949219 36.25 35.359375 L 36.25 27.316406 C 36.25 26.726562 35.734375 26.210938 35.144531 26.210938 L 16.109375 26.210938 C 15.519531 26.210938 15.003906 26.726562 15.003906 27.316406 L 15.003906 35.359375 C 15.003906 35.949219 15.519531 36.464844 16.109375 36.464844 Z M 16.109375 36.464844 " fill-opacity="1" fill-rule="nonzero"/><g clip-path="url(#258d6b15ec)"><path fill="#0c74ff" d="M 72.242188 29.828125 L 69.660156 27.171875 C 69.070312 26.582031 68.257812 26.210938 67.371094 26.210938 C 66.488281 26.210938 65.75 26.582031 65.085938 27.171875 L 61.988281 30.269531 L 61.988281 11.234375 C 61.988281 8.578125 59.847656 6.4375 57.191406 6.4375 L 11.597656 6.4375 C 8.941406 6.511719 6.800781 8.652344 6.800781 11.234375 L 6.800781 63.765625 C 6.800781 66.421875 8.941406 68.558594 11.597656 68.558594 L 57.265625 68.558594 C 59.921875 68.558594 62.058594 66.421875 62.058594 63.765625 L 62.058594 44.582031 L 72.316406 34.328125 C 73.496094 33.074219 73.496094 31.082031 72.242188 29.828125 Z M 27.828125 12.339844 L 29.304688 12.339844 C 29.894531 12.339844 30.410156 12.855469 30.410156 13.449219 C 30.410156 14.039062 29.894531 14.554688 29.304688 14.554688 L 27.828125 14.554688 C 27.238281 14.554688 26.722656 14.039062 26.722656 13.449219 C 26.722656 12.855469 27.238281 12.339844 27.828125 12.339844 Z M 21.335938 12.339844 L 22.8125 12.339844 C 23.402344 12.339844 23.917969 12.855469 23.917969 13.449219 C 23.917969 14.039062 23.402344 14.554688 22.8125 14.554688 L 21.335938 14.554688 C 20.746094 14.554688 20.226562 14.039062 20.226562 13.449219 C 20.226562 12.855469 20.746094 12.339844 21.335938 12.339844 Z M 14.84375 12.339844 L 16.316406 12.339844 C 16.910156 12.339844 17.425781 12.855469 17.425781 13.449219 C 17.425781 14.039062 16.910156 14.554688 16.316406 14.554688 L 14.84375 14.554688 C 14.253906 14.554688 13.734375 14.039062 13.734375 13.449219 C 13.734375 12.855469 14.253906 12.339844 14.84375 12.339844 Z M 59.773438 63.765625 C 59.773438 65.164062 58.59375 66.347656 57.191406 66.347656 L 11.597656 66.347656 C 10.195312 66.273438 9.015625 65.164062 9.015625 63.765625 L 9.015625 20.457031 L 59.773438 20.457031 L 59.773438 32.480469 L 42.289062 49.96875 C 42.140625 50.117188 42.066406 50.261719 41.992188 50.410156 L 38.96875 59.042969 C 38.820312 59.410156 38.894531 59.929688 39.261719 60.222656 C 39.484375 60.445312 39.78125 60.519531 40.074219 60.519531 C 40.222656 60.519531 40.296875 60.519531 40.445312 60.445312 L 49.074219 57.417969 C 49.222656 57.34375 49.371094 57.273438 49.519531 57.125 L 59.847656 46.796875 L 59.847656 63.765625 Z M 48.707031 54.761719 L 44.648438 50.777344 L 62.429688 33 L 66.488281 37.054688 Z M 48.707031 54.761719 " fill-opacity="1" fill-rule="nonzero"/></g><path fill="#0c74ff" d="M 41.402344 28.425781 L 53.429688 28.425781 C 54.019531 28.425781 54.535156 27.90625 54.535156 27.316406 C 54.535156 26.726562 54.019531 26.210938 53.429688 26.210938 L 41.402344 26.210938 C 40.8125 26.210938 40.296875 26.726562 40.296875 27.316406 C 40.296875 27.90625 40.738281 28.425781 41.402344 28.425781 Z M 41.402344 28.425781 " fill-opacity="1" fill-rule="nonzero"/><path fill="#0c74ff" d="M 41.402344 36.464844 L 50.625 36.464844 C 51.214844 36.464844 51.730469 35.949219 51.730469 35.359375 C 51.730469 34.769531 51.214844 34.253906 50.625 34.253906 L 41.402344 34.253906 C 40.8125 34.253906 40.296875 34.769531 40.296875 35.359375 C 40.296875 35.949219 40.738281 36.464844 41.402344 36.464844 Z M 41.402344 36.464844 " fill-opacity="1" fill-rule="nonzero"/><path fill="#0c74ff" d="M 15.359375 44.507812 L 40 44.507812 C 40.589844 44.507812 41.109375 43.992188 41.109375 43.402344 C 41.109375 42.8125 40.589844 42.292969 40 42.292969 L 15.359375 42.292969 C 14.769531 42.292969 14.253906 42.8125 14.253906 43.402344 C 14.253906 43.992188 14.769531 44.507812 15.359375 44.507812 Z M 15.359375 44.507812 " fill-opacity="1" fill-rule="nonzero"/><path fill="#0c74ff" d="M 32.917969 58.304688 L 15.359375 58.304688 C 14.769531 58.304688 14.253906 58.820312 14.253906 59.410156 C 14.253906 60 14.769531 60.519531 15.359375 60.519531 L 32.917969 60.519531 C 33.507812 60.519531 34.023438 60 34.023438 59.410156 C 34.023438 58.820312 33.582031 58.304688 32.917969 58.304688 Z M 32.917969 58.304688 " fill-opacity="1" fill-rule="nonzero"/><path fill="#0c74ff" d="M 36.679688 50.261719 L 15.359375 50.261719 C 14.769531 50.261719 14.253906 50.777344 14.253906 51.371094 C 14.253906 51.960938 14.769531 52.476562 15.359375 52.476562 L 36.605469 52.476562 C 37.199219 52.476562 37.714844 51.960938 37.714844 51.371094 C 37.714844 50.777344 37.269531 50.261719 36.679688 50.261719 Z M 36.679688 50.261719 " fill-opacity="1" fill-rule="nonzero"/><path fill="#0c74ff" d="M 15.359375 36.464844 L 34.394531 36.464844 C 34.984375 36.464844 35.5 35.949219 35.5 35.359375 L 35.5 27.316406 C 35.5 26.726562 34.984375 26.210938 34.394531 26.210938 L 15.359375 26.210938 C 14.769531 26.210938 14.253906 26.726562 14.253906 27.316406 L 14.253906 35.359375 C 14.253906 35.949219 14.769531 36.464844 15.359375 36.464844 Z M 15.359375 36.464844 " fill-opacity="1" fill-rule="nonzero"/></svg>