<svg xmlns="http://www.w3.org/2000/svg" xmlns:xlink="http://www.w3.org/1999/xlink" width="50" zoomAndPan="magnify" viewBox="0 0 37.5 37.499999" height="50" preserveAspectRatio="xMidYMid meet" version="1.0"><defs><clipPath id="4133d81ce2"><path d="M 2.183594 5.398438 L 34.746094 5.398438 L 34.746094 33.523438 L 2.183594 33.523438 Z M 2.183594 5.398438 " clip-rule="nonzero"/></clipPath></defs><g clip-path="url(#4133d81ce2)"><path fill="#004aad" d="M 3.953125 7.023438 L 33.296875 7.023438 L 33.296875 24.546875 L 3.703125 24.546875 L 3.703125 7.023438 Z M 9.761719 13 C 9.667969 12.902344 9.671875 12.746094 9.769531 12.648438 C 9.867188 12.554688 10.027344 12.558594 10.121094 12.65625 C 10.644531 13.199219 11 13.964844 11.171875 14.769531 C 11.347656 15.597656 11.328125 16.472656 11.09375 17.191406 C 11.050781 17.320312 10.910156 17.394531 10.78125 17.351562 C 10.648438 17.308594 10.578125 17.167969 10.621094 17.039062 C 10.828125 16.402344 10.84375 15.617188 10.6875 14.871094 C 10.53125 14.152344 10.21875 13.472656 9.761719 13 Z M 9.832031 18.324219 C 9.929688 18.226562 10.085938 18.222656 10.183594 18.320312 C 10.285156 18.414062 10.285156 18.574219 10.191406 18.671875 C 10.117188 18.746094 10.039062 18.820312 9.953125 18.894531 C 9.871094 18.964844 9.785156 19.035156 9.695312 19.101562 C 9.585938 19.183594 9.429688 19.164062 9.347656 19.054688 C 9.265625 18.945312 9.289062 18.789062 9.398438 18.707031 C 9.476562 18.648438 9.554688 18.585938 9.625 18.519531 C 9.699219 18.457031 9.765625 18.394531 9.832031 18.324219 Z M 23.886719 24.050781 L 23.886719 9.660156 C 23.886719 9.523438 23.996094 9.410156 24.132812 9.410156 L 30.636719 9.410156 C 30.773438 9.410156 30.886719 9.523438 30.886719 9.660156 L 30.886719 24.050781 L 32.796875 24.050781 L 32.796875 7.523438 L 4.203125 7.523438 L 4.203125 24.050781 L 6.886719 24.050781 L 7.515625 20.15625 C 7.421875 20.109375 7.335938 20.0625 7.246094 20.007812 C 6.40625 19.5 5.871094 18.6875 5.625 17.800781 C 5.382812 16.917969 5.425781 15.953125 5.742188 15.128906 C 5.816406 14.925781 5.914062 14.730469 6.027344 14.542969 C 6.21875 14.226562 6.421875 13.917969 6.625 13.601562 C 7.507812 12.242188 8.457031 10.789062 8.0625 9.816406 C 8.011719 9.6875 8.070312 9.542969 8.199219 9.492188 C 8.273438 9.460938 8.355469 9.46875 8.421875 9.507812 C 10 10.289062 11.222656 11.667969 11.917969 13.203125 C 12.296875 14.039062 12.519531 14.925781 12.558594 15.789062 C 12.59375 16.65625 12.445312 17.5 12.078125 18.25 C 11.6875 19.042969 11.054688 19.726562 10.144531 20.203125 L 10.554688 24.050781 L 14.914062 24.050781 L 14.914062 23.085938 C 14.914062 22.9375 14.976562 22.800781 15.074219 22.703125 C 15.171875 22.605469 15.308594 22.542969 15.457031 22.542969 L 16.148438 22.542969 L 16.148438 20.554688 C 16.148438 20.367188 16.226562 20.199219 16.351562 20.074219 C 16.441406 19.984375 16.558594 19.917969 16.691406 19.890625 C 16.738281 19.355469 16.722656 17.882812 15.25 16.980469 L 15.253906 16.980469 C 15.175781 16.933594 15.144531 16.839844 15.175781 16.753906 L 17.960938 9.609375 C 17.984375 9.53125 18.054688 9.472656 18.140625 9.472656 C 18.226562 9.472656 18.296875 9.53125 18.320312 9.609375 L 21.097656 16.738281 C 21.140625 16.824219 21.109375 16.929688 21.027344 16.980469 C 19.558594 17.882812 19.539062 19.355469 19.589844 19.890625 C 19.71875 19.917969 19.835938 19.984375 19.929688 20.074219 C 20.054688 20.199219 20.128906 20.367188 20.128906 20.554688 L 20.128906 22.542969 L 20.824219 22.542969 C 20.972656 22.542969 21.109375 22.605469 21.207031 22.703125 C 21.304688 22.800781 21.367188 22.9375 21.367188 23.085938 L 21.367188 24.050781 Z M 30.386719 24.050781 L 30.386719 9.910156 L 24.382812 9.910156 L 24.382812 24.050781 Z M 7.640625 24.050781 L 9.804688 24.050781 L 9.425781 20.476562 L 8.222656 20.4375 Z M 15.660156 24.050781 L 20.621094 24.050781 L 20.621094 23.292969 L 15.660156 23.292969 Z M 16.648438 22.542969 L 19.632812 22.542969 L 19.632812 20.554688 C 19.632812 20.507812 19.613281 20.460938 19.578125 20.425781 C 19.546875 20.394531 19.5 20.375 19.449219 20.375 L 16.832031 20.375 C 16.78125 20.375 16.734375 20.394531 16.703125 20.425781 C 16.667969 20.460938 16.648438 20.507812 16.648438 20.554688 Z M 19.214844 19.875 C 19.167969 19.25 19.230469 17.734375 20.703125 16.746094 L 18.328125 10.652344 L 18.328125 14.773438 C 18.484375 14.808594 18.621094 14.886719 18.734375 14.996094 C 18.882812 15.148438 18.976562 15.359375 18.976562 15.589844 C 18.976562 15.820312 18.882812 16.03125 18.734375 16.179688 C 18.582031 16.332031 18.371094 16.425781 18.140625 16.425781 C 17.910156 16.425781 17.699219 16.332031 17.546875 16.179688 C 17.394531 16.027344 17.300781 15.820312 17.300781 15.589844 C 17.300781 15.355469 17.394531 15.148438 17.546875 14.996094 C 17.65625 14.886719 17.796875 14.808594 17.953125 14.769531 L 17.953125 10.652344 L 15.578125 16.746094 C 17.050781 17.734375 17.113281 19.25 17.066406 19.875 Z M 18.378906 15.347656 C 18.320312 15.285156 18.234375 15.25 18.140625 15.25 C 18.046875 15.25 17.960938 15.285156 17.898438 15.347656 C 17.839844 15.410156 17.800781 15.496094 17.800781 15.589844 C 17.800781 15.683594 17.839844 15.765625 17.898438 15.828125 C 17.960938 15.890625 18.046875 15.929688 18.140625 15.929688 C 18.234375 15.929688 18.320312 15.890625 18.378906 15.828125 C 18.441406 15.765625 18.480469 15.683594 18.480469 15.589844 C 18.480469 15.492188 18.441406 15.410156 18.378906 15.347656 Z M 12.648438 31.128906 L 13.96875 31.128906 C 14.28125 30.796875 14.519531 30.414062 14.695312 30.011719 C 14.878906 29.582031 14.996094 29.132812 15.046875 28.695312 L 4.015625 28.695312 C 3.511719 28.695312 3.050781 28.492188 2.71875 28.160156 C 2.386719 27.828125 2.183594 27.367188 2.183594 26.863281 L 2.183594 7.246094 C 2.183594 6.742188 2.386719 6.28125 2.71875 5.949219 C 3.050781 5.617188 3.511719 5.414062 4.015625 5.414062 L 32.984375 5.414062 C 33.488281 5.414062 33.945312 5.617188 34.277344 5.949219 C 34.609375 6.28125 34.816406 6.742188 34.816406 7.246094 L 34.816406 26.863281 C 34.816406 27.367188 34.609375 27.828125 34.277344 28.160156 C 33.945312 28.492188 33.488281 28.695312 32.984375 28.695312 L 21.953125 28.695312 C 22.003906 29.132812 22.121094 29.582031 22.304688 30.011719 C 22.480469 30.414062 22.71875 30.796875 23.03125 31.128906 L 24.351562 31.128906 C 24.648438 31.128906 24.917969 31.253906 25.113281 31.445312 C 25.308594 31.640625 25.429688 31.910156 25.429688 32.207031 L 25.429688 32.914062 C 25.429688 33.121094 25.261719 33.285156 25.054688 33.285156 L 11.945312 33.285156 C 11.738281 33.285156 11.570312 33.121094 11.570312 32.914062 L 11.570312 32.207031 C 11.570312 31.910156 11.691406 31.640625 11.886719 31.445312 C 12.082031 31.253906 12.351562 31.128906 12.648438 31.128906 Z M 14.617188 31.128906 L 22.382812 31.128906 C 22.167969 30.84375 21.988281 30.53125 21.851562 30.210938 C 21.636719 29.714844 21.507812 29.195312 21.453125 28.695312 L 15.546875 28.695312 C 15.492188 29.195312 15.363281 29.714844 15.148438 30.210938 C 15.007812 30.53125 14.832031 30.84375 14.617188 31.128906 Z M 24.351562 31.878906 L 12.648438 31.878906 C 12.558594 31.878906 12.476562 31.914062 12.417969 31.976562 C 12.355469 32.035156 12.320312 32.117188 12.320312 32.207031 L 12.320312 32.539062 L 24.679688 32.539062 L 24.679688 32.207031 C 24.679688 32.117188 24.644531 32.035156 24.582031 31.976562 C 24.523438 31.914062 24.441406 31.878906 24.351562 31.878906 Z M 18.5 25.523438 C 18.769531 25.523438 19.011719 25.632812 19.1875 25.8125 C 19.367188 25.988281 19.476562 26.230469 19.476562 26.5 C 19.476562 26.769531 19.367188 27.011719 19.1875 27.191406 L 19.179688 27.199219 C 19.003906 27.371094 18.761719 27.476562 18.5 27.476562 C 18.230469 27.476562 17.988281 27.367188 17.8125 27.191406 L 17.808594 27.1875 C 17.632812 27.011719 17.523438 26.769531 17.523438 26.5 C 17.523438 26.230469 17.632812 25.988281 17.808594 25.8125 C 17.988281 25.632812 18.230469 25.523438 18.5 25.523438 Z M 18.925781 26.074219 C 18.816406 25.964844 18.664062 25.898438 18.5 25.898438 C 18.332031 25.898438 18.183594 25.964844 18.074219 26.074219 C 17.964844 26.183594 17.898438 26.335938 17.898438 26.5 C 17.898438 26.667969 17.964844 26.816406 18.074219 26.925781 C 18.183594 27.035156 18.332031 27.101562 18.5 27.101562 C 18.660156 27.101562 18.808594 27.039062 18.917969 26.933594 L 18.925781 26.925781 C 19.035156 26.816406 19.101562 26.667969 19.101562 26.5 C 19.101562 26.335938 19.035156 26.183594 18.925781 26.074219 Z M 32.984375 6.160156 L 4.015625 6.160156 C 3.71875 6.160156 3.445312 6.28125 3.25 6.480469 C 3.050781 6.675781 2.929688 6.949219 2.929688 7.246094 L 2.929688 26.863281 C 2.929688 27.160156 3.050781 27.433594 3.25 27.628906 C 3.445312 27.828125 3.71875 27.949219 4.015625 27.949219 L 32.984375 27.949219 C 33.28125 27.949219 33.554688 27.828125 33.75 27.628906 C 33.949219 27.433594 34.070312 27.160156 34.070312 26.863281 L 34.070312 7.246094 C 34.070312 6.949219 33.949219 6.675781 33.75 6.480469 C 33.554688 6.28125 33.28125 6.160156 32.984375 6.160156 Z M 7.753906 19.71875 C 7.804688 19.695312 7.867188 19.679688 7.929688 19.683594 L 9.773438 19.742188 C 9.820312 19.742188 9.863281 19.753906 9.902344 19.769531 C 10.71875 19.34375 11.285156 18.734375 11.632812 18.03125 C 11.960938 17.359375 12.09375 16.597656 12.0625 15.808594 C 12.027344 15.011719 11.816406 14.1875 11.460938 13.40625 C 10.878906 12.121094 9.902344 10.949219 8.648438 10.199219 C 8.710938 11.308594 7.851562 12.628906 7.042969 13.871094 C 6.832031 14.191406 6.628906 14.507812 6.453125 14.796875 C 6.355469 14.957031 6.273438 15.125 6.207031 15.304688 C 5.925781 16.035156 5.890625 16.886719 6.105469 17.667969 C 6.320312 18.441406 6.78125 19.144531 7.503906 19.585938 C 7.582031 19.632812 7.664062 19.675781 7.753906 19.71875 Z M 27.257812 11.410156 C 27.15625 11.410156 27.070312 11.324219 27.070312 11.222656 C 27.070312 11.121094 27.15625 11.035156 27.257812 11.035156 L 29.3125 11.035156 C 29.414062 11.035156 29.5 11.121094 29.5 11.222656 C 29.5 11.324219 29.414062 11.410156 29.3125 11.410156 Z M 27.257812 16.054688 C 27.15625 16.054688 27.070312 15.972656 27.070312 15.867188 C 27.070312 15.765625 27.15625 15.679688 27.257812 15.679688 L 29.3125 15.679688 C 29.414062 15.679688 29.5 15.765625 29.5 15.867188 C 29.5 15.972656 29.414062 16.054688 29.3125 16.054688 Z M 27.257812 20.699219 C 27.15625 20.699219 27.070312 20.617188 27.070312 20.511719 C 27.070312 20.410156 27.15625 20.328125 27.257812 20.328125 L 29.3125 20.328125 C 29.414062 20.328125 29.5 20.410156 29.5 20.511719 C 29.5 20.617188 29.414062 20.699219 29.3125 20.699219 Z M 28.179688 13.730469 C 28.074219 13.730469 27.992188 13.648438 27.992188 13.546875 C 27.992188 13.441406 28.074219 13.359375 28.179688 13.359375 L 29.3125 13.359375 C 29.414062 13.359375 29.5 13.441406 29.5 13.546875 C 29.5 13.648438 29.414062 13.730469 29.3125 13.730469 Z M 28.179688 18.378906 C 28.074219 18.378906 27.992188 18.292969 27.992188 18.191406 C 27.992188 18.085938 28.074219 18.003906 28.179688 18.003906 L 29.3125 18.003906 C 29.414062 18.003906 29.5 18.085938 29.5 18.191406 C 29.5 18.292969 29.414062 18.378906 29.3125 18.378906 Z M 28.179688 23.023438 C 28.074219 23.023438 27.992188 22.941406 27.992188 22.835938 C 27.992188 22.734375 28.074219 22.648438 28.179688 22.648438 L 29.3125 22.648438 C 29.414062 22.648438 29.5 22.734375 29.5 22.835938 C 29.5 22.941406 29.414062 23.023438 29.3125 23.023438 Z M 28.179688 23.023438 " fill-opacity="1" fill-rule="nonzero"/></g></svg>