<svg xmlns="http://www.w3.org/2000/svg" xmlns:xlink="http://www.w3.org/1999/xlink" width="100" zoomAndPan="magnify" viewBox="0 0 75 74.999997" height="100" preserveAspectRatio="xMidYMid meet" version="1.0"><defs><clipPath id="839881e5df"><path d="M 14 12.859375 L 60 12.859375 L 60 64.609375 L 14 64.609375 Z M 14 12.859375 " clip-rule="nonzero"/></clipPath><clipPath id="a14dfd0aed"><path d="M 33 52 L 61 52 L 61 64.609375 L 33 64.609375 Z M 33 52 " clip-rule="nonzero"/></clipPath><clipPath id="f5550dee8e"><path d="M 58 52 L 63.523438 52 L 63.523438 58 L 58 58 Z M 58 52 " clip-rule="nonzero"/></clipPath><clipPath id="8cfde65805"><path d="M 13.273438 21 L 27 21 L 27 36 L 13.273438 36 Z M 13.273438 21 " clip-rule="nonzero"/></clipPath><clipPath id="872e77d29a"><path d="M 13 12.277344 L 61 12.277344 L 61 64.777344 L 13 64.777344 Z M 13 12.277344 " clip-rule="nonzero"/></clipPath><clipPath id="510b01263e"><path d="M 33 52 L 61 52 L 61 64.777344 L 33 64.777344 Z M 33 52 " clip-rule="nonzero"/></clipPath><clipPath id="5cff9d70d2"><path d="M 59 52 L 64.5625 52 L 64.5625 58 L 59 58 Z M 59 52 " clip-rule="nonzero"/></clipPath><clipPath id="4702205b47"><path d="M 12.8125 20 L 27 20 L 27 36 L 12.8125 36 Z M 12.8125 20 " clip-rule="nonzero"/></clipPath><clipPath id="dc5d0b7fa8"><path d="M 6 5 L 71 5 L 71 70 L 6 70 Z M 6 5 " clip-rule="nonzero"/></clipPath><clipPath id="eb3a91cd5a"><path d="M 5.207031 12.414062 L 5.207031 62.585938 C 5.207031 67.140625 8.902344 70.835938 13.457031 70.835938 L 63.628906 70.835938 C 68.183594 70.835938 71.878906 67.140625 71.878906 62.585938 L 71.878906 12.414062 C 71.878906 7.859375 68.183594 4.164062 63.628906 4.164062 L 13.457031 4.164062 C 8.902344 4.164062 5.207031 7.859375 5.207031 12.414062 Z M 5.207031 12.414062 " clip-rule="nonzero"/></clipPath><clipPath id="b744aa07aa"><path d="M 14.355469 5.0625 L 62.730469 5.0625 C 67.285156 5.0625 70.980469 8.757812 70.980469 13.3125 L 70.980469 61.6875 C 70.980469 66.242188 67.285156 69.9375 62.730469 69.9375 L 14.355469 69.9375 C 9.800781 69.9375 6.105469 66.242188 6.105469 61.6875 L 6.105469 13.3125 C 6.105469 8.757812 9.800781 5.0625 14.355469 5.0625 Z M 14.355469 5.0625 " clip-rule="nonzero"/></clipPath><clipPath id="7ab0b480b5"><path d="M 5.207031 4.164062 L 71.953125 4.164062 L 71.953125 70.910156 L 5.207031 70.910156 Z M 5.207031 4.164062 " clip-rule="nonzero"/></clipPath><clipPath id="801c0a6011"><path d="M 5.207031 12.414062 L 5.207031 62.585938 C 5.207031 67.140625 8.902344 70.835938 13.457031 70.835938 L 63.628906 70.835938 C 68.183594 70.835938 71.878906 67.140625 71.878906 62.585938 L 71.878906 12.414062 C 71.878906 7.859375 68.183594 4.164062 63.628906 4.164062 L 13.457031 4.164062 C 8.902344 4.164062 5.207031 7.859375 5.207031 12.414062 Z M 5.207031 12.414062 " clip-rule="nonzero"/></clipPath><clipPath id="09d3565193"><path d="M 5.207031 12.414062 L 5.207031 62.582031 C 5.207031 67.140625 8.902344 70.832031 13.457031 70.832031 L 63.625 70.832031 C 68.183594 70.832031 71.875 67.140625 71.875 62.582031 L 71.875 12.414062 C 71.875 7.859375 68.183594 4.164062 63.625 4.164062 L 13.457031 4.164062 C 8.902344 4.164062 5.207031 7.859375 5.207031 12.414062 Z M 5.207031 12.414062 " clip-rule="nonzero"/></clipPath></defs><g clip-path="url(#839881e5df)"><path fill="#0c74ff" d="M 26.824219 35.441406 C 25.265625 35.429688 23.757812 35.703125 22.304688 36.261719 C 20.851562 36.820312 19.550781 37.625 18.402344 38.675781 C 14.867188 42.085938 13.308594 47.984375 14.769531 52.394531 C 15.53125 54.628906 16.859375 56.453125 18.746094 57.863281 C 24.949219 62.683594 33.648438 63.921875 38.28125 64.230469 C 38.296875 64.230469 38.316406 64.230469 38.335938 64.230469 C 38.523438 64.230469 38.691406 64.175781 38.839844 64.066406 C 38.992188 63.957031 39.09375 63.8125 39.152344 63.632812 C 39.207031 63.457031 39.203125 63.277344 39.144531 63.101562 C 39.085938 62.925781 38.980469 62.785156 38.824219 62.675781 C 37.128906 61.488281 35.421875 60.324219 33.613281 59.113281 C 32.410156 58.449219 31.574219 57.472656 31.105469 56.183594 C 30.964844 55.617188 30.980469 55.058594 31.148438 54.5 C 31.316406 53.941406 31.613281 53.464844 32.046875 53.074219 C 32.542969 52.683594 33.085938 52.367188 33.667969 52.121094 C 34.355469 51.828125 34.992188 51.453125 35.582031 51 C 36.597656 50.140625 37.328125 49.078125 37.765625 47.820312 C 38.1875 46.71875 38.324219 45.578125 38.175781 44.40625 C 38.027344 43.234375 37.613281 42.164062 36.933594 41.199219 L 38.882812 39.246094 L 39.402344 38.894531 C 44.097656 35.691406 48.203125 31.863281 51.722656 27.40625 L 59.34375 17.746094 C 59.480469 17.574219 59.539062 17.382812 59.527344 17.164062 C 59.515625 16.949219 59.433594 16.765625 59.277344 16.609375 L 55.859375 13.191406 C 55.707031 13.039062 55.519531 12.957031 55.304688 12.941406 C 55.089844 12.929688 54.894531 12.992188 54.726562 13.125 L 45.664062 20.277344 C 40.828125 24.09375 36.742188 28.59375 33.398438 33.769531 L 31.234375 35.933594 C 29.785156 35.574219 28.316406 35.410156 26.824219 35.441406 Z M 36.15625 47.246094 C 35.824219 48.207031 35.269531 49.019531 34.496094 49.683594 C 34.015625 50.046875 33.496094 50.34375 32.945312 50.582031 C 32.214844 50.890625 31.542969 51.292969 30.929688 51.789062 C 30.597656 52.085938 30.3125 52.421875 30.070312 52.800781 C 29.832031 53.175781 29.644531 53.578125 29.515625 54.003906 C 29.386719 54.429688 29.316406 54.867188 29.308594 55.3125 C 29.296875 55.761719 29.347656 56.199219 29.460938 56.632812 C 29.734375 57.457031 30.148438 58.207031 30.703125 58.878906 C 31.253906 59.550781 31.910156 60.105469 32.667969 60.535156 C 33.507812 61.097656 34.328125 61.652344 35.136719 62.203125 C 28.867188 61.371094 23.503906 59.394531 19.796875 56.515625 C 18.183594 55.3125 17.050781 53.757812 16.394531 51.855469 C 15.148438 48.09375 16.550781 42.839844 19.59375 39.902344 C 20.585938 39 21.710938 38.3125 22.964844 37.839844 C 24.21875 37.363281 25.515625 37.132812 26.859375 37.152344 C 28.285156 37.117188 29.683594 37.28125 31.0625 37.648438 L 31.207031 37.792969 C 28.777344 37.859375 26.53125 38.535156 24.46875 39.820312 C 20.707031 42.332031 17.859375 47.476562 19.59375 51.734375 L 21.179688 51.085938 C 19.789062 47.683594 22.296875 43.328125 25.417969 41.242188 C 27.679688 39.726562 30.421875 39.46875 32.859375 39.445312 L 35.167969 41.753906 C 35.5 42.117188 35.773438 42.523438 35.992188 42.964844 C 36.210938 43.40625 36.367188 43.871094 36.453125 44.355469 C 36.539062 44.84375 36.558594 45.332031 36.507812 45.824219 C 36.460938 46.3125 36.34375 46.789062 36.15625 47.246094 Z M 46.722656 21.625 L 55.1875 14.941406 L 57.53125 17.285156 L 50.382812 26.347656 C 46.972656 30.667969 42.992188 34.382812 38.441406 37.484375 L 35.160156 34.203125 C 38.339844 29.390625 42.195312 25.195312 46.722656 21.625 Z M 34.0625 35.523438 L 37.128906 38.589844 L 35.773438 39.945312 L 32.707031 36.878906 Z M 34.0625 35.523438 " fill-opacity="1" fill-rule="nonzero"/></g><path fill="#0c74ff" d="M 20.636719 53.726562 L 21.84375 52.515625 L 23.554688 54.226562 L 22.34375 55.4375 Z M 20.636719 53.726562 " fill-opacity="1" fill-rule="nonzero"/><g clip-path="url(#a14dfd0aed)"><path fill="#0c74ff" d="M 57.820312 62.523438 L 42.433594 62.523438 L 42.433594 64.234375 L 57.820312 64.234375 C 58.160156 64.234375 58.488281 64.167969 58.800781 64.039062 C 59.113281 63.910156 59.390625 63.722656 59.632812 63.484375 C 59.875 63.242188 60.058594 62.964844 60.1875 62.652344 C 60.320312 62.335938 60.382812 62.011719 60.382812 61.671875 C 60.382812 61.328125 60.320312 61.003906 60.1875 60.6875 C 60.058594 60.375 59.875 60.097656 59.632812 59.855469 C 59.390625 59.617188 59.113281 59.429688 58.800781 59.300781 C 58.488281 59.171875 58.160156 59.105469 57.820312 59.105469 L 52.691406 59.105469 C 52.453125 59.105469 52.253906 59.023438 52.085938 58.855469 C 51.917969 58.6875 51.835938 58.488281 51.835938 58.25 C 51.835938 58.015625 51.917969 57.8125 52.085938 57.644531 C 52.253906 57.480469 52.453125 57.394531 52.691406 57.394531 L 55.253906 57.394531 C 55.59375 57.394531 55.921875 57.332031 56.234375 57.199219 C 56.550781 57.070312 56.828125 56.886719 57.066406 56.644531 C 57.308594 56.402344 57.492188 56.125 57.625 55.8125 C 57.753906 55.5 57.820312 55.171875 57.820312 54.832031 C 57.820312 54.492188 57.753906 54.164062 57.625 53.851562 C 57.492188 53.535156 57.308594 53.257812 57.066406 53.019531 C 56.828125 52.777344 56.550781 52.59375 56.234375 52.460938 C 55.921875 52.332031 55.59375 52.265625 55.253906 52.265625 L 42.003906 52.265625 C 41.722656 52.265625 41.449219 52.320312 41.1875 52.429688 C 40.925781 52.539062 40.695312 52.691406 40.492188 52.894531 C 40.292969 53.09375 40.140625 53.324219 40.03125 53.585938 C 39.921875 53.847656 39.867188 54.121094 39.867188 54.402344 C 39.867188 54.523438 39.828125 54.621094 39.742188 54.707031 C 39.660156 54.789062 39.558594 54.832031 39.441406 54.832031 L 36.019531 54.832031 C 35.738281 54.832031 35.464844 54.886719 35.203125 54.992188 C 34.941406 55.101562 34.710938 55.257812 34.511719 55.457031 C 34.308594 55.65625 34.15625 55.890625 34.046875 56.152344 C 33.9375 56.414062 33.882812 56.683594 33.882812 56.96875 L 33.882812 58.25 L 35.59375 58.25 L 35.59375 56.96875 C 35.59375 56.851562 35.636719 56.75 35.71875 56.667969 C 35.800781 56.582031 35.902344 56.539062 36.019531 56.539062 L 39.441406 56.539062 C 39.722656 56.539062 39.996094 56.488281 40.257812 56.378906 C 40.519531 56.269531 40.75 56.117188 40.953125 55.914062 C 41.152344 55.714844 41.304688 55.484375 41.414062 55.222656 C 41.523438 54.960938 41.578125 54.6875 41.578125 54.402344 C 41.578125 54.285156 41.621094 54.183594 41.703125 54.101562 C 41.785156 54.019531 41.886719 53.976562 42.003906 53.976562 L 55.253906 53.976562 C 55.492188 53.976562 55.691406 54.058594 55.859375 54.226562 C 56.027344 54.394531 56.109375 54.59375 56.109375 54.832031 C 56.109375 55.066406 56.027344 55.269531 55.859375 55.4375 C 55.691406 55.601562 55.492188 55.6875 55.253906 55.6875 L 52.691406 55.6875 C 52.351562 55.6875 52.023438 55.75 51.707031 55.882812 C 51.394531 56.011719 51.117188 56.195312 50.878906 56.4375 C 50.636719 56.679688 50.453125 56.957031 50.320312 57.269531 C 50.191406 57.582031 50.125 57.910156 50.125 58.25 C 50.125 58.589844 50.191406 58.917969 50.320312 59.230469 C 50.453125 59.546875 50.636719 59.824219 50.878906 60.0625 C 51.117188 60.304688 51.394531 60.488281 51.707031 60.621094 C 52.023438 60.75 52.351562 60.816406 52.691406 60.816406 L 57.820312 60.816406 C 58.054688 60.816406 58.257812 60.898438 58.421875 61.066406 C 58.589844 61.234375 58.675781 61.433594 58.675781 61.671875 C 58.675781 61.90625 58.589844 62.109375 58.421875 62.273438 C 58.257812 62.441406 58.054688 62.523438 57.820312 62.523438 Z M 57.820312 62.523438 " fill-opacity="1" fill-rule="nonzero"/></g><g clip-path="url(#f5550dee8e)"><path fill="#0c74ff" d="M 58.675781 54.832031 C 58.675781 55.171875 58.738281 55.5 58.871094 55.8125 C 59 56.125 59.183594 56.402344 59.425781 56.644531 C 59.664062 56.886719 59.941406 57.070312 60.257812 57.199219 C 60.570312 57.332031 60.898438 57.394531 61.238281 57.394531 C 61.578125 57.394531 61.90625 57.332031 62.21875 57.199219 C 62.535156 57.070312 62.8125 56.886719 63.050781 56.644531 C 63.292969 56.402344 63.476562 56.125 63.609375 55.8125 C 63.738281 55.5 63.804688 55.171875 63.804688 54.832031 C 63.804688 54.492188 63.738281 54.164062 63.609375 53.851562 C 63.476562 53.535156 63.292969 53.257812 63.050781 53.019531 C 62.8125 52.777344 62.535156 52.59375 62.21875 52.460938 C 61.90625 52.332031 61.578125 52.265625 61.238281 52.265625 C 60.898438 52.265625 60.570312 52.332031 60.257812 52.460938 C 59.941406 52.59375 59.664062 52.777344 59.425781 53.019531 C 59.183594 53.257812 59 53.535156 58.871094 53.851562 C 58.738281 54.164062 58.675781 54.492188 58.675781 54.832031 Z M 61.238281 53.976562 C 61.476562 53.976562 61.675781 54.058594 61.84375 54.226562 C 62.011719 54.394531 62.09375 54.59375 62.09375 54.832031 C 62.09375 55.066406 62.011719 55.269531 61.84375 55.4375 C 61.675781 55.601562 61.476562 55.6875 61.238281 55.6875 C 61.003906 55.6875 60.800781 55.601562 60.632812 55.4375 C 60.46875 55.269531 60.382812 55.066406 60.382812 54.832031 C 60.382812 54.59375 60.46875 54.394531 60.632812 54.226562 C 60.800781 54.058594 61.003906 53.976562 61.238281 53.976562 Z M 61.238281 53.976562 " fill-opacity="1" fill-rule="nonzero"/></g><path fill="#0c74ff" d="M 55.253906 47.992188 C 55.253906 48.332031 55.320312 48.660156 55.449219 48.972656 C 55.582031 49.289062 55.765625 49.566406 56.007812 49.804688 C 56.246094 50.046875 56.523438 50.230469 56.839844 50.363281 C 57.152344 50.492188 57.480469 50.558594 57.820312 50.558594 C 58.160156 50.558594 58.488281 50.492188 58.800781 50.363281 C 59.113281 50.230469 59.390625 50.046875 59.632812 49.804688 C 59.875 49.566406 60.058594 49.289062 60.1875 48.972656 C 60.320312 48.660156 60.382812 48.332031 60.382812 47.992188 C 60.382812 47.652344 60.320312 47.324219 60.1875 47.011719 C 60.058594 46.695312 59.875 46.417969 59.632812 46.179688 C 59.390625 45.9375 59.113281 45.753906 58.800781 45.625 C 58.488281 45.492188 58.160156 45.429688 57.820312 45.429688 C 57.480469 45.429688 57.152344 45.492188 56.839844 45.625 C 56.523438 45.753906 56.246094 45.9375 56.007812 46.179688 C 55.765625 46.417969 55.582031 46.695312 55.449219 47.011719 C 55.320312 47.324219 55.253906 47.652344 55.253906 47.992188 Z M 58.675781 47.992188 C 58.675781 48.230469 58.589844 48.429688 58.421875 48.597656 C 58.257812 48.765625 58.054688 48.847656 57.820312 48.847656 C 57.582031 48.847656 57.382812 48.765625 57.214844 48.597656 C 57.046875 48.429688 56.964844 48.230469 56.964844 47.992188 C 56.964844 47.757812 57.046875 47.554688 57.214844 47.386719 C 57.382812 47.222656 57.582031 47.136719 57.820312 47.136719 C 58.054688 47.136719 58.257812 47.222656 58.421875 47.386719 C 58.589844 47.554688 58.675781 47.757812 58.675781 47.992188 Z M 58.675781 47.992188 " fill-opacity="1" fill-rule="nonzero"/><path fill="#0c74ff" d="M 42.433594 50.558594 L 50.980469 50.558594 C 51.320312 50.558594 51.648438 50.492188 51.960938 50.363281 C 52.277344 50.230469 52.554688 50.046875 52.792969 49.804688 C 53.035156 49.566406 53.21875 49.289062 53.351562 48.972656 C 53.480469 48.660156 53.546875 48.332031 53.546875 47.992188 C 53.546875 47.652344 53.480469 47.324219 53.351562 47.011719 C 53.21875 46.695312 53.035156 46.417969 52.792969 46.179688 C 52.554688 45.9375 52.277344 45.753906 51.960938 45.625 C 51.648438 45.492188 51.320312 45.429688 50.980469 45.429688 L 42.433594 45.429688 C 42.09375 45.429688 41.765625 45.492188 41.449219 45.625 C 41.136719 45.753906 40.859375 45.9375 40.617188 46.179688 C 40.378906 46.417969 40.191406 46.695312 40.0625 47.011719 C 39.933594 47.324219 39.867188 47.652344 39.867188 47.992188 C 39.867188 48.332031 39.933594 48.660156 40.0625 48.972656 C 40.191406 49.289062 40.378906 49.566406 40.617188 49.804688 C 40.859375 50.046875 41.136719 50.230469 41.449219 50.363281 C 41.765625 50.492188 42.09375 50.558594 42.433594 50.558594 Z M 42.433594 47.136719 L 50.980469 47.136719 C 51.214844 47.136719 51.417969 47.222656 51.585938 47.386719 C 51.753906 47.554688 51.835938 47.757812 51.835938 47.992188 C 51.835938 48.230469 51.753906 48.429688 51.585938 48.597656 C 51.417969 48.765625 51.214844 48.847656 50.980469 48.847656 L 42.433594 48.847656 C 42.195312 48.847656 41.996094 48.765625 41.828125 48.597656 C 41.660156 48.429688 41.578125 48.230469 41.578125 47.992188 C 41.578125 47.757812 41.660156 47.554688 41.828125 47.386719 C 41.996094 47.222656 42.195312 47.136719 42.433594 47.136719 Z M 42.433594 47.136719 " fill-opacity="1" fill-rule="nonzero"/><g clip-path="url(#8cfde65805)"><path fill="#0c74ff" d="M 14.660156 30.289062 L 16.828125 30.664062 L 17.15625 33.777344 C 17.1875 34.109375 17.3125 34.398438 17.535156 34.648438 C 17.753906 34.898438 18.027344 35.058594 18.351562 35.132812 C 18.472656 35.15625 18.589844 35.171875 18.710938 35.171875 C 19.289062 35.171875 19.726562 34.925781 20.023438 34.429688 L 21.800781 31.558594 L 25.085938 32.339844 C 25.410156 32.414062 25.722656 32.390625 26.03125 32.265625 C 26.339844 32.140625 26.582031 31.9375 26.761719 31.65625 C 26.9375 31.375 27.015625 31.066406 26.996094 30.734375 C 26.976562 30.402344 26.863281 30.105469 26.652344 29.847656 L 24.6875 27.414062 L 25.960938 25.617188 C 26.160156 25.335938 26.253906 25.019531 26.242188 24.675781 C 26.234375 24.328125 26.121094 24.019531 25.902344 23.75 C 25.6875 23.480469 25.414062 23.300781 25.078125 23.214844 C 24.742188 23.128906 24.414062 23.148438 24.09375 23.28125 L 21.667969 24.285156 L 19.3125 21.730469 C 19.09375 21.492188 18.824219 21.335938 18.503906 21.265625 C 18.1875 21.195312 17.878906 21.222656 17.574219 21.347656 C 17.273438 21.472656 17.035156 21.671875 16.859375 21.945312 C 16.683594 22.21875 16.605469 22.519531 16.617188 22.84375 L 16.753906 26.316406 L 14.328125 27.316406 C 14.011719 27.449219 13.761719 27.664062 13.585938 27.964844 C 13.410156 28.261719 13.339844 28.582031 13.378906 28.925781 C 13.414062 29.269531 13.554688 29.570312 13.789062 29.820312 C 14.027344 30.074219 14.316406 30.230469 14.660156 30.289062 Z M 17.507812 27.855469 C 17.808594 27.730469 18.042969 27.53125 18.21875 27.253906 C 18.394531 26.980469 18.476562 26.683594 18.464844 26.355469 L 18.339844 23.195312 L 20.484375 25.519531 C 20.707031 25.757812 20.976562 25.910156 21.292969 25.980469 C 21.613281 26.050781 21.921875 26.023438 22.222656 25.902344 L 24.253906 25.0625 L 23.226562 26.515625 C 23.027344 26.800781 22.933594 27.117188 22.945312 27.460938 C 22.957031 27.808594 23.070312 28.117188 23.285156 28.390625 L 25.042969 30.566406 L 22.085938 29.871094 C 21.761719 29.792969 21.445312 29.820312 21.132812 29.945312 C 20.824219 30.074219 20.582031 30.28125 20.40625 30.566406 L 18.808594 33.148438 L 18.515625 30.367188 C 18.476562 30.023438 18.339844 29.722656 18.101562 29.46875 C 17.867188 29.21875 17.574219 29.058594 17.234375 29 L 15.476562 28.695312 Z M 17.507812 27.855469 " fill-opacity="1" fill-rule="nonzero"/></g><path fill="#0c74ff" d="M 27.902344 17.21875 L 29.609375 17.21875 L 29.609375 18.929688 L 27.902344 18.929688 Z M 27.902344 17.21875 " fill-opacity="1" fill-rule="nonzero"/><path fill="#0c74ff" d="M 26.191406 18.929688 L 27.902344 18.929688 L 27.902344 20.636719 L 26.191406 20.636719 Z M 26.191406 18.929688 " fill-opacity="1" fill-rule="nonzero"/><path fill="#0c74ff" d="M 29.609375 18.929688 L 31.320312 18.929688 L 31.320312 20.636719 L 29.609375 20.636719 Z M 29.609375 18.929688 " fill-opacity="1" fill-rule="nonzero"/><path fill="#0c74ff" d="M 27.902344 20.636719 L 29.609375 20.636719 L 29.609375 22.347656 L 27.902344 22.347656 Z M 27.902344 20.636719 " fill-opacity="1" fill-rule="nonzero"/><path fill="#0c74ff" d="M 29.609375 27.476562 L 31.320312 27.476562 L 31.320312 29.1875 L 29.609375 29.1875 Z M 29.609375 27.476562 " fill-opacity="1" fill-rule="nonzero"/><path fill="#0c74ff" d="M 31.320312 47.992188 L 31.320312 49.703125 C 31.601562 49.703125 31.878906 49.675781 32.152344 49.621094 C 32.429688 49.566406 32.695312 49.484375 32.953125 49.375 C 33.214844 49.269531 33.460938 49.136719 33.691406 48.980469 C 33.925781 48.824219 34.140625 48.648438 34.339844 48.449219 C 34.539062 48.25 34.714844 48.035156 34.871094 47.800781 C 35.027344 47.570312 35.160156 47.320312 35.265625 47.0625 C 35.375 46.804688 35.457031 46.535156 35.511719 46.261719 C 35.566406 45.988281 35.59375 45.707031 35.59375 45.429688 L 33.882812 45.429688 C 33.882812 45.769531 33.820312 46.09375 33.6875 46.410156 C 33.558594 46.722656 33.375 47 33.132812 47.242188 C 32.894531 47.480469 32.617188 47.667969 32.300781 47.796875 C 31.988281 47.925781 31.660156 47.992188 31.320312 47.992188 Z M 31.320312 47.992188 " fill-opacity="1" fill-rule="nonzero"/><g clip-path="url(#872e77d29a)"><path fill="#0c74ff" d="M 26.667969 35.371094 C 25.074219 35.359375 23.535156 35.636719 22.050781 36.207031 C 20.5625 36.777344 19.230469 37.601562 18.054688 38.675781 C 14.445312 42.164062 12.847656 48.199219 14.34375 52.707031 C 15.121094 54.988281 16.476562 56.855469 18.410156 58.300781 C 24.753906 63.230469 33.648438 64.496094 38.382812 64.8125 C 38.402344 64.8125 38.421875 64.8125 38.441406 64.8125 C 38.632812 64.8125 38.804688 64.753906 38.957031 64.640625 C 39.113281 64.527344 39.21875 64.382812 39.273438 64.199219 C 39.332031 64.019531 39.328125 63.835938 39.269531 63.65625 C 39.207031 63.476562 39.097656 63.332031 38.941406 63.222656 C 37.207031 62.007812 35.464844 60.8125 33.609375 59.574219 C 32.382812 58.898438 31.527344 57.898438 31.046875 56.582031 C 30.902344 56.003906 30.917969 55.429688 31.089844 54.859375 C 31.261719 54.289062 31.570312 53.800781 32.007812 53.402344 C 32.519531 53 33.070312 52.675781 33.667969 52.425781 C 34.371094 52.125 35.019531 51.742188 35.625 51.28125 C 36.664062 50.398438 37.410156 49.316406 37.859375 48.03125 C 38.289062 46.902344 38.429688 45.738281 38.277344 44.539062 C 38.128906 43.339844 37.703125 42.246094 37.007812 41.257812 L 39 39.261719 L 39.53125 38.898438 C 44.332031 35.628906 48.53125 31.710938 52.128906 27.152344 L 59.925781 17.273438 C 60.0625 17.101562 60.125 16.902344 60.113281 16.683594 C 60.097656 16.460938 60.011719 16.273438 59.855469 16.113281 L 56.359375 12.617188 C 56.203125 12.460938 56.015625 12.375 55.792969 12.363281 C 55.570312 12.351562 55.375 12.414062 55.199219 12.550781 L 45.933594 19.863281 C 40.988281 23.769531 36.808594 28.367188 33.394531 33.660156 L 31.179688 35.875 C 29.699219 35.503906 28.195312 35.335938 26.667969 35.371094 Z M 36.214844 47.441406 C 35.871094 48.425781 35.304688 49.253906 34.515625 49.933594 C 34.023438 50.304688 33.492188 50.609375 32.925781 50.851562 C 32.183594 51.167969 31.496094 51.578125 30.867188 52.085938 C 30.527344 52.390625 30.234375 52.734375 29.988281 53.121094 C 29.746094 53.503906 29.554688 53.914062 29.421875 54.351562 C 29.289062 54.789062 29.21875 55.234375 29.210938 55.691406 C 29.199219 56.148438 29.25 56.597656 29.363281 57.039062 C 29.648438 57.882812 30.070312 58.648438 30.636719 59.335938 C 31.199219 60.023438 31.871094 60.589844 32.644531 61.03125 C 33.503906 61.605469 34.34375 62.171875 35.167969 62.738281 C 28.757812 61.886719 23.273438 59.863281 19.484375 56.921875 C 17.835938 55.691406 16.675781 54.101562 16.007812 52.15625 C 14.730469 48.308594 16.164062 42.9375 19.273438 39.929688 C 20.292969 39.011719 21.441406 38.308594 22.722656 37.820312 C 24.007812 37.335938 25.332031 37.101562 26.703125 37.117188 C 28.164062 37.082031 29.59375 37.253906 31.003906 37.628906 L 31.148438 37.773438 C 28.664062 37.839844 26.367188 38.53125 24.257812 39.847656 C 20.414062 42.417969 17.5 47.675781 19.277344 52.03125 L 20.894531 51.367188 C 19.476562 47.890625 22.039062 43.433594 25.230469 41.300781 C 27.546875 39.753906 30.347656 39.488281 32.839844 39.464844 L 35.199219 41.824219 C 35.539062 42.199219 35.824219 42.613281 36.046875 43.0625 C 36.269531 43.515625 36.425781 43.992188 36.515625 44.488281 C 36.605469 44.984375 36.625 45.484375 36.574219 45.984375 C 36.523438 46.488281 36.402344 46.972656 36.214844 47.441406 Z M 47.019531 21.242188 L 55.671875 14.40625 L 58.070312 16.804688 L 50.757812 26.070312 C 47.269531 30.488281 43.203125 34.285156 38.550781 37.460938 L 35.191406 34.101562 C 38.445312 29.183594 42.386719 24.894531 47.019531 21.242188 Z M 34.070312 35.457031 L 37.207031 38.589844 L 35.820312 39.976562 L 32.683594 36.839844 Z M 34.070312 35.457031 " fill-opacity="1" fill-rule="nonzero"/></g><path fill="#0c74ff" d="M 20.339844 54.066406 L 21.578125 52.832031 L 23.324219 54.578125 L 22.089844 55.816406 Z M 20.339844 54.066406 " fill-opacity="1" fill-rule="nonzero"/><g clip-path="url(#510b01263e)"><path fill="#0c74ff" d="M 58.363281 63.066406 L 42.628906 63.066406 L 42.628906 64.8125 L 58.363281 64.8125 C 58.710938 64.8125 59.046875 64.746094 59.367188 64.613281 C 59.6875 64.480469 59.972656 64.292969 60.21875 64.046875 C 60.464844 63.800781 60.652344 63.515625 60.789062 63.195312 C 60.921875 62.875 60.988281 62.539062 60.988281 62.191406 C 60.988281 61.84375 60.921875 61.507812 60.789062 61.1875 C 60.652344 60.867188 60.464844 60.582031 60.21875 60.335938 C 59.972656 60.089844 59.6875 59.902344 59.367188 59.769531 C 59.046875 59.636719 58.710938 59.570312 58.363281 59.570312 L 53.121094 59.570312 C 52.878906 59.570312 52.671875 59.484375 52.5 59.3125 C 52.332031 59.140625 52.246094 58.9375 52.246094 58.695312 C 52.246094 58.453125 52.332031 58.246094 52.5 58.078125 C 52.671875 57.90625 52.878906 57.820312 53.121094 57.820312 L 55.742188 57.820312 C 56.089844 57.820312 56.425781 57.753906 56.746094 57.621094 C 57.066406 57.488281 57.351562 57.296875 57.597656 57.050781 C 57.84375 56.804688 58.03125 56.523438 58.164062 56.203125 C 58.296875 55.878906 58.363281 55.546875 58.363281 55.199219 C 58.363281 54.851562 58.296875 54.515625 58.164062 54.195312 C 58.03125 53.875 57.84375 53.589844 57.597656 53.34375 C 57.351562 53.097656 57.066406 52.910156 56.746094 52.777344 C 56.425781 52.640625 56.089844 52.574219 55.742188 52.574219 L 42.191406 52.574219 C 41.902344 52.574219 41.625 52.632812 41.355469 52.742188 C 41.089844 52.851562 40.851562 53.011719 40.648438 53.214844 C 40.441406 53.421875 40.285156 53.65625 40.175781 53.925781 C 40.0625 54.191406 40.007812 54.472656 40.007812 54.761719 C 40.007812 54.882812 39.964844 54.984375 39.878906 55.070312 C 39.792969 55.15625 39.691406 55.199219 39.570312 55.199219 L 36.074219 55.199219 C 35.785156 55.199219 35.503906 55.253906 35.238281 55.363281 C 34.96875 55.476562 34.734375 55.632812 34.527344 55.839844 C 34.324219 56.042969 34.167969 56.28125 34.054688 56.546875 C 33.945312 56.816406 33.890625 57.09375 33.890625 57.382812 L 33.890625 58.695312 L 35.636719 58.695312 L 35.636719 57.382812 C 35.636719 57.261719 35.679688 57.160156 35.765625 57.074219 C 35.851562 56.988281 35.953125 56.945312 36.074219 56.945312 L 39.570312 56.945312 C 39.859375 56.945312 40.140625 56.890625 40.40625 56.78125 C 40.675781 56.667969 40.910156 56.511719 41.117188 56.304688 C 41.320312 56.101562 41.480469 55.863281 41.589844 55.597656 C 41.699219 55.328125 41.757812 55.050781 41.757812 54.761719 C 41.757812 54.640625 41.796875 54.539062 41.882812 54.453125 C 41.96875 54.367188 42.074219 54.324219 42.191406 54.324219 L 55.742188 54.324219 C 55.984375 54.324219 56.191406 54.410156 56.359375 54.578125 C 56.53125 54.75 56.617188 54.957031 56.617188 55.199219 C 56.617188 55.441406 56.53125 55.644531 56.359375 55.816406 C 56.191406 55.988281 55.984375 56.074219 55.742188 56.074219 L 53.121094 56.074219 C 52.773438 56.074219 52.4375 56.140625 52.117188 56.273438 C 51.796875 56.40625 51.511719 56.59375 51.265625 56.839844 C 51.019531 57.085938 50.832031 57.371094 50.695312 57.691406 C 50.5625 58.011719 50.496094 58.347656 50.496094 58.695312 C 50.496094 59.042969 50.5625 59.378906 50.695312 59.699219 C 50.832031 60.019531 51.019531 60.304688 51.265625 60.550781 C 51.511719 60.792969 51.796875 60.984375 52.117188 61.117188 C 52.4375 61.25 52.773438 61.316406 53.121094 61.316406 L 58.363281 61.316406 C 58.605469 61.316406 58.8125 61.402344 58.984375 61.574219 C 59.152344 61.742188 59.238281 61.949219 59.238281 62.191406 C 59.238281 62.433594 59.152344 62.636719 58.984375 62.808594 C 58.8125 62.980469 58.605469 63.066406 58.363281 63.066406 Z M 58.363281 63.066406 " fill-opacity="1" fill-rule="nonzero"/></g><g clip-path="url(#5cff9d70d2)"><path fill="#0c74ff" d="M 59.238281 55.199219 C 59.238281 55.546875 59.304688 55.878906 59.4375 56.203125 C 59.570312 56.523438 59.761719 56.804688 60.007812 57.050781 C 60.253906 57.296875 60.535156 57.488281 60.859375 57.621094 C 61.179688 57.753906 61.511719 57.820312 61.859375 57.820312 C 62.207031 57.820312 62.542969 57.753906 62.863281 57.621094 C 63.1875 57.488281 63.46875 57.296875 63.714844 57.050781 C 63.960938 56.804688 64.152344 56.523438 64.285156 56.203125 C 64.417969 55.878906 64.484375 55.546875 64.484375 55.199219 C 64.484375 54.851562 64.417969 54.515625 64.285156 54.195312 C 64.152344 53.875 63.960938 53.589844 63.714844 53.34375 C 63.46875 53.097656 63.1875 52.910156 62.863281 52.777344 C 62.542969 52.640625 62.207031 52.574219 61.859375 52.574219 C 61.511719 52.574219 61.179688 52.640625 60.859375 52.777344 C 60.535156 52.910156 60.253906 53.097656 60.007812 53.34375 C 59.761719 53.589844 59.570312 53.875 59.4375 54.195312 C 59.304688 54.515625 59.238281 54.851562 59.238281 55.199219 Z M 61.859375 54.324219 C 62.101562 54.324219 62.308594 54.410156 62.480469 54.578125 C 62.648438 54.75 62.734375 54.957031 62.734375 55.199219 C 62.734375 55.441406 62.648438 55.644531 62.480469 55.816406 C 62.308594 55.988281 62.101562 56.074219 61.859375 56.074219 C 61.621094 56.074219 61.414062 55.988281 61.242188 55.816406 C 61.074219 55.644531 60.988281 55.441406 60.988281 55.199219 C 60.988281 54.957031 61.074219 54.75 61.242188 54.582031 C 61.414062 54.410156 61.621094 54.324219 61.859375 54.324219 Z M 61.859375 54.324219 " fill-opacity="1" fill-rule="nonzero"/></g><path fill="#0c74ff" d="M 55.742188 48.207031 C 55.742188 48.554688 55.808594 48.886719 55.941406 49.207031 C 56.074219 49.53125 56.265625 49.8125 56.511719 50.058594 C 56.757812 50.304688 57.039062 50.496094 57.359375 50.628906 C 57.683594 50.761719 58.015625 50.828125 58.363281 50.828125 C 58.710938 50.828125 59.046875 50.761719 59.367188 50.628906 C 59.6875 50.496094 59.972656 50.304688 60.21875 50.058594 C 60.464844 49.8125 60.652344 49.53125 60.789062 49.207031 C 60.921875 48.886719 60.988281 48.554688 60.988281 48.207031 C 60.988281 47.855469 60.921875 47.523438 60.789062 47.203125 C 60.652344 46.878906 60.464844 46.597656 60.21875 46.351562 C 59.972656 46.105469 59.6875 45.914062 59.367188 45.78125 C 59.046875 45.648438 58.710938 45.582031 58.363281 45.582031 C 58.015625 45.582031 57.683594 45.648438 57.359375 45.78125 C 57.039062 45.914062 56.757812 46.105469 56.511719 46.351562 C 56.265625 46.597656 56.074219 46.878906 55.941406 47.203125 C 55.808594 47.523438 55.742188 47.855469 55.742188 48.207031 Z M 59.238281 48.207031 C 59.238281 48.445312 59.152344 48.652344 58.984375 48.824219 C 58.8125 48.992188 58.605469 49.078125 58.363281 49.078125 C 58.125 49.078125 57.917969 48.992188 57.746094 48.824219 C 57.574219 48.652344 57.492188 48.445312 57.492188 48.207031 C 57.492188 47.964844 57.574219 47.757812 57.746094 47.585938 C 57.917969 47.417969 58.125 47.332031 58.363281 47.332031 C 58.605469 47.332031 58.8125 47.417969 58.984375 47.585938 C 59.152344 47.757812 59.238281 47.964844 59.238281 48.207031 Z M 59.238281 48.207031 " fill-opacity="1" fill-rule="nonzero"/><path fill="#0c74ff" d="M 42.628906 50.828125 L 51.371094 50.828125 C 51.71875 50.828125 52.054688 50.761719 52.375 50.628906 C 52.695312 50.496094 52.980469 50.304688 53.226562 50.058594 C 53.472656 49.8125 53.660156 49.53125 53.792969 49.207031 C 53.925781 48.886719 53.992188 48.554688 53.992188 48.207031 C 53.992188 47.855469 53.925781 47.523438 53.792969 47.203125 C 53.660156 46.878906 53.472656 46.597656 53.226562 46.351562 C 52.980469 46.105469 52.695312 45.914062 52.375 45.78125 C 52.054688 45.648438 51.71875 45.582031 51.371094 45.582031 L 42.628906 45.582031 C 42.28125 45.582031 41.949219 45.648438 41.625 45.78125 C 41.304688 45.914062 41.023438 46.105469 40.777344 46.351562 C 40.53125 46.597656 40.339844 46.878906 40.207031 47.203125 C 40.074219 47.523438 40.007812 47.855469 40.007812 48.207031 C 40.007812 48.554688 40.074219 48.886719 40.207031 49.207031 C 40.339844 49.53125 40.53125 49.8125 40.777344 50.058594 C 41.023438 50.304688 41.304688 50.496094 41.625 50.628906 C 41.949219 50.761719 42.28125 50.828125 42.628906 50.828125 Z M 42.628906 47.332031 L 51.371094 47.332031 C 51.613281 47.332031 51.820312 47.417969 51.988281 47.585938 C 52.160156 47.757812 52.246094 47.964844 52.246094 48.207031 C 52.246094 48.445312 52.160156 48.652344 51.988281 48.824219 C 51.820312 48.992188 51.613281 49.078125 51.371094 49.078125 L 42.628906 49.078125 C 42.390625 49.078125 42.183594 48.992188 42.011719 48.824219 C 41.839844 48.652344 41.757812 48.445312 41.757812 48.207031 C 41.757812 47.964844 41.839844 47.757812 42.011719 47.585938 C 42.183594 47.417969 42.390625 47.332031 42.628906 47.332031 Z M 42.628906 47.332031 " fill-opacity="1" fill-rule="nonzero"/><g clip-path="url(#4702205b47)"><path fill="#0c74ff" d="M 14.230469 30.101562 L 16.449219 30.484375 L 16.78125 33.667969 C 16.816406 34.007812 16.945312 34.304688 17.167969 34.558594 C 17.394531 34.8125 17.671875 34.980469 18.007812 35.054688 C 18.128906 35.082031 18.25 35.09375 18.375 35.09375 C 18.648438 35.09375 18.90625 35.027344 19.144531 34.890625 C 19.382812 34.757812 19.574219 34.570312 19.714844 34.335938 L 21.53125 31.398438 L 24.890625 32.195312 C 25.222656 32.277344 25.542969 32.25 25.859375 32.121094 C 26.175781 31.996094 26.421875 31.785156 26.605469 31.5 C 26.785156 31.210938 26.867188 30.898438 26.847656 30.558594 C 26.828125 30.21875 26.710938 29.914062 26.496094 29.652344 L 24.484375 27.160156 L 25.785156 25.324219 C 25.988281 25.035156 26.085938 24.714844 26.074219 24.359375 C 26.066406 24.007812 25.949219 23.691406 25.726562 23.414062 C 25.507812 23.136719 25.226562 22.957031 24.882812 22.867188 C 24.539062 22.777344 24.207031 22.800781 23.878906 22.9375 L 21.398438 23.960938 L 18.988281 21.347656 C 18.761719 21.105469 18.488281 20.945312 18.164062 20.875 C 17.835938 20.800781 17.519531 20.832031 17.210938 20.957031 C 16.90625 21.085938 16.660156 21.289062 16.480469 21.570312 C 16.300781 21.851562 16.21875 22.15625 16.230469 22.488281 L 16.371094 26.039062 L 13.894531 27.0625 C 13.566406 27.199219 13.3125 27.417969 13.132812 27.722656 C 12.949219 28.027344 12.878906 28.355469 12.917969 28.707031 C 12.957031 29.058594 13.097656 29.363281 13.339844 29.621094 C 13.585938 29.878906 13.878906 30.039062 14.230469 30.101562 Z M 17.140625 27.613281 C 17.449219 27.484375 17.691406 27.28125 17.871094 27 C 18.050781 26.71875 18.132812 26.414062 18.121094 26.082031 L 17.996094 22.847656 L 20.1875 25.222656 C 20.414062 25.464844 20.6875 25.625 21.015625 25.695312 C 21.339844 25.769531 21.65625 25.742188 21.964844 25.613281 L 24.039062 24.757812 L 22.992188 26.242188 C 22.785156 26.535156 22.691406 26.855469 22.703125 27.210938 C 22.714844 27.566406 22.832031 27.882812 23.050781 28.160156 L 24.847656 30.382812 L 21.824219 29.671875 C 21.492188 29.59375 21.167969 29.621094 20.851562 29.75 C 20.535156 29.882812 20.285156 30.09375 20.105469 30.386719 L 18.472656 33.023438 L 18.175781 30.183594 C 18.136719 29.828125 17.996094 29.523438 17.75 29.265625 C 17.507812 29.003906 17.210938 28.84375 16.863281 28.785156 L 15.066406 28.472656 Z M 17.140625 27.613281 " fill-opacity="1" fill-rule="nonzero"/></g><path fill="#0c74ff" d="M 27.769531 16.738281 L 29.519531 16.738281 L 29.519531 18.484375 L 27.769531 18.484375 Z M 27.769531 16.738281 " fill-opacity="1" fill-rule="nonzero"/><path fill="#0c74ff" d="M 26.023438 18.484375 L 27.769531 18.484375 L 27.769531 20.234375 L 26.023438 20.234375 Z M 26.023438 18.484375 " fill-opacity="1" fill-rule="nonzero"/><path fill="#0c74ff" d="M 29.519531 18.484375 L 31.265625 18.484375 L 31.265625 20.234375 L 29.519531 20.234375 Z M 29.519531 18.484375 " fill-opacity="1" fill-rule="nonzero"/><path fill="#0c74ff" d="M 27.769531 20.234375 L 29.519531 20.234375 L 29.519531 21.980469 L 27.769531 21.980469 Z M 27.769531 20.234375 " fill-opacity="1" fill-rule="nonzero"/><path fill="#0c74ff" d="M 29.519531 27.226562 L 31.265625 27.226562 L 31.265625 28.972656 L 29.519531 28.972656 Z M 29.519531 27.226562 " fill-opacity="1" fill-rule="nonzero"/><path fill="#0c74ff" d="M 31.265625 48.207031 L 31.265625 49.953125 C 31.554688 49.953125 31.835938 49.925781 32.117188 49.867188 C 32.398438 49.8125 32.671875 49.730469 32.9375 49.621094 C 33.203125 49.507812 33.453125 49.375 33.695312 49.214844 C 33.933594 49.054688 34.152344 48.875 34.355469 48.671875 C 34.558594 48.46875 34.738281 48.25 34.898438 48.007812 C 35.058594 47.769531 35.191406 47.519531 35.304688 47.253906 C 35.414062 46.988281 35.496094 46.714844 35.550781 46.433594 C 35.609375 46.152344 35.636719 45.871094 35.636719 45.582031 L 33.890625 45.582031 C 33.890625 45.929688 33.824219 46.265625 33.6875 46.585938 C 33.554688 46.90625 33.367188 47.191406 33.121094 47.4375 C 32.875 47.683594 32.589844 47.871094 32.269531 48.003906 C 31.949219 48.136719 31.613281 48.207031 31.265625 48.207031 Z M 31.265625 48.207031 " fill-opacity="1" fill-rule="nonzero"/><g clip-path="url(#dc5d0b7fa8)"><g clip-path="url(#eb3a91cd5a)"><g clip-path="url(#b744aa07aa)"><path fill="#0c74ff" d="M 63.933594 4.164062 L 13.148438 4.164062 C 12.628906 4.164062 12.113281 4.214844 11.601562 4.320312 C 11.089844 4.421875 10.59375 4.574219 10.113281 4.773438 C 9.632812 4.972656 9.171875 5.21875 8.742188 5.507812 C 8.308594 5.796875 7.90625 6.125 7.539062 6.496094 C 7.167969 6.863281 6.839844 7.265625 6.550781 7.699219 C 6.261719 8.128906 6.015625 8.589844 5.816406 9.070312 C 5.617188 9.550781 5.464844 10.046875 5.363281 10.558594 C 5.257812 11.070312 5.207031 11.585938 5.207031 12.105469 L 5.207031 62.890625 C 5.207031 63.410156 5.257812 63.925781 5.363281 64.4375 C 5.464844 64.949219 5.617188 65.445312 5.816406 65.925781 C 6.015625 66.410156 6.261719 66.867188 6.550781 67.300781 C 6.839844 67.730469 7.167969 68.132812 7.539062 68.5 C 7.90625 68.871094 8.308594 69.199219 8.742188 69.488281 C 9.171875 69.78125 9.632812 70.023438 10.113281 70.222656 C 10.59375 70.425781 11.089844 70.574219 11.601562 70.675781 C 12.113281 70.78125 12.628906 70.832031 13.148438 70.832031 L 63.933594 70.832031 C 64.453125 70.832031 64.96875 70.78125 65.480469 70.675781 C 65.992188 70.574219 66.488281 70.425781 66.96875 70.222656 C 67.453125 70.023438 67.910156 69.78125 68.34375 69.488281 C 68.777344 69.199219 69.175781 68.871094 69.546875 68.5 C 69.914062 68.132812 70.242188 67.730469 70.53125 67.300781 C 70.824219 66.867188 71.066406 66.410156 71.265625 65.925781 C 71.46875 65.445312 71.617188 64.949219 71.71875 64.4375 C 71.824219 63.925781 71.875 63.410156 71.875 62.890625 L 71.875 12.105469 C 71.875 11.585938 71.824219 11.070312 71.71875 10.558594 C 71.617188 10.046875 71.46875 9.550781 71.265625 9.070312 C 71.066406 8.589844 70.824219 8.128906 70.53125 7.699219 C 70.242188 7.265625 69.914062 6.863281 69.546875 6.496094 C 69.175781 6.125 68.777344 5.796875 68.34375 5.507812 C 67.910156 5.21875 67.453125 4.972656 66.96875 4.773438 C 66.488281 4.574219 65.992188 4.421875 65.480469 4.320312 C 64.96875 4.214844 64.453125 4.164062 63.933594 4.164062 Z M 70.851562 62.890625 C 70.851562 63.34375 70.804688 63.792969 70.714844 64.238281 C 70.625 64.683594 70.496094 65.117188 70.320312 65.535156 C 70.148438 65.953125 69.933594 66.351562 69.679688 66.730469 C 69.429688 67.109375 69.140625 67.457031 68.820312 67.777344 C 68.5 68.097656 68.152344 68.386719 67.773438 68.636719 C 67.394531 68.890625 66.996094 69.105469 66.578125 69.277344 C 66.160156 69.453125 65.726562 69.582031 65.28125 69.671875 C 64.835938 69.761719 64.386719 69.808594 63.933594 69.808594 L 13.148438 69.808594 C 12.695312 69.808594 12.246094 69.761719 11.800781 69.671875 C 11.355469 69.582031 10.925781 69.453125 10.503906 69.277344 C 10.085938 69.105469 9.6875 68.890625 9.308594 68.636719 C 8.933594 68.386719 8.582031 68.097656 8.261719 67.777344 C 7.941406 67.457031 7.652344 67.109375 7.402344 66.730469 C 7.148438 66.351562 6.9375 65.953125 6.761719 65.535156 C 6.585938 65.117188 6.457031 64.683594 6.367188 64.238281 C 6.277344 63.792969 6.230469 63.34375 6.230469 62.890625 L 6.230469 12.105469 C 6.230469 11.652344 6.277344 11.203125 6.367188 10.757812 C 6.457031 10.3125 6.585938 9.878906 6.761719 9.460938 C 6.9375 9.042969 7.148438 8.644531 7.402344 8.265625 C 7.652344 7.890625 7.941406 7.539062 8.261719 7.21875 C 8.582031 6.898438 8.933594 6.609375 9.308594 6.359375 C 9.6875 6.105469 10.085938 5.894531 10.503906 5.71875 C 10.925781 5.542969 11.355469 5.414062 11.800781 5.324219 C 12.246094 5.234375 12.695312 5.1875 13.148438 5.1875 L 63.933594 5.1875 C 64.386719 5.1875 64.835938 5.234375 65.28125 5.324219 C 65.726562 5.414062 66.160156 5.542969 66.578125 5.71875 C 66.996094 5.894531 67.394531 6.105469 67.773438 6.359375 C 68.152344 6.609375 68.5 6.898438 68.820312 7.21875 C 69.140625 7.539062 69.429688 7.890625 69.679688 8.265625 C 69.933594 8.644531 70.148438 9.042969 70.320312 9.460938 C 70.496094 9.878906 70.625 10.3125 70.714844 10.757812 C 70.804688 11.203125 70.851562 11.652344 70.851562 12.105469 Z M 70.851562 62.890625 " fill-opacity="1" fill-rule="nonzero"/></g></g></g><g clip-path="url(#7ab0b480b5)"><g clip-path="url(#801c0a6011)"><g clip-path="url(#09d3565193)"><path stroke-linecap="butt" transform="matrix(0.75, 0, 0, 0.75, 5.207305, 4.164247)" fill="none" stroke-linejoin="miter" d="M -0.00036446 10.999754 L -0.00036446 77.890385 C -0.00036446 83.96851 4.926719 88.890386 10.999636 88.890386 L 77.890267 88.890386 C 83.968392 88.890386 88.890268 83.96851 88.890268 77.890385 L 88.890268 10.999754 C 88.890268 4.926837 83.968392 -0.0002464 77.890267 -0.0002464 L 10.999636 -0.0002464 C 4.926719 -0.0002464 -0.00036446 4.926837 -0.00036446 10.999754 Z M -0.00036446 10.999754 " stroke="#0c74ff" stroke-width="6" stroke-opacity="1" stroke-miterlimit="4"/></g></g></g></svg>