<svg xmlns="http://www.w3.org/2000/svg"  viewBox="0 0 48 48" width="48px" height="48px"><path fill="#373837" d="M17.878,4.502c-2.184-0.072-4.045,0.028-6.041,0.195s-4.013,0.837-5.45,2.231	c-2.523,2.448-2.893,6.379-2.881,9.895c0.012,3.403,0.024,6.221,0.036,9.624c0.017,4.809-0.087,10.215,1.995,14.551	c0.207,0.431,0.439,0.861,0.789,1.188c0.395,0.369,0.912,0.579,1.428,0.744c2.875,0.918,5.972,0.661,8.984,0.471	c6.007-0.379,12.033-0.451,18.047-0.217c2.237,0.087,4.722,0.135,6.407-1.338c1.183-1.034,1.894-2.62,2.232-4.155	c1.433-6.514,0.697-13.704,0.989-20.367c0.101-2.302,0.187-4.043-0.21-6.313c-0.397-2.27-1.597-4.545-3.668-5.556	c-1.399-0.682-3.015-0.715-4.572-0.733C29.934,4.647,23.906,4.575,17.878,4.502z"/><path fill="#231f20" d="M18,4.5c-2.472-0.095-4.926-0.587-7.391-0.141c-2.114,0.383-4.073,1.402-5.38,3.137 c-2.647,3.513-2.226,8.401-2.21,12.54c0.01,2.553,0.02,5.106,0.027,7.66c0.007,2.39,0.03,4.788,0.325,7.163 c0.281,2.259,0.785,4.534,1.826,6.576c1.091,2.14,3.784,2.46,5.956,2.603c2.64,0.174,5.297-0.139,7.932-0.27 c2.759-0.137,5.52-0.21,8.282-0.218c2.669-0.008,5.332,0.074,7.999,0.154c2.05,0.061,4.304-0.009,5.983-1.344 c1.796-1.427,2.443-3.717,2.821-5.879c0.434-2.479,0.598-4.998,0.655-7.511c0.059-2.617,0.004-5.234,0.012-7.852 c0.007-2.492,0.242-4.995,0.145-7.485c-0.085-2.173-0.438-4.432-1.654-6.283c-1.222-1.86-3.046-2.803-5.231-3.036 c-2.568-0.273-5.226-0.107-7.803-0.045c-2.741,0.065-5.48,0.169-8.221,0.216C20.714,4.507,19.357,4.515,18,4.5 c-0.644-0.007-0.644,0.993,0,1c5.084,0.056,10.162-0.236,15.244-0.282c1.225-0.011,2.453-0.019,3.678,0.021 c1.136,0.038,2.322,0.141,3.359,0.646c1.826,0.889,2.88,2.793,3.326,4.705c0.514,2.205,0.4,4.489,0.305,6.732 c-0.101,2.394-0.078,4.79-0.066,7.185c0.012,2.421,0.014,4.845-0.139,7.262c-0.147,2.325-0.33,4.825-1.126,7.033 c-0.364,1.009-0.928,1.979-1.744,2.688c-0.778,0.677-1.8,0.992-2.805,1.128c-2.237,0.304-4.585,0.002-6.833-0.04 c-5.097-0.095-10.188,0.05-15.275,0.372c-2.413,0.153-4.889,0.298-7.259-0.286c-0.54-0.133-1.112-0.279-1.598-0.558 c-0.543-0.312-0.833-0.814-1.099-1.362c-0.478-0.988-0.823-2.04-1.087-3.103c-1.087-4.375-0.831-9.01-0.847-13.481 c-0.009-2.405-0.02-4.809-0.027-7.214c-0.006-1.972,0.076-3.97,0.611-5.88c0.541-1.93,1.605-3.693,3.37-4.723 c1.944-1.134,4.213-1.287,6.409-1.122C15.599,5.313,16.795,5.454,18,5.5C18.644,5.525,18.643,4.525,18,4.5z"/><path fill="#4b7bb2" d="M25.35,19.47c-0.34-1.66-1.42-3.15-2.87-4.04c-2.63-1.61-7.02-1.45-10.06-0.99 c0.09,6.01,0.05,12.03,0.16,18.05c0.96-0.05,2.53-0.09,3.49-0.13c0.13-0.01,0.27-0.02,0.38-0.1c0.14-0.12,0.16-0.33,0.17-0.51 c0.06-1.56-0.18-3.13-0.12-4.69c2.67-0.31,5.91-0.75,7.65-2.8C25.25,22.96,25.69,21.14,25.35,19.47z M19.91,22.71 c-1.02,0.45-2.33,0.59-3.42,0.42c0.03-1.67,0.02-3.38,0.17-5.04c0.51-0.21,1.24-0.2,1.79-0.16c0.75,0.07,1.26,0.21,1.9,0.61 c0.65,0.41,1.16,1.1,1.16,1.86C21.51,21.45,20.87,22.29,19.91,22.71z"/><path fill="#231f20" d="M11.919,14.443c0.086,6.014,0.057,12.029,0.159,18.042c0.004,0.262,0.226,0.512,0.5,0.5 c0.779-0.033,1.558-0.057,2.337-0.084c0.58-0.02,1.567,0.127,1.974-0.39c0.436-0.555,0.244-1.6,0.216-2.242 c-0.047-1.07-0.139-2.135-0.109-3.206c-0.167,0.167-0.333,0.333-0.5,0.5c3.802-0.444,8.555-1.316,9.358-5.808 c0.365-2.041-0.302-4.099-1.711-5.607c-1.36-1.455-3.253-2.098-5.182-2.359c-2.216-0.3-4.47-0.156-6.674,0.173 c-0.634,0.095-0.365,1.058,0.266,0.964c1.699-0.253,3.432-0.369,5.148-0.262c1.642,0.102,3.376,0.41,4.761,1.35 c1.544,1.048,2.543,2.854,2.498,4.73c-0.046,1.907-1.106,3.536-2.772,4.428c-1.73,0.926-3.771,1.168-5.691,1.392 c-0.275,0.032-0.492,0.203-0.5,0.5c-0.023,0.824,0.022,1.644,0.069,2.466c0.023,0.411,0.047,0.822,0.058,1.233 c0.005,0.189,0.123,0.982-0.019,1.135c-0.004,0.004-0.63-0.016-0.714-0.013c-0.29,0.011-0.579,0.02-0.869,0.03 c-0.648,0.022-1.296,0.043-1.943,0.071c0.167,0.167,0.333,0.333,0.5,0.5c-0.102-6.014-0.073-12.028-0.159-18.042 C12.91,13.8,11.91,13.798,11.919,14.443z"/><path fill="#231f20" d="M16.161,18.086c-0.152,1.676-0.141,3.36-0.172,5.041c-0.004,0.198,0.156,0.45,0.367,0.482 c1.76,0.269,4.106-0.023,5.182-1.624c0.511-0.76,0.611-1.756,0.234-2.591c-0.391-0.865-1.25-1.443-2.125-1.741 c-0.491-0.167-1.023-0.223-1.539-0.243c-0.525-0.02-1.084,0.005-1.58,0.193c-0.252,0.096-0.426,0.337-0.349,0.615 c0.066,0.242,0.361,0.446,0.615,0.349c0.654-0.249,1.467-0.206,2.143-0.069c0.667,0.135,1.391,0.479,1.782,1.058 c0.359,0.531,0.373,1.187,0.064,1.747c-0.322,0.582-0.895,0.914-1.511,1.112c-0.843,0.27-1.772,0.362-2.649,0.228 c0.122,0.161,0.245,0.321,0.367,0.482c0.031-1.681,0.02-3.365,0.172-5.041c0.024-0.269-0.247-0.5-0.5-0.5 C16.37,17.586,16.186,17.816,16.161,18.086z"/><path fill="#4b7bb2" d="M36.301,21.862c0.072-0.729,0.144-1.457,0.216-2.186c0.02-0.199,0.029-0.427-0.114-0.567	c-0.094-0.092-0.232-0.121-0.362-0.145c-1.79-0.334-3.472-0.655-5.223-0.156s-3.443,2.349-3.317,4.166	c0.077,1.106,0.873,2.097,1.744,2.782s1.915,1.109,2.948,1.508c0.37,0.143,0.753,0.292,1.029,0.576s0.414,0.746,0.209,1.085	c-0.297,0.494-1.024,0.417-1.583,0.277c-1.485-0.372-2.862-0.744-4.347-1.116c0.014,1.044,0.027,2.089,0.041,3.133	c0.002,0.164,0.009,0.343,0.113,0.47c0.081,0.099,0.207,0.148,0.327,0.191c1.864,0.667,3.858,0.873,5.702,0.152	s3.34-2.502,3.34-4.482c0-0.453-0.078-0.913-0.285-1.315c-0.537-1.039-1.768-1.461-2.85-1.905c-0.743-0.305-1.465-0.598-2.159-1.005	c-0.331-0.194-0.704-0.849-0.598-1.218c0.084-0.294,0.427-0.419,0.727-0.483C33.252,21.329,34.954,21.402,36.301,21.862z"/><path fill="#231f20" d="M36.801,21.862c0.056-0.567,0.112-1.133,0.168-1.7c0.04-0.411,0.142-0.873-0.094-1.245 c-0.235-0.371-0.648-0.425-1.05-0.499c-0.538-0.099-1.077-0.194-1.62-0.263c-1.962-0.249-3.956-0.053-5.504,1.279 c-1.304,1.122-2.133,2.936-1.445,4.614c0.759,1.85,2.634,2.837,4.389,3.537c0.3,0.12,1.688,0.533,1.353,1.089 c-0.223,0.371-1.191,0.004-1.484-0.07c-1.295-0.329-2.586-0.673-3.882-0.999c-0.31-0.078-0.637,0.151-0.633,0.482 c0.008,0.603,0.016,1.205,0.024,1.808c0.007,0.544-0.075,1.175,0.058,1.706c0.234,0.932,1.727,1.094,2.517,1.234 c2.011,0.357,4.157,0.07,5.797-1.217c1.401-1.101,2.355-2.87,2.078-4.684c-0.302-1.976-2.252-2.582-3.854-3.251 c-0.529-0.221-1.251-0.445-1.685-0.832c-0.131-0.117-0.393-0.449-0.267-0.639c0.088-0.132,0.559-0.152,0.712-0.176 c1.26-0.195,2.578-0.084,3.789,0.309c0.614,0.199,0.876-0.766,0.266-0.964c-0.921-0.298-1.893-0.436-2.86-0.431 c-0.77,0.004-1.89-0.002-2.534,0.485c-0.608,0.459-0.459,1.241-0.08,1.802c0.479,0.709,1.439,1.01,2.194,1.328 c0.836,0.351,1.763,0.629,2.497,1.177c0.821,0.613,1.003,1.595,0.793,2.561c-0.413,1.895-2.142,3.198-3.97,3.566 c-1.231,0.248-2.513,0.093-3.708-0.257c-0.355-0.104-0.67-0.113-0.725-0.511c-0.043-0.308-0.009-0.654-0.013-0.964 c-0.009-0.683-0.018-1.366-0.027-2.049c-0.211,0.161-0.422,0.321-0.633,0.482c1.028,0.259,2.053,0.528,3.08,0.793 c0.796,0.205,1.741,0.592,2.576,0.398c0.663-0.155,1.109-0.761,0.98-1.447c-0.154-0.823-0.874-1.21-1.585-1.494 c-1.69-0.676-4.236-1.7-4.417-3.845c-0.15-1.782,1.58-3.35,3.178-3.744c1.173-0.289,2.396-0.185,3.575,0.009 c0.306,0.05,0.619,0.093,0.921,0.164c0.374,0.088,0.353,0.133,0.317,0.516c-0.06,0.648-0.128,1.295-0.192,1.943 C35.738,22.502,36.739,22.497,36.801,21.862z"/></svg>