<svg xmlns="http://www.w3.org/2000/svg" xmlns:xlink="http://www.w3.org/1999/xlink" width="50" zoomAndPan="magnify" viewBox="0 0 37.5 37.499999" height="50" preserveAspectRatio="xMidYMid meet" version="1.0"><defs><clipPath id="7024f602ea"><path d="M 1.867188 1.699219 L 35.175781 1.699219 L 35.175781 35.007812 L 1.867188 35.007812 Z M 1.867188 1.699219 " clip-rule="nonzero"/></clipPath></defs><g clip-path="url(#7024f602ea)"><path fill="#004aad" d="M 31.875 1.714844 L 5.15625 1.714844 C 4.5 1.71875 3.898438 1.902344 3.347656 2.265625 C 2.800781 2.628906 2.398438 3.117188 2.144531 3.722656 C 1.96875 4.128906 1.882812 4.554688 1.886719 4.996094 L 1.886719 32 C 1.886719 32.433594 1.96875 32.851562 2.136719 33.253906 C 2.300781 33.65625 2.539062 34.007812 2.84375 34.316406 C 3.152344 34.625 3.503906 34.863281 3.90625 35.027344 C 4.304688 35.195312 4.722656 35.28125 5.15625 35.28125 L 31.875 35.28125 C 32.308594 35.28125 32.726562 35.199219 33.128906 35.03125 C 33.53125 34.863281 33.886719 34.628906 34.195312 34.320312 C 34.5 34.011719 34.738281 33.65625 34.90625 33.257812 C 35.070312 32.855469 35.15625 32.4375 35.15625 32 L 35.15625 4.996094 C 35.15625 4.558594 35.074219 4.140625 34.90625 3.738281 C 34.742188 3.335938 34.503906 2.980469 34.195312 2.675781 C 33.886719 2.367188 33.53125 2.128906 33.128906 1.964844 C 32.726562 1.796875 32.308594 1.714844 31.875 1.714844 Z M 2.757812 3.988281 C 2.964844 3.507812 3.28125 3.121094 3.71875 2.832031 C 4.15625 2.542969 4.632812 2.398438 5.15625 2.398438 L 31.875 2.398438 C 32.21875 2.398438 32.550781 2.464844 32.867188 2.597656 C 33.1875 2.730469 33.46875 2.917969 33.710938 3.160156 C 33.953125 3.402344 34.140625 3.683594 34.273438 4.003906 C 34.40625 4.320312 34.472656 4.652344 34.472656 4.996094 L 34.472656 8.296875 L 2.570312 8.296875 L 2.570312 4.996094 C 2.566406 4.648438 2.628906 4.3125 2.757812 3.988281 Z M 31.875 34.597656 L 5.15625 34.597656 C 4.8125 34.597656 4.480469 34.53125 4.164062 34.398438 C 3.847656 34.265625 3.566406 34.078125 3.320312 33.835938 C 3.078125 33.59375 2.890625 33.3125 2.757812 32.992188 C 2.628906 32.675781 2.5625 32.34375 2.5625 32 L 2.5625 8.984375 L 34.449219 8.984375 L 34.449219 32 C 34.449219 32.34375 34.382812 32.671875 34.253906 32.988281 C 34.125 33.304688 33.9375 33.585938 33.695312 33.828125 C 33.453125 34.070312 33.175781 34.257812 32.859375 34.394531 C 32.546875 34.527344 32.21875 34.59375 31.875 34.597656 Z M 5.792969 6.703125 C 5.976562 6.703125 6.152344 6.667969 6.320312 6.597656 C 6.488281 6.527344 6.636719 6.425781 6.765625 6.296875 C 6.894531 6.167969 6.992188 6.019531 7.0625 5.851562 C 7.128906 5.683594 7.164062 5.507812 7.164062 5.324219 C 7.164062 5.144531 7.128906 4.96875 7.058594 4.800781 C 6.988281 4.632812 6.886719 4.484375 6.757812 4.355469 C 6.628906 4.230469 6.476562 4.128906 6.308594 4.0625 C 6.140625 3.992188 5.964844 3.960938 5.78125 3.960938 C 5.601562 3.964844 5.425781 4 5.257812 4.070312 C 5.089844 4.140625 4.941406 4.242188 4.816406 4.371094 C 4.6875 4.503906 4.589844 4.652344 4.523438 4.820312 C 4.453125 4.992188 4.421875 5.167969 4.425781 5.347656 C 4.425781 5.527344 4.460938 5.703125 4.535156 5.867188 C 4.605469 6.035156 4.703125 6.179688 4.832031 6.304688 C 4.960938 6.433594 5.105469 6.53125 5.273438 6.597656 C 5.441406 6.667969 5.613281 6.703125 5.792969 6.703125 Z M 5.792969 4.679688 C 5.984375 4.679688 6.148438 4.75 6.28125 4.882812 C 6.414062 5.019531 6.480469 5.179688 6.480469 5.371094 C 6.476562 5.5625 6.410156 5.722656 6.273438 5.855469 C 6.136719 5.988281 5.972656 6.054688 5.78125 6.050781 C 5.59375 6.046875 5.429688 5.976562 5.300781 5.839844 C 5.167969 5.703125 5.105469 5.539062 5.109375 5.347656 C 5.113281 5.164062 5.183594 5.003906 5.316406 4.875 C 5.449219 4.746094 5.609375 4.679688 5.792969 4.679688 Z M 9.199219 6.703125 C 9.382812 6.703125 9.554688 6.667969 9.722656 6.597656 C 9.894531 6.527344 10.042969 6.425781 10.167969 6.296875 C 10.296875 6.167969 10.398438 6.019531 10.464844 5.851562 C 10.535156 5.683594 10.570312 5.507812 10.570312 5.324219 C 10.566406 5.144531 10.53125 4.96875 10.460938 4.800781 C 10.390625 4.632812 10.292969 4.484375 10.160156 4.355469 C 10.03125 4.230469 9.882812 4.128906 9.714844 4.0625 C 9.546875 3.992188 9.371094 3.960938 9.1875 3.960938 C 9.003906 3.964844 8.832031 4 8.664062 4.070312 C 8.496094 4.140625 8.347656 4.242188 8.21875 4.371094 C 8.09375 4.503906 7.996094 4.652344 7.925781 4.820312 C 7.859375 4.992188 7.828125 5.167969 7.828125 5.347656 C 7.832031 5.527344 7.867188 5.703125 7.9375 5.867188 C 8.007812 6.035156 8.109375 6.179688 8.234375 6.304688 C 8.363281 6.433594 8.511719 6.53125 8.679688 6.597656 C 8.84375 6.667969 9.019531 6.703125 9.199219 6.703125 Z M 9.199219 4.679688 C 9.390625 4.679688 9.550781 4.75 9.683594 4.882812 C 9.820312 5.019531 9.886719 5.179688 9.882812 5.371094 C 9.882812 5.5625 9.8125 5.722656 9.675781 5.855469 C 9.539062 5.988281 9.378906 6.054688 9.1875 6.050781 C 8.996094 6.046875 8.835938 5.976562 8.703125 5.839844 C 8.574219 5.703125 8.507812 5.539062 8.515625 5.347656 C 8.519531 5.164062 8.585938 5.003906 8.71875 4.875 C 8.855469 4.746094 9.011719 4.679688 9.199219 4.679688 Z M 12.816406 6.703125 C 13 6.703125 13.171875 6.667969 13.339844 6.597656 C 13.511719 6.527344 13.660156 6.425781 13.785156 6.296875 C 13.914062 6.167969 14.015625 6.019531 14.082031 5.851562 C 14.152344 5.683594 14.1875 5.507812 14.1875 5.324219 C 14.183594 5.144531 14.148438 4.96875 14.078125 4.800781 C 14.007812 4.632812 13.910156 4.484375 13.777344 4.355469 C 13.648438 4.230469 13.5 4.128906 13.332031 4.0625 C 13.164062 3.992188 12.988281 3.960938 12.804688 3.960938 C 12.621094 3.964844 12.449219 4 12.28125 4.070312 C 12.113281 4.140625 11.964844 4.242188 11.835938 4.371094 C 11.710938 4.503906 11.613281 4.652344 11.542969 4.820312 C 11.476562 4.992188 11.445312 5.167969 11.445312 5.347656 C 11.449219 5.527344 11.484375 5.703125 11.554688 5.867188 C 11.625 6.035156 11.726562 6.179688 11.851562 6.304688 C 11.980469 6.433594 12.128906 6.53125 12.296875 6.597656 C 12.460938 6.667969 12.636719 6.703125 12.816406 6.703125 Z M 12.816406 4.679688 C 13.007812 4.679688 13.167969 4.75 13.300781 4.882812 C 13.4375 5.019531 13.503906 5.179688 13.5 5.371094 C 13.5 5.5625 13.429688 5.722656 13.292969 5.855469 C 13.15625 5.988281 12.996094 6.054688 12.804688 6.050781 C 12.613281 6.046875 12.453125 5.976562 12.320312 5.839844 C 12.191406 5.703125 12.125 5.539062 12.132812 5.347656 C 12.136719 5.164062 12.203125 5.003906 12.335938 4.875 C 12.472656 4.746094 12.628906 4.679688 12.816406 4.679688 Z M 18.828125 5.347656 C 18.828125 5.253906 18.859375 5.171875 18.929688 5.105469 C 18.996094 5.039062 19.074219 5.007812 19.171875 5.007812 L 31.949219 5.007812 C 32.042969 5.007812 32.125 5.039062 32.191406 5.105469 C 32.257812 5.171875 32.292969 5.253906 32.292969 5.347656 C 32.292969 5.441406 32.257812 5.523438 32.191406 5.589844 C 32.125 5.65625 32.042969 5.691406 31.949219 5.691406 L 19.171875 5.691406 C 19.074219 5.691406 18.996094 5.65625 18.929688 5.589844 C 18.859375 5.523438 18.828125 5.441406 18.828125 5.347656 Z M 14.65625 22.421875 L 5.84375 22.421875 C 5.746094 22.421875 5.667969 22.453125 5.601562 22.519531 C 5.53125 22.585938 5.5 22.667969 5.5 22.761719 L 5.5 31.574219 C 5.5 31.671875 5.53125 31.75 5.601562 31.816406 C 5.667969 31.886719 5.746094 31.917969 5.84375 31.917969 L 14.65625 31.917969 C 14.75 31.917969 14.832031 31.886719 14.898438 31.816406 C 14.964844 31.75 14.996094 31.671875 14.996094 31.574219 L 14.996094 22.761719 C 14.996094 22.667969 14.964844 22.585938 14.898438 22.519531 C 14.832031 22.453125 14.75 22.421875 14.65625 22.421875 Z M 14.3125 31.234375 L 6.183594 31.234375 L 6.183594 23.105469 L 14.3125 23.105469 Z M 30.949219 23.167969 C 30.949219 23.261719 30.917969 23.34375 30.847656 23.410156 C 30.78125 23.476562 30.703125 23.507812 30.605469 23.507812 L 17.53125 23.507812 C 17.433594 23.507812 17.355469 23.476562 17.285156 23.410156 C 17.21875 23.34375 17.1875 23.261719 17.1875 23.167969 C 17.1875 23.074219 17.21875 22.992188 17.285156 22.925781 C 17.355469 22.859375 17.433594 22.824219 17.53125 22.824219 L 30.605469 22.824219 C 30.703125 22.824219 30.78125 22.859375 30.847656 22.925781 C 30.917969 22.992188 30.949219 23.074219 30.949219 23.167969 Z M 30.949219 25.835938 C 30.949219 25.929688 30.917969 26.011719 30.847656 26.078125 C 30.78125 26.144531 30.703125 26.179688 30.605469 26.179688 L 23.707031 26.179688 C 23.609375 26.179688 23.53125 26.144531 23.464844 26.078125 C 23.394531 26.011719 23.363281 25.929688 23.363281 25.835938 C 23.363281 25.742188 23.394531 25.660156 23.464844 25.59375 C 23.53125 25.527344 23.609375 25.492188 23.707031 25.492188 L 30.605469 25.492188 C 30.703125 25.492188 30.78125 25.527344 30.847656 25.59375 C 30.917969 25.660156 30.949219 25.742188 30.949219 25.835938 Z M 17.1875 25.835938 C 17.1875 25.742188 17.21875 25.660156 17.285156 25.59375 C 17.355469 25.527344 17.433594 25.492188 17.53125 25.492188 L 20.660156 25.492188 C 20.753906 25.492188 20.835938 25.527344 20.902344 25.59375 C 20.96875 25.660156 21.003906 25.742188 21.003906 25.835938 C 21.003906 25.929688 20.96875 26.011719 20.902344 26.078125 C 20.835938 26.144531 20.753906 26.179688 20.660156 26.179688 L 17.53125 26.179688 C 17.433594 26.179688 17.355469 26.144531 17.285156 26.078125 C 17.21875 26.011719 17.1875 25.929688 17.1875 25.835938 Z M 30.949219 28.503906 C 30.949219 28.597656 30.917969 28.679688 30.847656 28.746094 C 30.78125 28.8125 30.703125 28.847656 30.605469 28.847656 L 17.53125 28.847656 C 17.433594 28.847656 17.355469 28.8125 17.285156 28.746094 C 17.21875 28.679688 17.1875 28.597656 17.1875 28.503906 C 17.1875 28.410156 17.21875 28.328125 17.285156 28.261719 C 17.355469 28.195312 17.433594 28.160156 17.53125 28.160156 L 30.605469 28.160156 C 30.703125 28.160156 30.78125 28.195312 30.847656 28.261719 C 30.917969 28.328125 30.949219 28.410156 30.949219 28.503906 Z M 30.949219 31.167969 C 30.949219 31.261719 30.917969 31.34375 30.847656 31.410156 C 30.78125 31.476562 30.703125 31.511719 30.605469 31.511719 L 27.015625 31.511719 C 26.917969 31.511719 26.839844 31.476562 26.773438 31.410156 C 26.703125 31.34375 26.671875 31.261719 26.671875 31.167969 C 26.671875 31.074219 26.703125 30.992188 26.773438 30.925781 C 26.839844 30.859375 26.917969 30.824219 27.015625 30.824219 L 30.605469 30.824219 C 30.703125 30.824219 30.785156 30.859375 30.851562 30.925781 C 30.917969 30.996094 30.949219 31.078125 30.949219 31.171875 Z M 24.878906 31.171875 C 24.878906 31.265625 24.847656 31.347656 24.78125 31.414062 C 24.710938 31.480469 24.632812 31.515625 24.539062 31.515625 L 17.53125 31.515625 C 17.433594 31.515625 17.355469 31.480469 17.285156 31.414062 C 17.21875 31.347656 17.1875 31.265625 17.1875 31.171875 C 17.1875 31.078125 17.21875 30.996094 17.285156 30.929688 C 17.355469 30.863281 17.433594 30.828125 17.53125 30.828125 L 24.539062 30.828125 C 24.632812 30.828125 24.710938 30.863281 24.78125 30.929688 C 24.847656 30.996094 24.878906 31.078125 24.878906 31.171875 Z M 30.605469 11.160156 L 5.289062 11.160156 C 5.191406 11.160156 5.113281 11.195312 5.046875 11.261719 C 4.976562 11.328125 4.945312 11.410156 4.945312 11.503906 L 4.945312 20.242188 C 4.945312 20.335938 4.976562 20.417969 5.046875 20.484375 C 5.113281 20.550781 5.191406 20.585938 5.289062 20.585938 L 30.605469 20.585938 C 30.703125 20.585938 30.78125 20.550781 30.847656 20.484375 C 30.917969 20.417969 30.949219 20.335938 30.949219 20.242188 L 30.949219 11.503906 C 30.949219 11.410156 30.917969 11.328125 30.847656 11.261719 C 30.78125 11.195312 30.703125 11.160156 30.605469 11.160156 Z M 30.265625 19.898438 L 5.628906 19.898438 L 5.628906 11.847656 L 30.265625 11.847656 Z M 8.363281 17.371094 C 8.320312 17.328125 8.300781 17.277344 8.300781 17.21875 L 8.300781 14.269531 C 8.300781 14.207031 8.320312 14.15625 8.363281 14.113281 C 8.402344 14.070312 8.453125 14.046875 8.515625 14.046875 C 8.574219 14.046875 8.628906 14.066406 8.671875 14.109375 C 8.714844 14.152344 8.734375 14.203125 8.734375 14.265625 L 8.734375 15.785156 L 10.367188 14.125 C 10.410156 14.074219 10.464844 14.046875 10.53125 14.046875 C 10.585938 14.046875 10.632812 14.0625 10.671875 14.101562 C 10.710938 14.136719 10.730469 14.183594 10.730469 14.238281 C 10.734375 14.292969 10.714844 14.34375 10.679688 14.382812 L 9.574219 15.488281 L 10.84375 17.082031 C 10.875 17.125 10.894531 17.167969 10.894531 17.21875 C 10.898438 17.28125 10.878906 17.332031 10.835938 17.371094 C 10.789062 17.417969 10.734375 17.4375 10.667969 17.433594 C 10.601562 17.425781 10.550781 17.398438 10.511719 17.347656 L 9.265625 15.773438 L 8.722656 16.324219 L 8.722656 17.21875 C 8.722656 17.277344 8.703125 17.328125 8.660156 17.371094 C 8.617188 17.414062 8.566406 17.433594 8.503906 17.433594 C 8.449219 17.429688 8.402344 17.410156 8.363281 17.371094 Z M 12.503906 17.472656 C 12.664062 17.476562 12.820312 17.457031 12.972656 17.414062 C 13.101562 17.378906 13.222656 17.328125 13.339844 17.257812 C 13.417969 17.226562 13.457031 17.167969 13.464844 17.082031 C 13.464844 17.03125 13.449219 16.984375 13.410156 16.949219 C 13.371094 16.914062 13.328125 16.898438 13.273438 16.894531 C 13.242188 16.894531 13.214844 16.902344 13.1875 16.914062 C 13.09375 16.964844 12.996094 17 12.894531 17.027344 C 12.78125 17.050781 12.667969 17.066406 12.550781 17.0625 C 12.332031 17.074219 12.136719 17.015625 11.964844 16.878906 C 11.816406 16.738281 11.730469 16.5625 11.714844 16.359375 L 13.335938 16.359375 C 13.398438 16.363281 13.449219 16.34375 13.496094 16.300781 C 13.539062 16.253906 13.558594 16.203125 13.554688 16.140625 C 13.558594 15.929688 13.511719 15.730469 13.421875 15.542969 C 13.335938 15.355469 13.207031 15.203125 13.035156 15.089844 C 12.847656 14.976562 12.644531 14.921875 12.421875 14.925781 C 12.191406 14.917969 11.980469 14.976562 11.789062 15.101562 C 11.617188 15.21875 11.488281 15.371094 11.40625 15.5625 C 11.320312 15.761719 11.28125 15.972656 11.28125 16.191406 C 11.253906 16.546875 11.359375 16.859375 11.59375 17.128906 C 11.847656 17.375 12.152344 17.488281 12.503906 17.472656 Z M 11.820312 15.609375 C 11.882812 15.507812 11.972656 15.429688 12.082031 15.382812 C 12.183594 15.328125 12.289062 15.304688 12.402344 15.304688 C 12.515625 15.304688 12.621094 15.332031 12.722656 15.382812 C 12.832031 15.433594 12.921875 15.507812 12.988281 15.609375 C 13.066406 15.730469 13.105469 15.863281 13.109375 16.003906 L 11.707031 16.003906 C 11.707031 15.859375 11.746094 15.722656 11.828125 15.597656 Z M 13.855469 15.269531 C 13.847656 15.238281 13.847656 15.207031 13.855469 15.179688 C 13.851562 15.117188 13.875 15.066406 13.914062 15.023438 C 13.957031 14.980469 14.007812 14.957031 14.066406 14.960938 C 14.113281 14.957031 14.152344 14.972656 14.191406 14.996094 C 14.226562 15.019531 14.253906 15.054688 14.269531 15.09375 L 15.003906 16.914062 L 15.753906 15.101562 C 15.785156 15.003906 15.851562 14.957031 15.953125 14.960938 C 16.015625 14.957031 16.066406 14.980469 16.109375 15.023438 C 16.148438 15.066406 16.171875 15.117188 16.167969 15.179688 C 16.175781 15.207031 16.175781 15.230469 16.167969 15.257812 L 14.863281 18.390625 C 14.832031 18.492188 14.765625 18.542969 14.664062 18.542969 C 14.605469 18.542969 14.558594 18.523438 14.519531 18.480469 C 14.476562 18.4375 14.457031 18.390625 14.460938 18.332031 C 14.457031 18.304688 14.457031 18.28125 14.460938 18.253906 L 14.769531 17.457031 Z M 16.425781 15.269531 C 16.414062 15.242188 16.410156 15.214844 16.410156 15.1875 C 16.40625 15.128906 16.429688 15.078125 16.472656 15.035156 C 16.515625 14.992188 16.566406 14.972656 16.625 14.972656 C 16.667969 14.972656 16.710938 14.984375 16.75 15.007812 C 16.785156 15.03125 16.808594 15.0625 16.820312 15.101562 L 17.382812 16.941406 L 17.933594 15.144531 C 17.949219 15.09375 17.980469 15.050781 18.023438 15.019531 C 18.066406 14.988281 18.117188 14.972656 18.167969 14.972656 C 18.222656 14.972656 18.269531 14.988281 18.3125 15.019531 C 18.355469 15.050781 18.386719 15.09375 18.402344 15.144531 L 18.957031 16.941406 L 19.523438 15.074219 C 19.535156 15.035156 19.5625 15.003906 19.597656 14.980469 C 19.632812 14.957031 19.675781 14.945312 19.71875 14.945312 C 19.777344 14.945312 19.828125 14.964844 19.871094 15.007812 C 19.914062 15.050781 19.933594 15.097656 19.933594 15.160156 C 19.9375 15.1875 19.9375 15.214844 19.933594 15.242188 L 19.25 17.226562 C 19.230469 17.285156 19.191406 17.335938 19.144531 17.371094 C 19.09375 17.410156 19.035156 17.429688 18.972656 17.429688 C 18.90625 17.429688 18.851562 17.410156 18.800781 17.371094 C 18.746094 17.335938 18.710938 17.285156 18.691406 17.222656 L 18.171875 15.644531 L 17.667969 17.226562 C 17.644531 17.289062 17.609375 17.335938 17.558594 17.375 C 17.441406 17.460938 17.328125 17.460938 17.214844 17.375 C 17.164062 17.339844 17.128906 17.289062 17.113281 17.230469 Z M 20.835938 17.324219 C 21.035156 17.433594 21.25 17.484375 21.480469 17.480469 C 21.707031 17.484375 21.917969 17.433594 22.121094 17.324219 C 22.308594 17.214844 22.453125 17.066406 22.550781 16.875 C 22.761719 16.433594 22.761719 15.992188 22.550781 15.550781 C 22.457031 15.347656 22.316406 15.1875 22.125 15.074219 C 21.925781 14.960938 21.714844 14.910156 21.484375 14.914062 C 21.257812 14.910156 21.042969 14.960938 20.839844 15.074219 C 20.652344 15.179688 20.511719 15.328125 20.414062 15.519531 C 20.203125 15.960938 20.203125 16.398438 20.414062 16.839844 C 20.507812 17.039062 20.652344 17.191406 20.839844 17.300781 Z M 20.808594 15.71875 C 20.875 15.59375 20.972656 15.5 21.097656 15.433594 C 21.351562 15.308594 21.601562 15.308594 21.855469 15.433594 C 21.984375 15.496094 22.082031 15.589844 22.148438 15.71875 C 22.238281 15.863281 22.28125 16.019531 22.285156 16.1875 C 22.289062 16.363281 22.253906 16.527344 22.167969 16.683594 C 22.097656 16.808594 22 16.902344 21.871094 16.96875 C 21.621094 17.097656 21.367188 17.097656 21.117188 16.96875 C 20.992188 16.902344 20.894531 16.808594 20.824219 16.683594 C 20.738281 16.527344 20.699219 16.363281 20.707031 16.1875 C 20.699219 16.011719 20.734375 15.847656 20.8125 15.691406 Z M 23.371094 17.394531 C 23.328125 17.351562 23.308594 17.300781 23.3125 17.242188 L 23.3125 15.1875 C 23.308594 15.125 23.332031 15.074219 23.371094 15.027344 C 23.414062 14.984375 23.464844 14.964844 23.523438 14.96875 C 23.585938 14.964844 23.636719 14.984375 23.679688 15.027344 C 23.722656 15.074219 23.746094 15.125 23.742188 15.1875 L 23.742188 15.390625 C 23.914062 15.113281 24.164062 14.960938 24.492188 14.941406 L 24.515625 14.941406 C 24.578125 14.941406 24.625 14.960938 24.667969 15.003906 C 24.710938 15.046875 24.730469 15.097656 24.730469 15.15625 C 24.730469 15.214844 24.710938 15.265625 24.667969 15.304688 C 24.621094 15.34375 24.570312 15.363281 24.511719 15.359375 L 24.484375 15.359375 C 24.335938 15.359375 24.195312 15.398438 24.066406 15.472656 C 23.933594 15.550781 23.828125 15.65625 23.742188 15.78125 L 23.742188 17.234375 C 23.746094 17.292969 23.722656 17.347656 23.679688 17.386719 C 23.636719 17.429688 23.585938 17.453125 23.523438 17.449219 C 23.464844 17.445312 23.417969 17.417969 23.378906 17.371094 Z M 25.515625 17.332031 C 25.6875 17.429688 25.875 17.480469 26.074219 17.480469 C 26.402344 17.480469 26.675781 17.359375 26.894531 17.117188 L 26.894531 17.242188 C 26.890625 17.300781 26.914062 17.351562 26.957031 17.394531 C 27 17.4375 27.050781 17.457031 27.113281 17.457031 C 27.171875 17.457031 27.222656 17.4375 27.265625 17.394531 C 27.308594 17.355469 27.332031 17.300781 27.328125 17.242188 L 27.328125 14.160156 C 27.332031 14.097656 27.308594 14.046875 27.265625 14.003906 C 27.222656 13.960938 27.171875 13.9375 27.113281 13.9375 C 27.050781 13.9375 27 13.957031 26.957031 14 C 26.914062 14.042969 26.890625 14.097656 26.894531 14.160156 L 26.894531 15.328125 C 26.71875 15.140625 26.503906 15.023438 26.246094 14.984375 C 25.988281 14.945312 25.75 14.988281 25.523438 15.117188 C 25.339844 15.222656 25.199219 15.371094 25.097656 15.554688 C 24.980469 15.769531 24.925781 15.996094 24.929688 16.242188 C 24.925781 16.484375 24.980469 16.710938 25.097656 16.925781 C 25.203125 17.089844 25.347656 17.214844 25.519531 17.304688 Z M 25.570312 15.578125 C 25.722656 15.417969 25.914062 15.34375 26.136719 15.355469 C 26.28125 15.355469 26.421875 15.386719 26.550781 15.453125 C 26.683594 15.519531 26.796875 15.605469 26.894531 15.714844 L 26.894531 16.71875 C 26.796875 16.824219 26.679688 16.910156 26.550781 16.976562 C 26.421875 17.042969 26.28125 17.074219 26.136719 17.074219 C 25.914062 17.082031 25.726562 17.007812 25.570312 16.851562 C 25.40625 16.660156 25.339844 16.4375 25.367188 16.191406 C 25.347656 15.949219 25.417969 15.738281 25.574219 15.554688 Z M 10.019531 29.910156 C 10.648438 29.910156 11.207031 29.71875 11.703125 29.332031 L 12.566406 30.195312 C 12.632812 30.261719 12.714844 30.296875 12.808594 30.296875 C 12.902344 30.292969 12.984375 30.261719 13.050781 30.195312 C 13.117188 30.128906 13.148438 30.046875 13.148438 29.953125 C 13.148438 29.855469 13.117188 29.777344 13.050781 29.710938 L 12.1875 28.847656 C 12.394531 28.585938 12.546875 28.292969 12.648438 27.972656 C 12.746094 27.652344 12.785156 27.328125 12.765625 26.992188 C 12.742188 26.660156 12.664062 26.339844 12.527344 26.035156 C 12.386719 25.730469 12.199219 25.457031 11.964844 25.222656 C 11.707031 24.964844 11.410156 24.765625 11.074219 24.625 C 10.734375 24.484375 10.386719 24.414062 10.019531 24.414062 C 9.65625 24.414062 9.304688 24.484375 8.96875 24.625 C 8.632812 24.765625 8.335938 24.964844 8.078125 25.222656 C 7.683594 25.613281 7.429688 26.082031 7.320312 26.628906 C 7.207031 27.175781 7.261719 27.707031 7.472656 28.21875 C 7.6875 28.734375 8.023438 29.144531 8.488281 29.453125 C 8.953125 29.761719 9.464844 29.914062 10.019531 29.910156 Z M 8.5625 25.691406 C 8.753906 25.5 8.976562 25.351562 9.230469 25.25 C 9.480469 25.144531 9.742188 25.09375 10.015625 25.09375 C 10.285156 25.097656 10.546875 25.148438 10.800781 25.253906 C 11.050781 25.359375 11.273438 25.507812 11.464844 25.699219 C 11.65625 25.890625 11.804688 26.113281 11.910156 26.367188 C 12.011719 26.617188 12.0625 26.878906 12.0625 27.152344 C 12.0625 27.421875 12.011719 27.683594 11.910156 27.9375 C 11.804688 28.1875 11.65625 28.410156 11.464844 28.601562 C 11.273438 28.792969 11.050781 28.941406 10.800781 29.046875 C 10.546875 29.152344 10.285156 29.203125 10.015625 29.207031 C 9.742188 29.207031 9.480469 29.15625 9.230469 29.050781 C 8.976562 28.949219 8.753906 28.800781 8.5625 28.609375 C 8.367188 28.417969 8.21875 28.195312 8.113281 27.941406 C 8.007812 27.6875 7.953125 27.425781 7.953125 27.152344 C 7.953125 26.875 8.007812 26.613281 8.113281 26.359375 C 8.21875 26.105469 8.367188 25.882812 8.5625 25.691406 Z M 10.019531 28.398438 C 10.273438 28.398438 10.503906 28.328125 10.710938 28.1875 C 10.921875 28.046875 11.074219 27.859375 11.171875 27.628906 C 11.265625 27.394531 11.289062 27.15625 11.242188 26.90625 C 11.191406 26.660156 11.078125 26.449219 10.902344 26.269531 C 10.78125 26.15625 10.648438 26.070312 10.496094 26.007812 C 10.34375 25.945312 10.183594 25.914062 10.019531 25.914062 C 9.855469 25.914062 9.695312 25.945312 9.542969 26.007812 C 9.390625 26.070312 9.257812 26.15625 9.136719 26.269531 C 8.960938 26.449219 8.847656 26.660156 8.796875 26.910156 C 8.75 27.15625 8.773438 27.394531 8.867188 27.628906 C 8.964844 27.863281 9.117188 28.046875 9.328125 28.1875 C 9.539062 28.328125 9.769531 28.398438 10.019531 28.398438 Z M 9.609375 26.765625 C 9.71875 26.65625 9.851562 26.601562 10.007812 26.601562 C 10.164062 26.601562 10.292969 26.65625 10.40625 26.765625 C 10.515625 26.875 10.570312 27.007812 10.570312 27.164062 C 10.570312 27.320312 10.515625 27.453125 10.40625 27.5625 C 10.292969 27.671875 10.164062 27.726562 10.007812 27.726562 C 9.851562 27.726562 9.71875 27.671875 9.609375 27.5625 C 9.5 27.453125 9.445312 27.320312 9.445312 27.164062 C 9.445312 27.007812 9.5 26.875 9.609375 26.765625 Z M 9.609375 26.765625 " fill-opacity="1" fill-rule="nonzero"/></g></svg>