<svg xmlns="http://www.w3.org/2000/svg" xmlns:xlink="http://www.w3.org/1999/xlink" width="100" zoomAndPan="magnify" viewBox="0 0 75 74.999997" height="100" preserveAspectRatio="xMidYMid meet" version="1.0"><defs><clipPath id="c4dff0d290"><path d="M 3.433594 3.089844 L 71.683594 3.089844 L 71.683594 72 L 3.433594 72 Z M 3.433594 3.089844 " clip-rule="nonzero"/></clipPath></defs><rect x="-7.5" width="90" fill="#ffffff" y="-7.5" height="89.999996" fill-opacity="1"/><rect x="-7.5" width="90" fill="#ffffff" y="-7.5" height="89.999996" fill-opacity="1"/><g clip-path="url(#c4dff0d290)"><path fill="#004aad" d="M 64.898438 3.113281 L 10.167969 3.113281 C 9.507812 3.117188 8.863281 3.214844 8.234375 3.40625 C 7.605469 3.597656 7.015625 3.878906 6.464844 4.242188 C 5.917969 4.609375 5.433594 5.046875 5.011719 5.554688 C 4.589844 6.058594 4.25 6.617188 3.996094 7.226562 C 3.640625 8.058594 3.464844 8.929688 3.46875 9.835938 L 3.46875 65.15625 C 3.46875 65.59375 3.511719 66.03125 3.597656 66.464844 C 3.683594 66.894531 3.8125 67.316406 3.980469 67.722656 C 4.148438 68.128906 4.355469 68.515625 4.597656 68.882812 C 4.84375 69.246094 5.121094 69.585938 5.429688 69.898438 C 5.742188 70.210938 6.082031 70.488281 6.445312 70.734375 C 6.8125 70.980469 7.199219 71.1875 7.605469 71.359375 C 8.011719 71.527344 8.429688 71.65625 8.859375 71.742188 C 9.292969 71.832031 9.730469 71.875 10.167969 71.878906 L 64.898438 71.878906 C 65.339844 71.875 65.777344 71.832031 66.210938 71.746094 C 66.644531 71.660156 67.0625 71.53125 67.472656 71.363281 C 67.878906 71.195312 68.265625 70.988281 68.632812 70.742188 C 69 70.496094 69.339844 70.21875 69.652344 69.90625 C 69.964844 69.59375 70.242188 69.253906 70.488281 68.886719 C 70.730469 68.519531 70.9375 68.132812 71.109375 67.726562 C 71.277344 67.320312 71.40625 66.898438 71.492188 66.464844 C 71.578125 66.035156 71.621094 65.597656 71.621094 65.15625 L 71.621094 9.835938 C 71.621094 9.394531 71.578125 8.957031 71.492188 8.523438 C 71.40625 8.089844 71.28125 7.667969 71.113281 7.261719 C 70.941406 6.851562 70.734375 6.464844 70.492188 6.097656 C 70.246094 5.730469 69.96875 5.390625 69.65625 5.078125 C 69.34375 4.765625 69.003906 4.488281 68.636719 4.242188 C 68.269531 4 67.882812 3.792969 67.472656 3.621094 C 67.066406 3.453125 66.644531 3.328125 66.210938 3.242188 C 65.777344 3.15625 65.339844 3.113281 64.898438 3.113281 Z M 5.257812 7.773438 C 5.460938 7.289062 5.730469 6.847656 6.066406 6.441406 C 6.398438 6.039062 6.785156 5.695312 7.222656 5.402344 C 7.660156 5.113281 8.128906 4.894531 8.628906 4.742188 C 9.132812 4.589844 9.644531 4.515625 10.167969 4.515625 L 64.898438 4.515625 C 65.25 4.515625 65.59375 4.550781 65.9375 4.617188 C 66.28125 4.6875 66.613281 4.789062 66.933594 4.921875 C 67.257812 5.054688 67.5625 5.21875 67.855469 5.414062 C 68.144531 5.605469 68.414062 5.828125 68.660156 6.074219 C 68.90625 6.320312 69.128906 6.589844 69.320312 6.878906 C 69.515625 7.171875 69.679688 7.476562 69.8125 7.800781 C 69.945312 8.121094 70.046875 8.453125 70.117188 8.796875 C 70.183594 9.140625 70.21875 9.484375 70.21875 9.835938 L 70.21875 16.597656 L 4.871094 16.597656 L 4.871094 9.835938 C 4.859375 9.121094 4.988281 8.433594 5.257812 7.773438 Z M 64.898438 70.472656 L 10.167969 70.472656 C 9.820312 70.472656 9.472656 70.4375 9.132812 70.371094 C 8.789062 70.300781 8.457031 70.199219 8.132812 70.066406 C 7.8125 69.933594 7.507812 69.769531 7.214844 69.574219 C 6.925781 69.382812 6.65625 69.160156 6.410156 68.914062 C 6.164062 68.667969 5.941406 68.398438 5.75 68.109375 C 5.554688 67.816406 5.390625 67.511719 5.257812 67.1875 C 5.125 66.867188 5.023438 66.535156 4.953125 66.191406 C 4.886719 65.851562 4.851562 65.503906 4.851562 65.15625 L 4.851562 18.003906 L 70.175781 18.003906 L 70.175781 65.15625 C 70.175781 65.503906 70.140625 65.847656 70.074219 66.1875 C 70.007812 66.527344 69.90625 66.859375 69.773438 67.179688 C 69.640625 67.5 69.480469 67.804688 69.285156 68.09375 C 69.09375 68.382812 68.875 68.652344 68.632812 68.898438 C 68.386719 69.144531 68.121094 69.367188 67.832031 69.5625 C 67.546875 69.753906 67.242188 69.921875 66.921875 70.054688 C 66.601562 70.191406 66.269531 70.292969 65.929688 70.363281 C 65.589844 70.433594 65.246094 70.46875 64.898438 70.472656 Z M 11.472656 13.328125 C 11.847656 13.328125 12.207031 13.257812 12.550781 13.113281 C 12.894531 12.972656 13.199219 12.765625 13.460938 12.503906 C 13.726562 12.238281 13.929688 11.933594 14.070312 11.589844 C 14.210938 11.242188 14.28125 10.882812 14.28125 10.511719 C 14.277344 10.136719 14.207031 9.777344 14.0625 9.433594 C 13.917969 9.089844 13.710938 8.789062 13.445312 8.527344 C 13.179688 8.261719 12.875 8.0625 12.527344 7.921875 C 12.183594 7.78125 11.824219 7.710938 11.449219 7.714844 C 11.078125 7.71875 10.71875 7.792969 10.375 7.941406 C 10.03125 8.085938 9.730469 8.292969 9.46875 8.558594 C 9.207031 8.824219 9.007812 9.132812 8.867188 9.476562 C 8.730469 9.824219 8.664062 10.183594 8.667969 10.558594 C 8.671875 10.925781 8.746094 11.28125 8.890625 11.621094 C 9.035156 11.960938 9.238281 12.261719 9.5 12.519531 C 9.765625 12.777344 10.066406 12.980469 10.40625 13.117188 C 10.75 13.257812 11.105469 13.328125 11.472656 13.328125 Z M 11.472656 9.1875 C 11.660156 9.1875 11.839844 9.226562 12.015625 9.296875 C 12.1875 9.371094 12.339844 9.472656 12.46875 9.605469 C 12.601562 9.738281 12.703125 9.890625 12.773438 10.0625 C 12.84375 10.238281 12.878906 10.417969 12.875 10.605469 C 12.875 10.792969 12.835938 10.972656 12.765625 11.144531 C 12.691406 11.316406 12.585938 11.46875 12.453125 11.597656 C 12.320312 11.726562 12.164062 11.828125 11.992188 11.898438 C 11.816406 11.964844 11.636719 12 11.449219 11.996094 C 11.261719 11.992188 11.082031 11.953125 10.914062 11.878906 C 10.742188 11.804688 10.589844 11.699219 10.460938 11.5625 C 10.332031 11.429688 10.234375 11.273438 10.164062 11.101562 C 10.097656 10.925781 10.066406 10.746094 10.070312 10.558594 C 10.074219 10.375 10.113281 10.199219 10.1875 10.03125 C 10.261719 9.863281 10.363281 9.714844 10.492188 9.589844 C 10.625 9.460938 10.777344 9.363281 10.945312 9.292969 C 11.113281 9.222656 11.289062 9.1875 11.472656 9.1875 Z M 18.449219 13.328125 C 18.820312 13.328125 19.179688 13.257812 19.527344 13.113281 C 19.871094 12.972656 20.175781 12.765625 20.4375 12.503906 C 20.699219 12.238281 20.902344 11.933594 21.046875 11.589844 C 21.1875 11.242188 21.257812 10.882812 21.253906 10.511719 C 21.253906 10.136719 21.179688 9.777344 21.035156 9.433594 C 20.890625 9.089844 20.6875 8.789062 20.421875 8.527344 C 20.15625 8.261719 19.847656 8.0625 19.503906 7.921875 C 19.15625 7.78125 18.796875 7.710938 18.425781 7.714844 C 18.050781 7.71875 17.695312 7.792969 17.351562 7.941406 C 17.007812 8.085938 16.703125 8.292969 16.441406 8.558594 C 16.183594 8.824219 15.980469 9.132812 15.84375 9.476562 C 15.703125 9.824219 15.636719 10.183594 15.640625 10.558594 C 15.648438 10.925781 15.722656 11.28125 15.867188 11.621094 C 16.011719 11.960938 16.214844 12.261719 16.476562 12.519531 C 16.738281 12.777344 17.042969 12.980469 17.382812 13.117188 C 17.722656 13.257812 18.078125 13.328125 18.449219 13.328125 Z M 18.449219 9.1875 C 18.636719 9.1875 18.816406 9.226562 18.988281 9.296875 C 19.160156 9.371094 19.3125 9.472656 19.445312 9.605469 C 19.578125 9.738281 19.679688 9.890625 19.75 10.0625 C 19.820312 10.238281 19.851562 10.417969 19.851562 10.605469 C 19.851562 10.792969 19.8125 10.972656 19.738281 11.144531 C 19.664062 11.316406 19.5625 11.46875 19.429688 11.597656 C 19.292969 11.726562 19.140625 11.828125 18.964844 11.898438 C 18.792969 11.964844 18.613281 12 18.425781 11.996094 C 18.238281 11.992188 18.058594 11.953125 17.886719 11.878906 C 17.714844 11.804688 17.566406 11.699219 17.433594 11.5625 C 17.304688 11.429688 17.207031 11.273438 17.140625 11.101562 C 17.070312 10.925781 17.039062 10.746094 17.046875 10.558594 C 17.050781 10.375 17.089844 10.199219 17.164062 10.03125 C 17.234375 9.863281 17.335938 9.714844 17.46875 9.589844 C 17.601562 9.460938 17.75 9.363281 17.917969 9.292969 C 18.089844 9.222656 18.265625 9.1875 18.449219 9.1875 Z M 25.859375 13.328125 C 26.230469 13.328125 26.589844 13.257812 26.933594 13.113281 C 27.28125 12.972656 27.582031 12.765625 27.847656 12.503906 C 28.109375 12.238281 28.3125 11.933594 28.453125 11.589844 C 28.597656 11.242188 28.667969 10.882812 28.664062 10.511719 C 28.664062 10.136719 28.589844 9.777344 28.445312 9.433594 C 28.300781 9.089844 28.097656 8.789062 27.832031 8.527344 C 27.566406 8.261719 27.257812 8.0625 26.914062 7.921875 C 26.566406 7.78125 26.207031 7.710938 25.835938 7.714844 C 25.460938 7.71875 25.101562 7.792969 24.761719 7.941406 C 24.417969 8.085938 24.113281 8.292969 23.851562 8.558594 C 23.59375 8.824219 23.390625 9.132812 23.253906 9.476562 C 23.113281 9.824219 23.046875 10.183594 23.050781 10.558594 C 23.054688 10.925781 23.132812 11.28125 23.273438 11.621094 C 23.417969 11.960938 23.625 12.261719 23.886719 12.519531 C 24.148438 12.777344 24.449219 12.980469 24.792969 13.117188 C 25.132812 13.257812 25.488281 13.328125 25.859375 13.328125 Z M 25.859375 9.1875 C 26.046875 9.1875 26.226562 9.226562 26.398438 9.296875 C 26.570312 9.371094 26.722656 9.472656 26.855469 9.605469 C 26.988281 9.738281 27.085938 9.890625 27.15625 10.0625 C 27.226562 10.238281 27.261719 10.417969 27.261719 10.605469 C 27.257812 10.792969 27.222656 10.972656 27.148438 11.144531 C 27.074219 11.316406 26.972656 11.46875 26.835938 11.597656 C 26.703125 11.726562 26.550781 11.828125 26.375 11.898438 C 26.203125 11.964844 26.023438 12 25.835938 11.996094 C 25.648438 11.992188 25.46875 11.953125 25.296875 11.878906 C 25.125 11.804688 24.976562 11.699219 24.84375 11.5625 C 24.714844 11.429688 24.617188 11.273438 24.550781 11.101562 C 24.480469 10.925781 24.449219 10.746094 24.457031 10.558594 C 24.460938 10.375 24.5 10.199219 24.570312 10.03125 C 24.644531 9.863281 24.746094 9.714844 24.878906 9.589844 C 25.007812 9.460938 25.160156 9.363281 25.328125 9.292969 C 25.5 9.222656 25.675781 9.1875 25.859375 9.1875 Z M 38.171875 10.558594 C 38.171875 10.363281 38.242188 10.199219 38.378906 10.0625 C 38.515625 9.925781 38.679688 9.855469 38.875 9.855469 L 65.054688 9.855469 C 65.246094 9.855469 65.414062 9.925781 65.550781 10.0625 C 65.6875 10.199219 65.753906 10.363281 65.753906 10.558594 C 65.753906 10.75 65.6875 10.917969 65.550781 11.054688 C 65.414062 11.191406 65.246094 11.257812 65.054688 11.257812 L 38.875 11.257812 C 38.679688 11.257812 38.515625 11.191406 38.378906 11.054688 C 38.242188 10.917969 38.171875 10.75 38.171875 10.558594 Z M 29.625 45.527344 L 11.574219 45.527344 C 11.378906 45.527344 11.214844 45.597656 11.074219 45.734375 C 10.9375 45.871094 10.871094 46.039062 10.871094 46.230469 L 10.871094 64.285156 C 10.871094 64.480469 10.9375 64.644531 11.074219 64.78125 C 11.214844 64.917969 11.378906 64.988281 11.574219 64.988281 L 29.625 64.988281 C 29.820312 64.988281 29.984375 64.917969 30.121094 64.78125 C 30.257812 64.644531 30.328125 64.480469 30.328125 64.285156 L 30.328125 46.230469 C 30.328125 46.039062 30.257812 45.871094 30.121094 45.734375 C 29.984375 45.597656 29.820312 45.527344 29.625 45.527344 Z M 28.925781 63.582031 L 12.273438 63.582031 L 12.273438 46.933594 L 28.925781 46.933594 Z M 63.003906 47.058594 C 63.003906 47.253906 62.9375 47.417969 62.800781 47.554688 C 62.664062 47.691406 62.496094 47.761719 62.304688 47.761719 L 35.511719 47.761719 C 35.320312 47.761719 35.15625 47.691406 35.015625 47.554688 C 34.878906 47.417969 34.8125 47.253906 34.8125 47.058594 C 34.8125 46.863281 34.878906 46.699219 35.015625 46.5625 C 35.15625 46.425781 35.320312 46.355469 35.511719 46.355469 L 62.304688 46.355469 C 62.496094 46.355469 62.664062 46.425781 62.800781 46.5625 C 62.9375 46.699219 63.003906 46.863281 63.003906 47.058594 Z M 63.003906 52.523438 C 63.003906 52.71875 62.9375 52.882812 62.800781 53.019531 C 62.664062 53.15625 62.496094 53.226562 62.304688 53.226562 L 48.164062 53.226562 C 47.972656 53.226562 47.804688 53.15625 47.667969 53.019531 C 47.53125 52.882812 47.464844 52.71875 47.464844 52.523438 C 47.464844 52.332031 47.53125 52.164062 47.667969 52.027344 C 47.804688 51.890625 47.972656 51.824219 48.164062 51.824219 L 62.304688 51.824219 C 62.496094 51.824219 62.664062 51.890625 62.800781 52.027344 C 62.9375 52.164062 63.003906 52.332031 63.003906 52.523438 Z M 34.8125 52.523438 C 34.8125 52.332031 34.878906 52.164062 35.015625 52.027344 C 35.15625 51.890625 35.320312 51.824219 35.511719 51.824219 L 41.925781 51.824219 C 42.121094 51.824219 42.285156 51.890625 42.421875 52.027344 C 42.558594 52.164062 42.628906 52.332031 42.628906 52.523438 C 42.628906 52.71875 42.558594 52.882812 42.421875 53.019531 C 42.285156 53.15625 42.121094 53.226562 41.925781 53.226562 L 35.511719 53.226562 C 35.320312 53.226562 35.15625 53.15625 35.015625 53.019531 C 34.878906 52.882812 34.8125 52.71875 34.8125 52.523438 Z M 63.003906 57.992188 C 63.003906 58.183594 62.9375 58.351562 62.800781 58.488281 C 62.664062 58.625 62.496094 58.691406 62.304688 58.691406 L 35.511719 58.691406 C 35.320312 58.691406 35.15625 58.625 35.015625 58.488281 C 34.878906 58.351562 34.8125 58.183594 34.8125 57.992188 C 34.8125 57.796875 34.878906 57.632812 35.015625 57.496094 C 35.15625 57.359375 35.320312 57.289062 35.511719 57.289062 L 62.304688 57.289062 C 62.496094 57.289062 62.664062 57.359375 62.800781 57.496094 C 62.9375 57.632812 63.003906 57.796875 63.003906 57.992188 Z M 63.003906 63.449219 C 63.003906 63.644531 62.9375 63.808594 62.800781 63.945312 C 62.664062 64.082031 62.496094 64.152344 62.304688 64.152344 L 54.941406 64.152344 C 54.75 64.152344 54.582031 64.082031 54.445312 63.945312 C 54.308594 63.808594 54.242188 63.644531 54.242188 63.449219 C 54.242188 63.257812 54.308594 63.089844 54.445312 62.953125 C 54.582031 62.816406 54.75 62.75 54.941406 62.75 L 62.304688 62.75 C 62.5 62.75 62.664062 62.816406 62.800781 62.957031 C 62.941406 63.09375 63.007812 63.261719 63.003906 63.457031 Z M 50.570312 63.457031 C 50.570312 63.652344 50.503906 63.816406 50.367188 63.953125 C 50.230469 64.089844 50.0625 64.160156 49.871094 64.160156 L 35.511719 64.160156 C 35.320312 64.160156 35.15625 64.089844 35.015625 63.953125 C 34.878906 63.816406 34.8125 63.652344 34.8125 63.457031 C 34.8125 63.261719 34.878906 63.097656 35.015625 62.960938 C 35.15625 62.824219 35.320312 62.753906 35.511719 62.753906 L 49.871094 62.753906 C 50.0625 62.753906 50.230469 62.824219 50.367188 62.960938 C 50.503906 63.097656 50.570312 63.261719 50.570312 63.457031 Z M 62.304688 22.464844 L 10.4375 22.464844 C 10.242188 22.464844 10.078125 22.535156 9.9375 22.671875 C 9.800781 22.808594 9.734375 22.972656 9.734375 23.167969 L 9.734375 41.066406 C 9.734375 41.261719 9.800781 41.425781 9.9375 41.5625 C 10.078125 41.699219 10.242188 41.769531 10.4375 41.769531 L 62.304688 41.769531 C 62.496094 41.769531 62.664062 41.699219 62.800781 41.5625 C 62.9375 41.425781 63.003906 41.261719 63.003906 41.066406 L 63.003906 23.167969 C 63.003906 22.972656 62.9375 22.808594 62.800781 22.671875 C 62.664062 22.535156 62.496094 22.464844 62.304688 22.464844 Z M 61.601562 40.363281 L 11.136719 40.363281 L 11.136719 23.867188 L 61.601562 23.867188 Z M 16.738281 35.1875 C 16.648438 35.097656 16.605469 34.996094 16.609375 34.871094 L 16.609375 28.828125 C 16.609375 28.707031 16.652344 28.601562 16.738281 28.511719 C 16.820312 28.421875 16.921875 28.375 17.046875 28.375 C 17.171875 28.375 17.277344 28.417969 17.367188 28.507812 C 17.453125 28.59375 17.496094 28.699219 17.496094 28.824219 L 17.496094 31.9375 L 20.839844 28.535156 C 20.929688 28.429688 21.039062 28.375 21.179688 28.375 C 21.289062 28.375 21.382812 28.410156 21.464844 28.484375 C 21.550781 28.558594 21.589844 28.652344 21.585938 28.765625 C 21.59375 28.882812 21.558594 28.980469 21.480469 29.066406 L 19.21875 31.328125 L 21.816406 34.597656 C 21.882812 34.679688 21.917969 34.773438 21.921875 34.878906 C 21.929688 35 21.890625 35.101562 21.804688 35.1875 C 21.707031 35.277344 21.589844 35.320312 21.457031 35.3125 C 21.324219 35.300781 21.21875 35.242188 21.136719 35.136719 L 18.589844 31.917969 L 17.472656 33.039062 L 17.472656 34.871094 C 17.476562 34.996094 17.433594 35.097656 17.347656 35.1875 C 17.257812 35.273438 17.148438 35.316406 17.023438 35.3125 C 16.910156 35.308594 16.816406 35.265625 16.738281 35.1875 Z M 25.21875 35.390625 C 25.546875 35.398438 25.867188 35.363281 26.179688 35.277344 C 26.445312 35.203125 26.695312 35.09375 26.933594 34.953125 C 27.089844 34.886719 27.175781 34.769531 27.183594 34.597656 C 27.191406 34.488281 27.152344 34.398438 27.074219 34.324219 C 26.996094 34.253906 26.902344 34.214844 26.796875 34.210938 C 26.734375 34.210938 26.671875 34.222656 26.617188 34.253906 C 26.425781 34.351562 26.226562 34.425781 26.019531 34.476562 C 25.789062 34.53125 25.554688 34.558594 25.316406 34.554688 C 24.871094 34.582031 24.46875 34.457031 24.117188 34.175781 C 23.808594 33.886719 23.636719 33.53125 23.605469 33.109375 L 26.925781 33.109375 C 27.050781 33.117188 27.160156 33.078125 27.25 32.988281 C 27.339844 32.902344 27.378906 32.792969 27.375 32.667969 C 27.378906 32.238281 27.289062 31.828125 27.101562 31.441406 C 26.925781 31.054688 26.660156 30.746094 26.308594 30.511719 C 25.921875 30.277344 25.503906 30.164062 25.050781 30.175781 C 24.582031 30.160156 24.148438 30.28125 23.753906 30.535156 C 23.398438 30.773438 23.136719 31.089844 22.96875 31.480469 C 22.792969 31.890625 22.710938 32.320312 22.714844 32.765625 C 22.660156 33.496094 22.875 34.136719 23.351562 34.6875 C 23.875 35.191406 24.496094 35.425781 25.21875 35.390625 Z M 23.816406 31.578125 C 23.949219 31.367188 24.128906 31.210938 24.355469 31.109375 C 24.5625 31.003906 24.777344 30.953125 25.007812 30.957031 C 25.242188 30.957031 25.460938 31.007812 25.667969 31.109375 C 25.894531 31.214844 26.074219 31.371094 26.210938 31.578125 C 26.367188 31.824219 26.453125 32.09375 26.460938 32.386719 L 23.585938 32.386719 C 23.585938 32.085938 23.667969 31.808594 23.832031 31.550781 Z M 27.984375 30.878906 C 27.972656 30.816406 27.972656 30.757812 27.984375 30.695312 C 27.984375 30.570312 28.023438 30.464844 28.109375 30.371094 C 28.195312 30.285156 28.296875 30.246094 28.417969 30.246094 C 28.511719 30.242188 28.597656 30.269531 28.671875 30.324219 C 28.746094 30.371094 28.800781 30.4375 28.832031 30.519531 L 30.34375 34.253906 L 31.878906 30.535156 C 31.941406 30.335938 32.078125 30.242188 32.285156 30.246094 C 32.410156 30.242188 32.515625 30.285156 32.601562 30.371094 C 32.6875 30.464844 32.730469 30.570312 32.726562 30.695312 C 32.738281 30.75 32.738281 30.804688 32.726562 30.855469 L 30.054688 37.277344 C 29.992188 37.480469 29.851562 37.582031 29.640625 37.585938 C 29.523438 37.585938 29.425781 37.542969 29.347656 37.460938 C 29.261719 37.375 29.222656 37.269531 29.226562 37.152344 C 29.214844 37.101562 29.214844 37.046875 29.226562 36.996094 L 29.859375 35.363281 Z M 33.253906 30.878906 C 33.230469 30.824219 33.21875 30.769531 33.21875 30.710938 C 33.214844 30.589844 33.257812 30.484375 33.34375 30.402344 C 33.433594 30.316406 33.539062 30.273438 33.660156 30.273438 C 33.753906 30.273438 33.835938 30.296875 33.914062 30.34375 C 33.984375 30.390625 34.035156 30.453125 34.0625 30.535156 L 35.210938 34.300781 L 36.339844 30.625 C 36.378906 30.519531 36.4375 30.433594 36.523438 30.367188 C 36.613281 30.304688 36.714844 30.273438 36.824219 30.273438 C 36.933594 30.273438 37.03125 30.304688 37.121094 30.367188 C 37.207031 30.433594 37.269531 30.519531 37.304688 30.625 L 38.441406 34.300781 L 39.597656 30.476562 C 39.625 30.398438 39.679688 30.332031 39.75 30.289062 C 39.824219 30.238281 39.90625 30.214844 39.996094 30.21875 C 40.121094 30.214844 40.226562 30.257812 40.3125 30.34375 C 40.398438 30.429688 40.441406 30.53125 40.4375 30.652344 C 40.449219 30.710938 40.449219 30.765625 40.4375 30.820312 L 39.035156 34.890625 C 38.996094 35.011719 38.921875 35.113281 38.820312 35.1875 C 38.714844 35.265625 38.597656 35.304688 38.46875 35.304688 C 38.335938 35.308594 38.21875 35.265625 38.117188 35.1875 C 38.007812 35.109375 37.933594 35.011719 37.890625 34.882812 L 36.832031 31.648438 L 35.792969 34.890625 C 35.75 35.015625 35.675781 35.117188 35.570312 35.195312 C 35.335938 35.367188 35.101562 35.367188 34.867188 35.195312 C 34.765625 35.121094 34.695312 35.019531 34.65625 34.898438 Z M 42.285156 35.089844 C 42.695312 35.3125 43.136719 35.417969 43.605469 35.410156 C 44.070312 35.417969 44.507812 35.3125 44.914062 35.089844 C 45.300781 34.871094 45.597656 34.5625 45.800781 34.167969 C 46.007812 33.742188 46.109375 33.289062 46.109375 32.816406 C 46.109375 32.339844 46.007812 31.886719 45.800781 31.460938 C 45.613281 31.042969 45.320312 30.714844 44.929688 30.476562 C 44.523438 30.253906 44.085938 30.144531 43.617188 30.15625 C 43.148438 30.144531 42.710938 30.253906 42.296875 30.476562 C 41.914062 30.691406 41.621094 30.996094 41.421875 31.390625 C 41.214844 31.816406 41.113281 32.269531 41.113281 32.746094 C 41.113281 33.21875 41.214844 33.671875 41.421875 34.097656 C 41.617188 34.503906 41.910156 34.816406 42.296875 35.039062 Z M 42.230469 31.796875 C 42.367188 31.542969 42.566406 31.347656 42.824219 31.214844 C 43.34375 30.957031 43.859375 30.957031 44.375 31.214844 C 44.636719 31.347656 44.839844 31.539062 44.980469 31.796875 C 45.15625 32.09375 45.246094 32.414062 45.253906 32.757812 C 45.265625 33.121094 45.1875 33.460938 45.015625 33.777344 C 44.871094 34.03125 44.671875 34.230469 44.410156 34.367188 C 43.894531 34.621094 43.378906 34.621094 42.859375 34.367188 C 42.605469 34.226562 42.40625 34.03125 42.261719 33.777344 C 42.089844 33.460938 42.011719 33.121094 42.023438 32.757812 C 42.003906 32.402344 42.074219 32.066406 42.242188 31.75 Z M 47.484375 35.234375 C 47.394531 35.148438 47.355469 35.042969 47.359375 34.917969 L 47.359375 30.710938 C 47.355469 30.585938 47.398438 30.476562 47.484375 30.386719 C 47.570312 30.300781 47.671875 30.257812 47.792969 30.261719 C 47.917969 30.257812 48.027344 30.300781 48.113281 30.386719 C 48.203125 30.476562 48.246094 30.585938 48.242188 30.710938 L 48.242188 31.128906 C 48.59375 30.558594 49.105469 30.25 49.777344 30.210938 L 49.828125 30.210938 C 49.949219 30.207031 50.054688 30.25 50.136719 30.339844 C 50.222656 30.421875 50.265625 30.527344 50.261719 30.648438 C 50.265625 30.769531 50.222656 30.871094 50.136719 30.957031 C 50.042969 31.035156 49.9375 31.074219 49.8125 31.066406 L 49.765625 31.066406 C 49.457031 31.0625 49.167969 31.140625 48.902344 31.300781 C 48.636719 31.460938 48.414062 31.671875 48.242188 31.929688 L 48.242188 34.90625 C 48.246094 35.027344 48.203125 35.132812 48.117188 35.222656 C 48.023438 35.308594 47.917969 35.351562 47.792969 35.347656 C 47.671875 35.335938 47.574219 35.28125 47.5 35.1875 Z M 51.871094 35.101562 C 52.226562 35.308594 52.609375 35.410156 53.019531 35.410156 C 53.6875 35.410156 54.246094 35.160156 54.699219 34.667969 L 54.699219 34.917969 C 54.695312 35.042969 54.734375 35.148438 54.824219 35.234375 C 54.914062 35.320312 55.023438 35.363281 55.144531 35.363281 C 55.265625 35.363281 55.371094 35.320312 55.457031 35.234375 C 55.546875 35.152344 55.59375 35.046875 55.589844 34.917969 L 55.589844 28.605469 C 55.59375 28.480469 55.546875 28.375 55.457031 28.289062 C 55.371094 28.199219 55.269531 28.152344 55.144531 28.15625 C 55.023438 28.152344 54.914062 28.195312 54.824219 28.28125 C 54.734375 28.371094 54.691406 28.480469 54.699219 28.605469 L 54.699219 31.003906 C 54.523438 30.8125 54.320312 30.660156 54.09375 30.535156 C 53.867188 30.414062 53.625 30.335938 53.371094 30.292969 C 53.117188 30.253906 52.859375 30.257812 52.605469 30.304688 C 52.351562 30.351562 52.113281 30.441406 51.890625 30.570312 C 51.515625 30.789062 51.222656 31.085938 51.011719 31.46875 C 50.773438 31.90625 50.660156 32.371094 50.675781 32.871094 C 50.664062 33.367188 50.777344 33.835938 51.011719 34.273438 C 51.238281 34.609375 51.527344 34.867188 51.882812 35.054688 Z M 51.980469 31.515625 C 52.300781 31.1875 52.6875 31.035156 53.148438 31.054688 C 53.445312 31.054688 53.730469 31.121094 53.996094 31.257812 C 54.261719 31.390625 54.496094 31.566406 54.699219 31.789062 L 54.699219 33.847656 C 54.496094 34.066406 54.261719 34.242188 53.996094 34.378906 C 53.726562 34.511719 53.445312 34.578125 53.148438 34.574219 C 52.691406 34.59375 52.304688 34.441406 51.980469 34.121094 C 51.652344 33.726562 51.515625 33.277344 51.566406 32.765625 C 51.53125 32.273438 51.671875 31.839844 51.996094 31.46875 Z M 20.132812 60.875 C 21.417969 60.875 22.566406 60.476562 23.578125 59.6875 L 25.347656 61.457031 C 25.484375 61.59375 25.648438 61.660156 25.84375 61.660156 C 26.035156 61.660156 26.199219 61.59375 26.335938 61.457031 C 26.472656 61.320312 26.542969 61.152344 26.542969 60.960938 C 26.542969 60.765625 26.472656 60.597656 26.335938 60.460938 L 24.574219 58.699219 C 24.996094 58.160156 25.308594 57.5625 25.511719 56.90625 C 25.714844 56.25 25.792969 55.582031 25.753906 54.894531 C 25.710938 54.210938 25.546875 53.558594 25.265625 52.933594 C 24.980469 52.308594 24.597656 51.753906 24.109375 51.269531 C 23.851562 51.007812 23.566406 50.773438 23.257812 50.566406 C 22.953125 50.359375 22.628906 50.1875 22.285156 50.046875 C 21.945312 49.902344 21.59375 49.796875 21.230469 49.722656 C 20.867188 49.652344 20.503906 49.617188 20.132812 49.617188 C 19.761719 49.617188 19.398438 49.652344 19.035156 49.722656 C 18.671875 49.796875 18.320312 49.902344 17.980469 50.046875 C 17.636719 50.1875 17.3125 50.359375 17.007812 50.566406 C 16.699219 50.773438 16.414062 51.007812 16.152344 51.269531 C 15.757812 51.660156 15.425781 52.101562 15.160156 52.59375 C 14.894531 53.085938 14.707031 53.601562 14.597656 54.148438 C 14.488281 54.695312 14.460938 55.25 14.511719 55.804688 C 14.566406 56.359375 14.699219 56.894531 14.914062 57.410156 C 15.128906 57.925781 15.410156 58.398438 15.765625 58.828125 C 16.121094 59.257812 16.53125 59.628906 16.996094 59.9375 C 17.460938 60.246094 17.960938 60.480469 18.492188 60.640625 C 19.027344 60.800781 19.574219 60.878906 20.132812 60.875 Z M 17.144531 52.230469 C 17.339844 52.035156 17.550781 51.863281 17.78125 51.710938 C 18.011719 51.558594 18.253906 51.429688 18.511719 51.324219 C 18.765625 51.21875 19.027344 51.140625 19.300781 51.085938 C 19.570312 51.035156 19.84375 51.007812 20.121094 51.007812 C 20.394531 51.011719 20.667969 51.039062 20.941406 51.09375 C 21.210938 51.148438 21.472656 51.226562 21.726562 51.332031 C 21.980469 51.4375 22.222656 51.570312 22.453125 51.722656 C 22.683594 51.875 22.894531 52.050781 23.089844 52.246094 C 23.285156 52.441406 23.457031 52.65625 23.609375 52.882812 C 23.765625 53.113281 23.894531 53.355469 24 53.609375 C 24.105469 53.867188 24.183594 54.128906 24.238281 54.398438 C 24.292969 54.671875 24.320312 54.945312 24.320312 55.21875 C 24.320312 55.496094 24.292969 55.769531 24.238281 56.039062 C 24.183594 56.308594 24.105469 56.574219 24 56.828125 C 23.894531 57.082031 23.765625 57.324219 23.609375 57.554688 C 23.457031 57.785156 23.285156 57.996094 23.089844 58.191406 C 22.894531 58.386719 22.683594 58.5625 22.453125 58.714844 C 22.222656 58.871094 21.980469 59 21.726562 59.105469 C 21.472656 59.210938 21.210938 59.292969 20.941406 59.347656 C 20.667969 59.402344 20.394531 59.429688 20.121094 59.429688 C 19.84375 59.429688 19.570312 59.402344 19.300781 59.351562 C 19.027344 59.296875 18.765625 59.21875 18.511719 59.113281 C 18.253906 59.007812 18.011719 58.882812 17.78125 58.730469 C 17.550781 58.578125 17.339844 58.402344 17.144531 58.207031 C 16.945312 58.011719 16.769531 57.800781 16.613281 57.570312 C 16.460938 57.339844 16.328125 57.09375 16.222656 56.839844 C 16.113281 56.582031 16.035156 56.316406 15.980469 56.046875 C 15.925781 55.773438 15.898438 55.496094 15.898438 55.21875 C 15.898438 54.941406 15.925781 54.667969 15.980469 54.394531 C 16.035156 54.121094 16.113281 53.855469 16.222656 53.601562 C 16.328125 53.34375 16.460938 53.101562 16.613281 52.871094 C 16.769531 52.640625 16.945312 52.425781 17.144531 52.230469 Z M 20.132812 57.773438 C 20.648438 57.773438 21.121094 57.628906 21.550781 57.339844 C 21.976562 57.054688 22.289062 56.671875 22.488281 56.195312 C 22.683594 55.71875 22.734375 55.226562 22.632812 54.722656 C 22.53125 54.214844 22.300781 53.78125 21.9375 53.417969 C 21.691406 53.183594 21.414062 53.003906 21.101562 52.878906 C 20.789062 52.753906 20.464844 52.691406 20.128906 52.691406 C 19.792969 52.691406 19.46875 52.753906 19.15625 52.878906 C 18.84375 53.003906 18.566406 53.183594 18.324219 53.417969 C 17.957031 53.78125 17.726562 54.21875 17.625 54.722656 C 17.527344 55.230469 17.574219 55.722656 17.773438 56.199219 C 17.96875 56.675781 18.285156 57.058594 18.714844 57.34375 C 19.144531 57.628906 19.617188 57.773438 20.132812 57.773438 Z M 19.289062 54.433594 C 19.398438 54.324219 19.523438 54.242188 19.664062 54.183594 C 19.804688 54.125 19.953125 54.097656 20.105469 54.097656 C 20.257812 54.097656 20.402344 54.125 20.542969 54.183594 C 20.6875 54.242188 20.808594 54.324219 20.917969 54.433594 C 21.027344 54.542969 21.109375 54.667969 21.167969 54.808594 C 21.226562 54.949219 21.253906 55.09375 21.253906 55.246094 C 21.253906 55.398438 21.226562 55.546875 21.167969 55.6875 C 21.109375 55.828125 21.027344 55.953125 20.917969 56.0625 C 20.808594 56.167969 20.6875 56.253906 20.542969 56.308594 C 20.402344 56.367188 20.257812 56.398438 20.105469 56.398438 C 19.953125 56.398438 19.804688 56.367188 19.664062 56.3125 C 19.523438 56.253906 19.398438 56.167969 19.289062 56.0625 C 19.183594 55.953125 19.097656 55.828125 19.039062 55.6875 C 18.980469 55.546875 18.949219 55.398438 18.949219 55.246094 C 18.949219 55.09375 18.980469 54.949219 19.039062 54.804688 C 19.097656 54.664062 19.183594 54.539062 19.289062 54.433594 Z M 19.289062 54.433594 " fill-opacity="1" fill-rule="nonzero"/></g></svg>