<svg xmlns="http://www.w3.org/2000/svg" xmlns:xlink="http://www.w3.org/1999/xlink" width="100" zoomAndPan="magnify" viewBox="0 0 75 74.999997" height="100" preserveAspectRatio="xMidYMid meet" version="1.0"><defs><clipPath id="b526e6e691"><path d="M 3.523438 4.199219 L 71.773438 4.199219 L 71.773438 59 L 3.523438 59 Z M 3.523438 4.199219 " clip-rule="nonzero"/></clipPath><clipPath id="bb6a719a9d"><path d="M 3.523438 49 L 71.773438 49 L 71.773438 59 L 3.523438 59 Z M 3.523438 49 " clip-rule="nonzero"/></clipPath><clipPath id="869438dfde"><path d="M 10 67 L 65 67 L 65 72.449219 L 10 72.449219 Z M 10 67 " clip-rule="nonzero"/></clipPath><clipPath id="3bbef9992b"><path d="M 4.273438 4.164062 L 71.773438 4.164062 L 71.773438 58 L 4.273438 58 Z M 4.273438 4.164062 " clip-rule="nonzero"/></clipPath><clipPath id="c0d40c00a8"><path d="M 3.523438 11.664062 L 3.523438 50.09375 C 3.523438 54.652344 7.21875 58.34375 11.773438 58.34375 L 63.953125 58.34375 C 68.511719 58.34375 72.203125 54.652344 72.203125 50.09375 L 72.203125 11.664062 C 72.203125 7.109375 68.511719 3.414062 63.953125 3.414062 L 11.773438 3.414062 C 7.21875 3.414062 3.523438 7.109375 3.523438 11.664062 Z M 3.523438 11.664062 " clip-rule="nonzero"/></clipPath><clipPath id="e0e92a0e44"><path d="M 12.675781 4.3125 L 63.054688 4.3125 C 67.609375 4.3125 71.304688 8.007812 71.304688 12.5625 L 71.304688 49.195312 C 71.304688 53.75 67.609375 57.445312 63.054688 57.445312 L 12.675781 57.445312 C 8.117188 57.445312 4.425781 53.75 4.425781 49.195312 L 4.425781 12.5625 C 4.425781 8.007812 8.117188 4.3125 12.675781 4.3125 Z M 12.675781 4.3125 " clip-rule="nonzero"/></clipPath><clipPath id="aa184d0c20"><path d="M 3.523438 3.414062 L 72.519531 3.414062 L 72.519531 58.164062 L 3.523438 58.164062 Z M 3.523438 3.414062 " clip-rule="nonzero"/></clipPath><clipPath id="51ccf93c23"><path d="M 3.523438 11.664062 L 3.523438 50.09375 C 3.523438 54.652344 7.21875 58.34375 11.773438 58.34375 L 63.953125 58.34375 C 68.511719 58.34375 72.203125 54.652344 72.203125 50.09375 L 72.203125 11.664062 C 72.203125 7.109375 68.511719 3.414062 63.953125 3.414062 L 11.773438 3.414062 C 7.21875 3.414062 3.523438 7.109375 3.523438 11.664062 Z M 3.523438 11.664062 " clip-rule="nonzero"/></clipPath><clipPath id="133b65e3b9"><path d="M 3.523438 11.664062 L 3.523438 50.089844 C 3.523438 54.648438 7.21875 58.339844 11.773438 58.339844 L 63.949219 58.339844 C 68.503906 58.339844 72.195312 54.648438 72.195312 50.089844 L 72.195312 11.664062 C 72.195312 7.109375 68.503906 3.414062 63.949219 3.414062 L 11.773438 3.414062 C 7.21875 3.414062 3.523438 7.109375 3.523438 11.664062 Z M 3.523438 11.664062 " clip-rule="nonzero"/></clipPath></defs><rect x="-7.5" width="90" fill="#ffffff" y="-7.5" height="89.999996" fill-opacity="1"/><rect x="-7.5" width="90" fill="#ffffff" y="-7.5" height="89.999996" fill-opacity="1"/><path fill="#d9d9d9" d="M 46.796875 57.289062 L 50.847656 55.261719 L 57.640625 68.847656 L 53.589844 70.875 Z M 46.796875 57.289062 " fill-opacity="1" fill-rule="nonzero"/><path fill="#d9d9d9" d="M 17.355469 68.859375 L 24.148438 55.273438 L 28.199219 57.300781 L 21.40625 70.886719 Z M 17.355469 68.859375 " fill-opacity="1" fill-rule="nonzero"/><g clip-path="url(#b526e6e691)"><path fill="#d9d9d9" d="M 10.324219 4.199219 L 64.671875 4.199219 C 65.117188 4.199219 65.558594 4.242188 65.996094 4.332031 C 66.433594 4.417969 66.859375 4.546875 67.269531 4.71875 C 67.683594 4.886719 68.074219 5.097656 68.445312 5.34375 C 68.816406 5.59375 69.160156 5.875 69.472656 6.191406 C 69.789062 6.503906 70.070312 6.847656 70.320312 7.21875 C 70.566406 7.589844 70.777344 7.980469 70.945312 8.394531 C 71.117188 8.804688 71.246094 9.230469 71.332031 9.667969 C 71.421875 10.105469 71.464844 10.546875 71.464844 10.992188 L 71.464844 51.753906 C 71.464844 52.199219 71.421875 52.640625 71.332031 53.078125 C 71.246094 53.515625 71.117188 53.941406 70.945312 54.351562 C 70.777344 54.765625 70.566406 55.15625 70.320312 55.527344 C 70.070312 55.898438 69.789062 56.242188 69.472656 56.554688 C 69.160156 56.871094 68.816406 57.152344 68.445312 57.402344 C 68.074219 57.648438 67.683594 57.859375 67.269531 58.027344 C 66.859375 58.199219 66.433594 58.328125 65.996094 58.414062 C 65.558594 58.503906 65.117188 58.546875 64.671875 58.546875 L 10.324219 58.546875 C 9.878906 58.546875 9.4375 58.503906 9 58.414062 C 8.5625 58.328125 8.136719 58.199219 7.726562 58.027344 C 7.3125 57.859375 6.921875 57.648438 6.550781 57.402344 C 6.179688 57.152344 5.835938 56.871094 5.519531 56.554688 C 5.207031 56.242188 4.925781 55.898438 4.675781 55.527344 C 4.429688 55.15625 4.21875 54.765625 4.046875 54.351562 C 3.878906 53.941406 3.75 53.515625 3.664062 53.078125 C 3.574219 52.640625 3.53125 52.199219 3.53125 51.753906 L 3.53125 10.992188 C 3.53125 10.546875 3.574219 10.105469 3.664062 9.667969 C 3.75 9.230469 3.878906 8.804688 4.046875 8.394531 C 4.21875 7.980469 4.429688 7.589844 4.675781 7.21875 C 4.925781 6.847656 5.207031 6.503906 5.519531 6.191406 C 5.835938 5.875 6.179688 5.59375 6.550781 5.34375 C 6.921875 5.097656 7.3125 4.886719 7.726562 4.71875 C 8.136719 4.546875 8.5625 4.417969 9 4.332031 C 9.4375 4.242188 9.878906 4.199219 10.324219 4.199219 Z M 10.324219 4.199219 " fill-opacity="1" fill-rule="nonzero"/></g><g clip-path="url(#bb6a719a9d)"><path fill="#0c74ff" d="M 3.53125 49.488281 L 3.53125 51.753906 C 3.53125 52.199219 3.574219 52.640625 3.664062 53.078125 C 3.75 53.515625 3.878906 53.9375 4.050781 54.351562 C 4.222656 54.761719 4.429688 55.152344 4.679688 55.523438 C 4.925781 55.894531 5.207031 56.238281 5.523438 56.554688 C 5.839844 56.867188 6.183594 57.152344 6.550781 57.398438 C 6.921875 57.644531 7.316406 57.855469 7.726562 58.027344 C 8.136719 58.199219 8.5625 58.328125 9 58.414062 C 9.4375 58.5 9.878906 58.546875 10.324219 58.546875 L 64.671875 58.546875 C 65.117188 58.546875 65.558594 58.5 65.996094 58.414062 C 66.433594 58.328125 66.855469 58.199219 67.269531 58.027344 C 67.679688 57.855469 68.070312 57.644531 68.441406 57.398438 C 68.8125 57.152344 69.15625 56.867188 69.472656 56.554688 C 69.785156 56.238281 70.070312 55.894531 70.316406 55.523438 C 70.5625 55.152344 70.773438 54.761719 70.945312 54.351562 C 71.117188 53.9375 71.246094 53.515625 71.332031 53.078125 C 71.417969 52.640625 71.464844 52.199219 71.464844 51.753906 L 71.464844 49.488281 Z M 3.53125 49.488281 " fill-opacity="1" fill-rule="nonzero"/></g><g clip-path="url(#869438dfde)"><path fill="#0c74ff" d="M 62.40625 72.132812 L 12.589844 72.132812 C 12.285156 72.140625 11.988281 72.085938 11.707031 71.976562 C 11.421875 71.863281 11.171875 71.703125 10.953125 71.488281 C 10.734375 71.277344 10.566406 71.027344 10.449219 70.746094 C 10.328125 70.464844 10.269531 70.171875 10.269531 69.867188 C 10.269531 69.5625 10.328125 69.269531 10.449219 68.988281 C 10.566406 68.707031 10.734375 68.460938 10.953125 68.246094 C 11.171875 68.035156 11.421875 67.871094 11.707031 67.761719 C 11.988281 67.648438 12.285156 67.597656 12.589844 67.605469 L 62.40625 67.605469 C 62.710938 67.597656 63.003906 67.648438 63.289062 67.761719 C 63.574219 67.871094 63.824219 68.035156 64.042969 68.246094 C 64.261719 68.460938 64.429688 68.707031 64.546875 68.988281 C 64.667969 69.269531 64.726562 69.5625 64.726562 69.867188 C 64.726562 70.171875 64.667969 70.464844 64.546875 70.746094 C 64.429688 71.027344 64.261719 71.277344 64.042969 71.488281 C 63.824219 71.703125 63.574219 71.863281 63.289062 71.976562 C 63.003906 72.085938 62.710938 72.140625 62.40625 72.132812 Z M 62.40625 72.132812 " fill-opacity="1" fill-rule="nonzero"/></g><path fill="#0c74ff" d="M 19.382812 38.167969 L 14.851562 38.167969 C 14.558594 38.160156 14.273438 38.097656 14.003906 37.976562 C 13.734375 37.859375 13.492188 37.695312 13.289062 37.484375 C 13.082031 37.273438 12.921875 37.03125 12.808594 36.757812 C 12.699219 36.480469 12.644531 36.199219 12.644531 35.902344 C 12.644531 35.605469 12.699219 35.320312 12.808594 35.046875 C 12.921875 34.773438 13.082031 34.53125 13.289062 34.320312 C 13.492188 34.109375 13.734375 33.945312 14.003906 33.824219 C 14.273438 33.707031 14.558594 33.644531 14.851562 33.636719 L 19.382812 33.636719 C 19.683594 33.636719 19.972656 33.582031 20.25 33.464844 C 20.527344 33.351562 20.773438 33.1875 20.984375 32.972656 C 21.195312 32.761719 21.359375 32.515625 21.476562 32.238281 C 21.589844 31.960938 21.648438 31.671875 21.648438 31.371094 C 21.648438 31.074219 21.589844 30.785156 21.476562 30.507812 C 21.359375 30.230469 21.195312 29.984375 20.984375 29.769531 C 20.773438 29.558594 20.527344 29.394531 20.25 29.28125 C 19.972656 29.164062 19.683594 29.109375 19.382812 29.109375 C 18.9375 29.109375 18.496094 29.066406 18.058594 28.976562 C 17.621094 28.890625 17.195312 28.761719 16.785156 28.589844 C 16.371094 28.421875 15.980469 28.210938 15.609375 27.964844 C 15.238281 27.714844 14.894531 27.433594 14.578125 27.117188 C 14.265625 26.804688 13.980469 26.460938 13.734375 26.089844 C 13.488281 25.71875 13.277344 25.328125 13.105469 24.914062 C 12.9375 24.503906 12.808594 24.078125 12.71875 23.640625 C 12.632812 23.203125 12.589844 22.761719 12.589844 22.316406 C 12.589844 21.867188 12.632812 21.425781 12.71875 20.988281 C 12.808594 20.550781 12.9375 20.128906 13.105469 19.714844 C 13.277344 19.304688 13.488281 18.910156 13.734375 18.539062 C 13.980469 18.167969 14.265625 17.828125 14.578125 17.511719 C 14.894531 17.195312 15.238281 16.914062 15.609375 16.667969 C 15.980469 16.417969 16.371094 16.210938 16.785156 16.039062 C 17.195312 15.867188 17.621094 15.738281 18.058594 15.652344 C 18.496094 15.566406 18.9375 15.523438 19.382812 15.523438 L 23.910156 15.523438 C 24.210938 15.523438 24.5 15.578125 24.777344 15.695312 C 25.054688 15.808594 25.300781 15.972656 25.511719 16.183594 C 25.726562 16.398438 25.890625 16.640625 26.003906 16.917969 C 26.117188 17.195312 26.175781 17.484375 26.175781 17.785156 C 26.175781 18.085938 26.117188 18.375 26.003906 18.652344 C 25.890625 18.929688 25.726562 19.175781 25.511719 19.386719 C 25.300781 19.601562 25.054688 19.765625 24.777344 19.878906 C 24.5 19.992188 24.210938 20.050781 23.910156 20.050781 L 19.382812 20.050781 C 19.078125 20.042969 18.785156 20.097656 18.5 20.207031 C 18.214844 20.320312 17.964844 20.480469 17.746094 20.695312 C 17.527344 20.90625 17.359375 21.15625 17.242188 21.4375 C 17.121094 21.71875 17.0625 22.011719 17.0625 22.316406 C 17.0625 22.621094 17.121094 22.914062 17.242188 23.195312 C 17.359375 23.476562 17.527344 23.722656 17.746094 23.9375 C 17.964844 24.148438 18.214844 24.3125 18.5 24.421875 C 18.785156 24.535156 19.078125 24.585938 19.382812 24.578125 C 19.828125 24.578125 20.269531 24.625 20.707031 24.710938 C 21.144531 24.796875 21.570312 24.925781 21.984375 25.097656 C 22.394531 25.265625 22.785156 25.476562 23.15625 25.722656 C 23.527344 25.972656 23.871094 26.253906 24.1875 26.570312 C 24.5 26.882812 24.785156 27.226562 25.03125 27.597656 C 25.277344 27.96875 25.488281 28.359375 25.660156 28.773438 C 25.828125 29.183594 25.957031 29.609375 26.046875 30.046875 C 26.132812 30.484375 26.175781 30.925781 26.175781 31.371094 C 26.175781 31.820312 26.132812 32.261719 26.046875 32.699219 C 25.957031 33.136719 25.828125 33.558594 25.660156 33.972656 C 25.488281 34.382812 25.277344 34.777344 25.03125 35.148438 C 24.785156 35.519531 24.5 35.859375 24.1875 36.175781 C 23.871094 36.492188 23.527344 36.773438 23.15625 37.019531 C 22.785156 37.269531 22.394531 37.476562 21.984375 37.648438 C 21.570312 37.820312 21.144531 37.949219 20.707031 38.035156 C 20.269531 38.121094 19.828125 38.167969 19.382812 38.167969 Z M 19.382812 38.167969 " fill-opacity="1" fill-rule="nonzero"/><path fill="#0c74ff" d="M 32.96875 38.167969 C 32.667969 38.167969 32.378906 38.109375 32.101562 37.992188 C 31.824219 37.878906 31.578125 37.714844 31.367188 37.503906 C 31.15625 37.289062 30.992188 37.046875 30.875 36.769531 C 30.761719 36.492188 30.703125 36.203125 30.703125 35.902344 L 30.703125 17.785156 C 30.695312 17.480469 30.75 17.1875 30.859375 16.902344 C 30.972656 16.617188 31.136719 16.367188 31.347656 16.148438 C 31.5625 15.929688 31.808594 15.761719 32.089844 15.644531 C 32.371094 15.527344 32.664062 15.46875 32.96875 15.46875 C 33.273438 15.46875 33.566406 15.527344 33.847656 15.644531 C 34.128906 15.761719 34.375 15.929688 34.589844 16.148438 C 34.800781 16.367188 34.964844 16.617188 35.078125 16.902344 C 35.1875 17.1875 35.238281 17.480469 35.234375 17.785156 L 35.234375 35.902344 C 35.234375 36.203125 35.175781 36.492188 35.0625 36.769531 C 34.945312 37.046875 34.78125 37.289062 34.570312 37.503906 C 34.359375 37.714844 34.113281 37.878906 33.835938 37.992188 C 33.558594 38.109375 33.269531 38.167969 32.96875 38.167969 Z M 32.96875 38.167969 " fill-opacity="1" fill-rule="nonzero"/><path fill="#0c74ff" d="M 42.027344 20.050781 L 33.347656 20.050781 C 33.046875 20.050781 32.757812 19.992188 32.480469 19.878906 C 32.203125 19.765625 31.960938 19.601562 31.746094 19.386719 C 31.535156 19.175781 31.371094 18.929688 31.257812 18.652344 C 31.140625 18.375 31.082031 18.085938 31.082031 17.785156 C 31.082031 17.484375 31.140625 17.195312 31.257812 16.917969 C 31.371094 16.640625 31.535156 16.398438 31.746094 16.183594 C 31.960938 15.972656 32.203125 15.808594 32.480469 15.695312 C 32.757812 15.578125 33.046875 15.523438 33.347656 15.523438 L 42.027344 15.523438 C 42.328125 15.523438 42.617188 15.578125 42.894531 15.695312 C 43.171875 15.808594 43.414062 15.972656 43.628906 16.183594 C 43.839844 16.398438 44.003906 16.640625 44.117188 16.917969 C 44.234375 17.195312 44.289062 17.484375 44.289062 17.785156 C 44.289062 18.085938 44.234375 18.375 44.117188 18.652344 C 44.003906 18.929688 43.839844 19.175781 43.628906 19.386719 C 43.414062 19.601562 43.171875 19.765625 42.894531 19.878906 C 42.617188 19.992188 42.328125 20.050781 42.027344 20.050781 Z M 42.027344 20.050781 " fill-opacity="1" fill-rule="nonzero"/><path fill="#0c74ff" d="M 42.027344 29.109375 L 33.347656 29.109375 C 33.054688 29.101562 32.769531 29.039062 32.5 28.921875 C 32.226562 28.800781 31.988281 28.636719 31.78125 28.425781 C 31.578125 28.214844 31.417969 27.972656 31.304688 27.699219 C 31.195312 27.425781 31.140625 27.140625 31.140625 26.84375 C 31.140625 26.546875 31.195312 26.261719 31.304688 25.988281 C 31.417969 25.714844 31.578125 25.472656 31.78125 25.261719 C 31.988281 25.050781 32.226562 24.886719 32.5 24.765625 C 32.769531 24.648438 33.054688 24.585938 33.347656 24.578125 L 42.027344 24.578125 C 42.332031 24.570312 42.625 24.625 42.910156 24.734375 C 43.191406 24.847656 43.445312 25.011719 43.664062 25.222656 C 43.882812 25.4375 44.050781 25.683594 44.167969 25.964844 C 44.285156 26.246094 44.34375 26.539062 44.34375 26.84375 C 44.34375 27.148438 44.285156 27.441406 44.167969 27.722656 C 44.050781 28.003906 43.882812 28.25 43.664062 28.464844 C 43.445312 28.675781 43.191406 28.839844 42.910156 28.953125 C 42.625 29.0625 42.332031 29.117188 42.027344 29.109375 Z M 42.027344 29.109375 " fill-opacity="1" fill-rule="nonzero"/><path fill="#0c74ff" d="M 42.027344 38.167969 L 33.347656 38.167969 C 33.054688 38.160156 32.769531 38.097656 32.5 37.976562 C 32.226562 37.859375 31.988281 37.695312 31.78125 37.484375 C 31.578125 37.273438 31.417969 37.03125 31.304688 36.757812 C 31.195312 36.480469 31.140625 36.199219 31.140625 35.902344 C 31.140625 35.605469 31.195312 35.320312 31.304688 35.046875 C 31.417969 34.773438 31.578125 34.53125 31.78125 34.320312 C 31.988281 34.109375 32.226562 33.945312 32.5 33.824219 C 32.769531 33.707031 33.054688 33.644531 33.347656 33.636719 L 42.027344 33.636719 C 42.332031 33.628906 42.625 33.683594 42.910156 33.792969 C 43.191406 33.90625 43.445312 34.066406 43.664062 34.28125 C 43.882812 34.496094 44.050781 34.742188 44.167969 35.023438 C 44.285156 35.304688 44.34375 35.597656 44.34375 35.902344 C 44.34375 36.207031 44.285156 36.5 44.167969 36.78125 C 44.050781 37.0625 43.882812 37.308594 43.664062 37.523438 C 43.445312 37.734375 43.191406 37.898438 42.910156 38.007812 C 42.625 38.121094 42.332031 38.171875 42.027344 38.167969 Z M 42.027344 38.167969 " fill-opacity="1" fill-rule="nonzero"/><path fill="#0c74ff" d="M 55.613281 38.167969 C 55.167969 38.164062 54.726562 38.121094 54.289062 38.035156 C 53.851562 37.945312 53.425781 37.816406 53.015625 37.648438 C 52.601562 37.476562 52.210938 37.265625 51.839844 37.019531 C 51.46875 36.769531 51.125 36.488281 50.8125 36.175781 C 50.496094 35.859375 50.214844 35.515625 49.964844 35.144531 C 49.71875 34.773438 49.507812 34.382812 49.339844 33.972656 C 49.167969 33.558594 49.039062 33.136719 48.949219 32.699219 C 48.863281 32.261719 48.820312 31.820312 48.820312 31.371094 L 48.820312 22.316406 C 48.820312 21.867188 48.863281 21.425781 48.949219 20.988281 C 49.035156 20.550781 49.164062 20.128906 49.335938 19.714844 C 49.507812 19.304688 49.714844 18.910156 49.964844 18.539062 C 50.210938 18.167969 50.492188 17.828125 50.808594 17.511719 C 51.125 17.195312 51.46875 16.914062 51.839844 16.667969 C 52.210938 16.417969 52.601562 16.210938 53.011719 16.039062 C 53.425781 15.867188 53.851562 15.738281 54.289062 15.652344 C 54.726562 15.566406 55.167969 15.523438 55.613281 15.523438 C 56.058594 15.523438 56.5 15.566406 56.9375 15.652344 C 57.375 15.738281 57.800781 15.867188 58.210938 16.039062 C 58.625 16.210938 59.015625 16.417969 59.386719 16.667969 C 59.757812 16.914062 60.101562 17.195312 60.414062 17.511719 C 60.730469 17.828125 61.011719 18.167969 61.261719 18.539062 C 61.507812 18.910156 61.71875 19.304688 61.886719 19.714844 C 62.058594 20.128906 62.1875 20.550781 62.273438 20.988281 C 62.363281 21.425781 62.40625 21.867188 62.40625 22.316406 L 62.40625 31.371094 C 62.40625 31.820312 62.359375 32.261719 62.273438 32.699219 C 62.1875 33.136719 62.058594 33.558594 61.886719 33.972656 C 61.714844 34.382812 61.507812 34.773438 61.257812 35.144531 C 61.011719 35.515625 60.730469 35.859375 60.414062 36.175781 C 60.097656 36.488281 59.753906 36.769531 59.386719 37.019531 C 59.015625 37.265625 58.621094 37.476562 58.210938 37.648438 C 57.800781 37.816406 57.375 37.945312 56.9375 38.035156 C 56.5 38.121094 56.058594 38.164062 55.613281 38.167969 Z M 55.613281 20.050781 C 55.3125 20.050781 55.023438 20.109375 54.746094 20.222656 C 54.46875 20.339844 54.226562 20.503906 54.011719 20.714844 C 53.800781 20.925781 53.636719 21.171875 53.523438 21.449219 C 53.40625 21.726562 53.347656 22.015625 53.347656 22.316406 L 53.347656 31.371094 C 53.339844 31.679688 53.394531 31.972656 53.503906 32.257812 C 53.617188 32.539062 53.777344 32.792969 53.992188 33.007812 C 54.207031 33.226562 54.453125 33.394531 54.734375 33.515625 C 55.015625 33.632812 55.308594 33.691406 55.613281 33.691406 C 55.917969 33.691406 56.210938 33.632812 56.492188 33.515625 C 56.773438 33.394531 57.019531 33.226562 57.234375 33.007812 C 57.445312 32.792969 57.609375 32.539062 57.722656 32.257812 C 57.832031 31.972656 57.882812 31.679688 57.878906 31.371094 L 57.878906 22.316406 C 57.875 22.015625 57.820312 21.726562 57.703125 21.449219 C 57.589844 21.171875 57.425781 20.925781 57.214844 20.714844 C 57 20.503906 56.757812 20.339844 56.480469 20.222656 C 56.203125 20.109375 55.914062 20.050781 55.613281 20.050781 Z M 55.613281 20.050781 " fill-opacity="1" fill-rule="nonzero"/><g clip-path="url(#3bbef9992b)"><g clip-path="url(#c0d40c00a8)"><g clip-path="url(#e0e92a0e44)"><path fill="#0c74ff" d="M 64.625 3.414062 L 11.789062 3.414062 C 11.246094 3.414062 10.710938 3.46875 10.179688 3.574219 C 9.644531 3.683594 9.128906 3.839844 8.628906 4.046875 C 8.128906 4.253906 7.652344 4.507812 7.199219 4.8125 C 6.75 5.113281 6.332031 5.457031 5.949219 5.839844 C 5.566406 6.222656 5.222656 6.640625 4.921875 7.089844 C 4.621094 7.542969 4.367188 8.015625 4.15625 8.519531 C 3.949219 9.019531 3.792969 9.535156 3.6875 10.066406 C 3.578125 10.597656 3.527344 11.136719 3.523438 11.679688 L 3.523438 64.511719 C 3.527344 65.054688 3.578125 65.59375 3.6875 66.125 C 3.792969 66.65625 3.949219 67.171875 4.15625 67.675781 C 4.367188 68.175781 4.621094 68.652344 4.921875 69.101562 C 5.222656 69.550781 5.566406 69.96875 5.949219 70.351562 C 6.332031 70.738281 6.75 71.078125 7.199219 71.378906 C 7.652344 71.683594 8.128906 71.9375 8.628906 72.144531 C 9.128906 72.351562 9.644531 72.511719 10.179688 72.617188 C 10.710938 72.722656 11.246094 72.777344 11.789062 72.777344 L 64.625 72.777344 C 65.167969 72.777344 65.703125 72.722656 66.234375 72.617188 C 66.765625 72.511719 67.285156 72.351562 67.785156 72.144531 C 68.285156 71.9375 68.761719 71.683594 69.210938 71.378906 C 69.664062 71.078125 70.082031 70.738281 70.464844 70.351562 C 70.847656 69.96875 71.191406 69.550781 71.492188 69.101562 C 71.792969 68.652344 72.046875 68.175781 72.253906 67.675781 C 72.464844 67.171875 72.621094 66.65625 72.726562 66.125 C 72.832031 65.59375 72.886719 65.054688 72.886719 64.511719 L 72.886719 11.679688 C 72.886719 11.136719 72.832031 10.597656 72.726562 10.066406 C 72.621094 9.535156 72.464844 9.019531 72.253906 8.519531 C 72.046875 8.015625 71.792969 7.542969 71.492188 7.089844 C 71.191406 6.640625 70.847656 6.222656 70.464844 5.839844 C 70.082031 5.457031 69.664062 5.113281 69.210938 4.8125 C 68.761719 4.507812 68.285156 4.253906 67.785156 4.046875 C 67.285156 3.839844 66.765625 3.683594 66.234375 3.574219 C 65.703125 3.46875 65.167969 3.414062 64.625 3.414062 Z M 71.824219 64.511719 C 71.820312 64.984375 71.773438 65.453125 71.683594 65.917969 C 71.589844 66.378906 71.453125 66.828125 71.269531 67.265625 C 71.089844 67.703125 70.867188 68.117188 70.605469 68.507812 C 70.34375 68.902344 70.042969 69.265625 69.710938 69.601562 C 69.375 69.933594 69.011719 70.230469 68.621094 70.496094 C 68.226562 70.757812 67.8125 70.980469 67.375 71.160156 C 66.941406 71.339844 66.492188 71.480469 66.027344 71.570312 C 65.566406 71.664062 65.097656 71.710938 64.625 71.710938 L 11.789062 71.710938 C 11.316406 71.710938 10.847656 71.664062 10.386719 71.570312 C 9.921875 71.480469 9.472656 71.339844 9.035156 71.160156 C 8.601562 70.980469 8.1875 70.757812 7.792969 70.496094 C 7.398438 70.230469 7.035156 69.933594 6.703125 69.601562 C 6.367188 69.265625 6.070312 68.902344 5.808594 68.507812 C 5.546875 68.117188 5.324219 67.703125 5.140625 67.265625 C 4.960938 66.828125 4.824219 66.378906 4.730469 65.917969 C 4.636719 65.453125 4.589844 64.984375 4.589844 64.511719 L 4.589844 11.679688 C 4.589844 11.207031 4.636719 10.738281 4.730469 10.273438 C 4.824219 9.8125 4.960938 9.363281 5.140625 8.925781 C 5.324219 8.488281 5.546875 8.074219 5.808594 7.683594 C 6.070312 7.289062 6.367188 6.925781 6.703125 6.59375 C 7.035156 6.257812 7.398438 5.960938 7.792969 5.695312 C 8.1875 5.433594 8.601562 5.210938 9.035156 5.03125 C 9.472656 4.851562 9.921875 4.714844 10.386719 4.621094 C 10.847656 4.527344 11.316406 4.480469 11.789062 4.480469 L 64.625 4.480469 C 65.097656 4.480469 65.566406 4.527344 66.027344 4.621094 C 66.492188 4.714844 66.941406 4.851562 67.375 5.03125 C 67.8125 5.210938 68.226562 5.433594 68.621094 5.695312 C 69.011719 5.960938 69.375 6.257812 69.710938 6.59375 C 70.042969 6.925781 70.34375 7.289062 70.605469 7.683594 C 70.867188 8.074219 71.089844 8.488281 71.269531 8.925781 C 71.453125 9.363281 71.589844 9.8125 71.683594 10.273438 C 71.773438 10.738281 71.820312 11.207031 71.824219 11.679688 Z M 71.824219 64.511719 " fill-opacity="1" fill-rule="nonzero"/></g></g></g><g clip-path="url(#aa184d0c20)"><g clip-path="url(#51ccf93c23)"><g clip-path="url(#133b65e3b9)"><path stroke-linecap="butt" transform="matrix(0.75, 0, 0, 0.75, 3.525003, 3.414247)" fill="none" stroke-linejoin="miter" d="M -0.00208677 10.999754 L -0.00208677 62.23413 C -0.00208677 68.312255 4.924997 73.23413 10.997914 73.23413 L 80.565628 73.23413 C 86.638545 73.23413 91.560421 68.312255 91.560421 62.23413 L 91.560421 10.999754 C 91.560421 4.926837 86.638545 -0.000246514 80.565628 -0.000246514 L 10.997914 -0.000246514 C 4.924997 -0.000246514 -0.00208677 4.926837 -0.00208677 10.999754 Z M -0.00208677 10.999754 " stroke="#0c74ff" stroke-width="6" stroke-opacity="1" stroke-miterlimit="4"/></g></g></g></svg>