<svg xmlns="http://www.w3.org/2000/svg" xmlns:xlink="http://www.w3.org/1999/xlink" width="100" zoomAndPan="magnify" viewBox="0 0 75 74.999997" height="100" preserveAspectRatio="xMidYMid meet" version="1.0"><defs><clipPath id="80e03b3ab9"><path d="M 4.6875 6.492188 L 69.9375 6.492188 L 69.9375 71.742188 L 4.6875 71.742188 Z M 4.6875 6.492188 " clip-rule="nonzero"/></clipPath><clipPath id="6081739e2a"><path d="M 5.4375 6.492188 L 70.6875 6.492188 L 70.6875 71.742188 L 5.4375 71.742188 Z M 5.4375 6.492188 " clip-rule="nonzero"/></clipPath></defs><g clip-path="url(#80e03b3ab9)"><path fill="#0c74ff" d="M 69.308594 6.492188 L 5.683594 6.492188 C 5.085938 6.492188 4.6875 6.890625 4.6875 7.484375 L 4.6875 71.109375 C 4.6875 71.707031 5.085938 72.105469 5.683594 72.105469 L 69.308594 72.105469 C 69.90625 72.105469 70.300781 71.707031 70.300781 71.109375 L 70.300781 7.484375 C 70.300781 6.890625 69.90625 6.492188 69.308594 6.492188 Z M 68.3125 8.480469 L 68.3125 19.8125 L 6.675781 19.8125 L 6.675781 8.480469 Z M 6.675781 70.117188 L 6.675781 21.800781 L 68.3125 21.800781 L 68.3125 70.117188 Z M 6.675781 70.117188 " fill-opacity="1" fill-rule="nonzero"/></g><path fill="#0c74ff" d="M 12.34375 17.128906 C 13.933594 17.128906 15.226562 15.835938 15.226562 14.246094 C 15.226562 12.65625 13.933594 11.363281 12.34375 11.363281 C 10.753906 11.363281 9.460938 12.65625 9.460938 14.246094 C 9.460938 15.835938 10.753906 17.128906 12.34375 17.128906 Z M 12.34375 13.351562 C 12.839844 13.351562 13.238281 13.75 13.238281 14.246094 C 13.238281 14.742188 12.839844 15.140625 12.34375 15.140625 C 11.847656 15.140625 11.449219 14.742188 11.449219 14.246094 C 11.449219 13.75 11.847656 13.351562 12.34375 13.351562 Z M 12.34375 13.351562 " fill-opacity="1" fill-rule="nonzero"/><path fill="#0c74ff" d="M 19.601562 17.128906 C 21.191406 17.128906 22.484375 15.835938 22.484375 14.246094 C 22.484375 12.65625 21.191406 11.363281 19.601562 11.363281 C 18.011719 11.363281 16.71875 12.65625 16.71875 14.246094 C 16.71875 15.835938 18.011719 17.128906 19.601562 17.128906 Z M 19.601562 13.351562 C 20.097656 13.351562 20.496094 13.75 20.496094 14.246094 C 20.496094 14.742188 20.097656 15.140625 19.601562 15.140625 C 19.105469 15.140625 18.707031 14.742188 18.707031 14.246094 C 18.707031 13.75 19.105469 13.351562 19.601562 13.351562 Z M 19.601562 13.351562 " fill-opacity="1" fill-rule="nonzero"/><path fill="#0c74ff" d="M 26.859375 17.128906 C 28.449219 17.128906 29.742188 15.835938 29.742188 14.246094 C 29.742188 12.65625 28.449219 11.363281 26.859375 11.363281 C 25.269531 11.363281 23.976562 12.65625 23.976562 14.246094 C 23.875 15.835938 25.269531 17.128906 26.859375 17.128906 Z M 26.859375 13.351562 C 27.355469 13.351562 27.753906 13.75 27.753906 14.246094 C 27.753906 14.742188 27.355469 15.140625 26.859375 15.140625 C 26.363281 15.140625 25.964844 14.742188 25.964844 14.246094 C 25.863281 13.75 26.363281 13.351562 26.859375 13.351562 Z M 26.859375 13.351562 " fill-opacity="1" fill-rule="nonzero"/><path fill="#0c74ff" d="M 33.222656 17.726562 L 65.332031 17.726562 C 65.929688 17.726562 66.324219 17.328125 66.324219 16.730469 L 66.324219 11.761719 C 66.324219 11.164062 65.929688 10.765625 65.332031 10.765625 L 33.222656 10.765625 C 32.625 10.765625 32.226562 11.164062 32.226562 11.761719 L 32.226562 16.632812 C 32.226562 17.230469 32.625 17.726562 33.222656 17.726562 Z M 34.214844 12.753906 L 64.335938 12.753906 L 64.335938 15.636719 L 34.214844 15.636719 Z M 34.214844 12.753906 " fill-opacity="1" fill-rule="nonzero"/><path fill="#0c74ff" d="M 52.308594 48.742188 C 52.804688 48.644531 53.203125 48.246094 53.203125 47.75 L 53.203125 44.367188 C 53.203125 43.871094 52.804688 43.472656 52.308594 43.375 L 49.425781 43.078125 C 49.128906 41.882812 48.628906 40.789062 48.035156 39.695312 L 49.722656 37.410156 C 50.023438 37.011719 50.023438 36.414062 49.625 36.019531 L 47.335938 33.730469 C 47.039062 33.332031 46.441406 33.332031 46.046875 33.632812 L 43.757812 35.421875 C 42.765625 34.824219 41.570312 34.328125 40.378906 34.03125 L 39.980469 31.148438 C 39.882812 30.648438 39.484375 30.253906 38.988281 30.253906 L 35.605469 30.253906 C 35.109375 30.253906 34.710938 30.648438 34.613281 31.148438 L 34.214844 34.03125 C 33.023438 34.328125 31.929688 34.824219 30.835938 35.421875 L 28.546875 33.632812 C 28.152344 33.332031 27.554688 33.332031 27.257812 33.730469 L 24.871094 36.117188 C 24.472656 36.515625 24.472656 37.011719 24.769531 37.410156 L 26.558594 39.695312 C 25.964844 40.691406 25.464844 41.882812 25.167969 43.078125 L 22.285156 43.472656 C 21.789062 43.574219 21.390625 43.972656 21.390625 44.46875 L 21.390625 47.847656 C 21.390625 48.34375 21.789062 48.742188 22.285156 48.84375 L 25.167969 49.238281 C 25.464844 50.433594 25.964844 51.527344 26.558594 52.621094 L 24.769531 54.90625 C 24.472656 55.304688 24.472656 55.902344 24.871094 56.199219 L 27.257812 58.585938 C 27.652344 58.984375 28.152344 58.984375 28.546875 58.683594 L 30.835938 56.894531 C 31.828125 57.492188 33.023438 57.988281 34.214844 58.285156 L 34.613281 61.167969 C 34.710938 61.667969 35.109375 62.066406 35.605469 62.066406 L 38.988281 62.066406 C 39.484375 62.066406 39.882812 61.667969 39.980469 61.167969 L 40.378906 58.285156 C 41.570312 57.988281 42.664062 57.492188 43.757812 56.894531 L 45.945312 58.585938 C 46.144531 58.683594 46.34375 58.785156 46.640625 58.785156 C 46.941406 58.785156 47.238281 58.683594 47.4375 58.484375 L 49.722656 56.199219 C 50.121094 55.800781 50.121094 55.304688 49.824219 54.90625 L 48.035156 52.621094 C 48.628906 51.625 49.128906 50.433594 49.425781 49.238281 Z M 47.636719 48.046875 C 47.335938 49.4375 46.839844 50.730469 46.046875 51.925781 C 45.847656 52.320312 45.847656 52.71875 46.046875 53.117188 L 47.636719 55.304688 L 46.542969 56.398438 L 44.453125 54.707031 C 44.15625 54.410156 43.660156 54.410156 43.261719 54.707031 C 42.070312 55.503906 40.777344 56.101562 39.382812 56.296875 C 38.988281 56.398438 38.6875 56.695312 38.589844 57.191406 L 38.191406 59.878906 L 36.601562 59.878906 L 36.304688 57.191406 C 36.203125 56.796875 35.90625 56.398438 35.507812 56.296875 C 34.117188 56 32.722656 55.503906 31.628906 54.707031 C 31.234375 54.507812 30.835938 54.507812 30.4375 54.707031 L 28.25 56.296875 L 27.058594 55.203125 L 28.648438 53.117188 C 28.945312 52.820312 28.945312 52.222656 28.648438 51.925781 C 27.851562 50.730469 27.355469 49.4375 27.058594 48.046875 C 26.957031 47.648438 26.660156 47.351562 26.164062 47.25 L 23.476562 46.855469 L 23.476562 45.261719 L 26.164062 44.867188 C 26.558594 44.765625 26.957031 44.46875 27.058594 44.070312 C 27.355469 42.679688 27.851562 41.285156 28.648438 40.195312 C 28.847656 39.796875 28.847656 39.398438 28.648438 39 L 27.058594 36.8125 L 28.152344 35.71875 L 30.238281 37.308594 C 30.535156 37.609375 31.132812 37.609375 31.429688 37.308594 C 32.625 36.515625 33.917969 36.019531 35.308594 35.71875 C 35.707031 35.621094 36.003906 35.320312 36.105469 34.824219 L 36.5 32.140625 L 38.09375 32.140625 L 38.488281 34.824219 C 38.589844 35.222656 38.886719 35.621094 39.285156 35.71875 C 40.675781 36.019531 42.070312 36.515625 43.164062 37.308594 C 43.558594 37.507812 43.957031 37.507812 44.355469 37.308594 L 46.542969 35.71875 L 47.636719 36.8125 L 46.046875 39 C 45.746094 39.296875 45.746094 39.796875 46.046875 40.195312 C 46.839844 41.386719 47.4375 42.679688 47.636719 44.070312 C 47.734375 44.46875 48.035156 44.765625 48.53125 44.867188 L 51.214844 45.261719 L 51.214844 46.855469 L 48.53125 47.25 C 48.132812 47.25 47.734375 47.550781 47.636719 48.046875 Z M 47.636719 48.046875 " fill-opacity="1" fill-rule="nonzero"/><path fill="#0c74ff" d="M 37.394531 38.105469 C 33.023438 38.105469 29.441406 41.683594 29.441406 46.058594 C 29.441406 50.433594 33.023438 54.011719 37.394531 54.011719 C 41.769531 54.011719 45.347656 50.433594 45.347656 46.058594 C 45.347656 41.683594 41.769531 38.105469 37.394531 38.105469 Z M 37.394531 52.023438 C 34.117188 52.023438 31.429688 49.339844 31.429688 46.058594 C 31.429688 42.777344 34.117188 40.09375 37.394531 40.09375 C 40.675781 40.09375 43.359375 42.777344 43.359375 46.058594 C 43.359375 49.339844 40.675781 52.023438 37.394531 52.023438 Z M 37.394531 52.023438 " fill-opacity="1" fill-rule="nonzero"/><path fill="#0c74ff" d="M 53.800781 63.953125 L 49.425781 60.671875 C 49.027344 60.375 48.332031 60.375 48.035156 60.871094 C 47.734375 61.269531 47.734375 61.964844 48.234375 62.261719 L 50.222656 63.753906 L 17.316406 63.753906 C 16.71875 63.753906 16.320312 64.152344 16.320312 64.75 C 16.320312 65.34375 16.71875 65.742188 17.316406 65.742188 L 50.320312 65.742188 L 48.234375 67.332031 C 47.835938 67.632812 47.734375 68.328125 48.035156 68.726562 C 48.332031 69.121094 49.027344 69.222656 49.425781 68.925781 L 53.699219 65.542969 C 54.296875 65.144531 54.296875 64.351562 53.800781 63.953125 Z M 53.800781 63.953125 " fill-opacity="1" fill-rule="nonzero"/><path fill="#0c74ff" d="M 58.273438 30.550781 C 58.175781 30.449219 57.976562 30.351562 57.976562 30.351562 C 57.675781 30.253906 57.179688 30.253906 56.882812 30.550781 L 53.402344 33.929688 C 53.003906 34.328125 53.003906 34.925781 53.402344 35.320312 C 53.800781 35.71875 54.394531 35.71875 54.792969 35.320312 L 56.582031 33.632812 L 56.582031 64.75 C 56.582031 65.34375 56.980469 65.742188 57.578125 65.742188 C 58.175781 65.742188 58.570312 65.34375 58.570312 64.75 L 58.570312 33.730469 L 60.164062 35.320312 C 60.558594 35.71875 61.15625 35.71875 61.554688 35.320312 C 61.953125 34.925781 61.953125 34.328125 61.554688 33.929688 Z M 58.273438 30.550781 " fill-opacity="1" fill-rule="nonzero"/><path fill="#0c74ff" d="M 20.792969 28.164062 L 24.375 31.445312 C 24.769531 31.84375 25.367188 31.742188 25.765625 31.34375 C 26.164062 30.949219 26.0625 30.351562 25.664062 29.953125 L 24.074219 28.363281 L 57.578125 28.363281 C 58.175781 28.363281 58.570312 27.964844 58.570312 27.367188 C 58.570312 26.773438 58.175781 26.375 57.578125 26.375 L 24.273438 26.375 L 25.664062 25.28125 C 26.0625 24.984375 26.164062 24.289062 25.863281 23.890625 C 25.566406 23.492188 24.871094 23.390625 24.472656 23.691406 L 20.894531 26.574219 C 20.398438 26.972656 20.398438 27.667969 20.792969 28.164062 Z M 20.792969 28.164062 " fill-opacity="1" fill-rule="nonzero"/><path fill="#0c74ff" d="M 17.316406 61.867188 C 17.613281 61.867188 17.910156 61.765625 18.011719 61.566406 L 21.789062 57.589844 C 22.1875 57.191406 22.1875 56.597656 21.789062 56.199219 C 21.390625 55.800781 20.792969 55.800781 20.398438 56.199219 L 18.410156 58.386719 L 18.410156 27.367188 C 18.410156 26.773438 18.011719 26.375 17.414062 26.375 C 16.816406 26.375 16.421875 26.773438 16.421875 27.367188 L 16.421875 58.1875 L 14.433594 56 C 14.035156 55.601562 13.4375 55.601562 13.039062 55.902344 C 12.640625 56.296875 12.640625 56.894531 12.941406 57.292969 L 16.617188 61.367188 C 16.71875 61.667969 17.015625 61.867188 17.316406 61.867188 Z M 17.316406 61.867188 " fill-opacity="1" fill-rule="nonzero"/><g clip-path="url(#6081739e2a)"><path fill="#0c74ff" d="M 70.058594 6.492188 L 6.433594 6.492188 C 5.835938 6.492188 5.4375 6.890625 5.4375 7.484375 L 5.4375 71.109375 C 5.4375 71.707031 5.835938 72.105469 6.433594 72.105469 L 70.058594 72.105469 C 70.65625 72.105469 71.050781 71.707031 71.050781 71.109375 L 71.050781 7.484375 C 71.050781 6.890625 70.65625 6.492188 70.058594 6.492188 Z M 69.0625 8.480469 L 69.0625 19.8125 L 7.425781 19.8125 L 7.425781 8.480469 Z M 7.425781 70.117188 L 7.425781 21.800781 L 69.0625 21.800781 L 69.0625 70.117188 Z M 7.425781 70.117188 " fill-opacity="1" fill-rule="nonzero"/></g><path fill="#0c74ff" d="M 13.09375 17.128906 C 14.683594 17.128906 15.976562 15.835938 15.976562 14.246094 C 15.976562 12.65625 14.683594 11.363281 13.09375 11.363281 C 11.503906 11.363281 10.210938 12.65625 10.210938 14.246094 C 10.210938 15.835938 11.503906 17.128906 13.09375 17.128906 Z M 13.09375 13.351562 C 13.589844 13.351562 13.988281 13.75 13.988281 14.246094 C 13.988281 14.742188 13.589844 15.140625 13.09375 15.140625 C 12.597656 15.140625 12.199219 14.742188 12.199219 14.246094 C 12.199219 13.75 12.597656 13.351562 13.09375 13.351562 Z M 13.09375 13.351562 " fill-opacity="1" fill-rule="nonzero"/><path fill="#0c74ff" d="M 20.351562 17.128906 C 21.941406 17.128906 23.234375 15.835938 23.234375 14.246094 C 23.234375 12.65625 21.941406 11.363281 20.351562 11.363281 C 18.761719 11.363281 17.46875 12.65625 17.46875 14.246094 C 17.46875 15.835938 18.761719 17.128906 20.351562 17.128906 Z M 20.351562 13.351562 C 20.847656 13.351562 21.246094 13.75 21.246094 14.246094 C 21.246094 14.742188 20.847656 15.140625 20.351562 15.140625 C 19.855469 15.140625 19.457031 14.742188 19.457031 14.246094 C 19.457031 13.75 19.855469 13.351562 20.351562 13.351562 Z M 20.351562 13.351562 " fill-opacity="1" fill-rule="nonzero"/><path fill="#0c74ff" d="M 27.609375 17.128906 C 29.199219 17.128906 30.492188 15.835938 30.492188 14.246094 C 30.492188 12.65625 29.199219 11.363281 27.609375 11.363281 C 26.019531 11.363281 24.726562 12.65625 24.726562 14.246094 C 24.625 15.835938 26.019531 17.128906 27.609375 17.128906 Z M 27.609375 13.351562 C 28.105469 13.351562 28.503906 13.75 28.503906 14.246094 C 28.503906 14.742188 28.105469 15.140625 27.609375 15.140625 C 27.113281 15.140625 26.714844 14.742188 26.714844 14.246094 C 26.613281 13.75 27.113281 13.351562 27.609375 13.351562 Z M 27.609375 13.351562 " fill-opacity="1" fill-rule="nonzero"/><path fill="#0c74ff" d="M 33.972656 17.726562 L 66.082031 17.726562 C 66.679688 17.726562 67.074219 17.328125 67.074219 16.730469 L 67.074219 11.761719 C 67.074219 11.164062 66.679688 10.765625 66.082031 10.765625 L 33.972656 10.765625 C 33.375 10.765625 32.976562 11.164062 32.976562 11.761719 L 32.976562 16.632812 C 32.976562 17.230469 33.375 17.726562 33.972656 17.726562 Z M 34.964844 12.753906 L 65.085938 12.753906 L 65.085938 15.636719 L 34.964844 15.636719 Z M 34.964844 12.753906 " fill-opacity="1" fill-rule="nonzero"/><path fill="#0c74ff" d="M 53.058594 48.742188 C 53.554688 48.644531 53.953125 48.246094 53.953125 47.75 L 53.953125 44.367188 C 53.953125 43.871094 53.554688 43.472656 53.058594 43.375 L 50.175781 43.078125 C 49.878906 41.882812 49.378906 40.789062 48.785156 39.695312 L 50.472656 37.410156 C 50.773438 37.011719 50.773438 36.414062 50.375 36.019531 L 48.085938 33.730469 C 47.789062 33.332031 47.191406 33.332031 46.796875 33.632812 L 44.507812 35.421875 C 43.515625 34.824219 42.320312 34.328125 41.128906 34.03125 L 40.730469 31.148438 C 40.632812 30.648438 40.234375 30.253906 39.738281 30.253906 L 36.355469 30.253906 C 35.859375 30.253906 35.460938 30.648438 35.363281 31.148438 L 34.964844 34.03125 C 33.773438 34.328125 32.679688 34.824219 31.585938 35.421875 L 29.296875 33.632812 C 28.902344 33.332031 28.304688 33.332031 28.007812 33.730469 L 25.621094 36.117188 C 25.222656 36.515625 25.222656 37.011719 25.519531 37.410156 L 27.308594 39.695312 C 26.714844 40.691406 26.214844 41.882812 25.917969 43.078125 L 23.035156 43.472656 C 22.539062 43.574219 22.140625 43.972656 22.140625 44.46875 L 22.140625 47.847656 C 22.140625 48.34375 22.539062 48.742188 23.035156 48.84375 L 25.917969 49.238281 C 26.214844 50.433594 26.714844 51.527344 27.308594 52.621094 L 25.519531 54.90625 C 25.222656 55.304688 25.222656 55.902344 25.621094 56.199219 L 28.007812 58.585938 C 28.402344 58.984375 28.902344 58.984375 29.296875 58.683594 L 31.585938 56.894531 C 32.578125 57.492188 33.773438 57.988281 34.964844 58.285156 L 35.363281 61.167969 C 35.460938 61.667969 35.859375 62.066406 36.355469 62.066406 L 39.738281 62.066406 C 40.234375 62.066406 40.632812 61.667969 40.730469 61.167969 L 41.128906 58.285156 C 42.320312 57.988281 43.414062 57.492188 44.507812 56.894531 L 46.695312 58.585938 C 46.894531 58.683594 47.09375 58.785156 47.390625 58.785156 C 47.691406 58.785156 47.988281 58.683594 48.1875 58.484375 L 50.472656 56.199219 C 50.871094 55.800781 50.871094 55.304688 50.574219 54.90625 L 48.785156 52.621094 C 49.378906 51.625 49.878906 50.433594 50.175781 49.238281 Z M 48.386719 48.046875 C 48.085938 49.4375 47.589844 50.730469 46.796875 51.925781 C 46.597656 52.320312 46.597656 52.71875 46.796875 53.117188 L 48.386719 55.304688 L 47.292969 56.398438 L 45.203125 54.707031 C 44.90625 54.410156 44.410156 54.410156 44.011719 54.707031 C 42.820312 55.503906 41.527344 56.101562 40.132812 56.296875 C 39.738281 56.398438 39.4375 56.695312 39.339844 57.191406 L 38.941406 59.878906 L 37.351562 59.878906 L 37.054688 57.191406 C 36.953125 56.796875 36.65625 56.398438 36.257812 56.296875 C 34.867188 56 33.472656 55.503906 32.378906 54.707031 C 31.984375 54.507812 31.585938 54.507812 31.1875 54.707031 L 29 56.296875 L 27.808594 55.203125 L 29.398438 53.117188 C 29.695312 52.820312 29.695312 52.222656 29.398438 51.925781 C 28.601562 50.730469 28.105469 49.4375 27.808594 48.046875 C 27.707031 47.648438 27.410156 47.351562 26.914062 47.25 L 24.226562 46.855469 L 24.226562 45.261719 L 26.914062 44.867188 C 27.308594 44.765625 27.707031 44.46875 27.808594 44.070312 C 28.105469 42.679688 28.601562 41.285156 29.398438 40.195312 C 29.597656 39.796875 29.597656 39.398438 29.398438 39 L 27.808594 36.8125 L 28.902344 35.71875 L 30.988281 37.308594 C 31.285156 37.609375 31.882812 37.609375 32.179688 37.308594 C 33.375 36.515625 34.667969 36.019531 36.058594 35.71875 C 36.457031 35.621094 36.753906 35.320312 36.855469 34.824219 L 37.25 32.140625 L 38.84375 32.140625 L 39.238281 34.824219 C 39.339844 35.222656 39.636719 35.621094 40.035156 35.71875 C 41.425781 36.019531 42.820312 36.515625 43.914062 37.308594 C 44.308594 37.507812 44.707031 37.507812 45.105469 37.308594 L 47.292969 35.71875 L 48.386719 36.8125 L 46.796875 39 C 46.496094 39.296875 46.496094 39.796875 46.796875 40.195312 C 47.589844 41.386719 48.1875 42.679688 48.386719 44.070312 C 48.484375 44.46875 48.785156 44.765625 49.28125 44.867188 L 51.964844 45.261719 L 51.964844 46.855469 L 49.28125 47.25 C 48.882812 47.25 48.484375 47.550781 48.386719 48.046875 Z M 48.386719 48.046875 " fill-opacity="1" fill-rule="nonzero"/><path fill="#0c74ff" d="M 38.144531 38.105469 C 33.773438 38.105469 30.191406 41.683594 30.191406 46.058594 C 30.191406 50.433594 33.773438 54.011719 38.144531 54.011719 C 42.519531 54.011719 46.097656 50.433594 46.097656 46.058594 C 46.097656 41.683594 42.519531 38.105469 38.144531 38.105469 Z M 38.144531 52.023438 C 34.867188 52.023438 32.179688 49.339844 32.179688 46.058594 C 32.179688 42.777344 34.867188 40.09375 38.144531 40.09375 C 41.425781 40.09375 44.109375 42.777344 44.109375 46.058594 C 44.109375 49.339844 41.425781 52.023438 38.144531 52.023438 Z M 38.144531 52.023438 " fill-opacity="1" fill-rule="nonzero"/><path fill="#0c74ff" d="M 54.550781 63.953125 L 50.175781 60.671875 C 49.777344 60.375 49.082031 60.375 48.785156 60.871094 C 48.484375 61.269531 48.484375 61.964844 48.984375 62.261719 L 50.972656 63.753906 L 18.066406 63.753906 C 17.46875 63.753906 17.070312 64.152344 17.070312 64.75 C 17.070312 65.34375 17.46875 65.742188 18.066406 65.742188 L 51.070312 65.742188 L 48.984375 67.332031 C 48.585938 67.632812 48.484375 68.328125 48.785156 68.726562 C 49.082031 69.121094 49.777344 69.222656 50.175781 68.925781 L 54.449219 65.542969 C 55.046875 65.144531 55.046875 64.351562 54.550781 63.953125 Z M 54.550781 63.953125 " fill-opacity="1" fill-rule="nonzero"/><path fill="#0c74ff" d="M 59.023438 30.550781 C 58.925781 30.449219 58.726562 30.351562 58.726562 30.351562 C 58.425781 30.253906 57.929688 30.253906 57.632812 30.550781 L 54.152344 33.929688 C 53.753906 34.328125 53.753906 34.925781 54.152344 35.320312 C 54.550781 35.71875 55.144531 35.71875 55.542969 35.320312 L 57.332031 33.632812 L 57.332031 64.75 C 57.332031 65.34375 57.730469 65.742188 58.328125 65.742188 C 58.925781 65.742188 59.320312 65.34375 59.320312 64.75 L 59.320312 33.730469 L 60.914062 35.320312 C 61.308594 35.71875 61.90625 35.71875 62.304688 35.320312 C 62.703125 34.925781 62.703125 34.328125 62.304688 33.929688 Z M 59.023438 30.550781 " fill-opacity="1" fill-rule="nonzero"/><path fill="#0c74ff" d="M 21.542969 28.164062 L 25.125 31.445312 C 25.519531 31.84375 26.117188 31.742188 26.515625 31.34375 C 26.914062 30.949219 26.8125 30.351562 26.414062 29.953125 L 24.824219 28.363281 L 58.328125 28.363281 C 58.925781 28.363281 59.320312 27.964844 59.320312 27.367188 C 59.320312 26.773438 58.925781 26.375 58.328125 26.375 L 25.023438 26.375 L 26.414062 25.28125 C 26.8125 24.984375 26.914062 24.289062 26.613281 23.890625 C 26.316406 23.492188 25.621094 23.390625 25.222656 23.691406 L 21.644531 26.574219 C 21.148438 26.972656 21.148438 27.667969 21.542969 28.164062 Z M 21.542969 28.164062 " fill-opacity="1" fill-rule="nonzero"/><path fill="#0c74ff" d="M 18.066406 61.867188 C 18.363281 61.867188 18.660156 61.765625 18.761719 61.566406 L 22.539062 57.589844 C 22.9375 57.191406 22.9375 56.597656 22.539062 56.199219 C 22.140625 55.800781 21.542969 55.800781 21.148438 56.199219 L 19.160156 58.386719 L 19.160156 27.367188 C 19.160156 26.773438 18.761719 26.375 18.164062 26.375 C 17.566406 26.375 17.171875 26.773438 17.171875 27.367188 L 17.171875 58.1875 L 15.183594 56 C 14.785156 55.601562 14.1875 55.601562 13.789062 55.902344 C 13.390625 56.296875 13.390625 56.894531 13.691406 57.292969 L 17.367188 61.367188 C 17.46875 61.667969 17.765625 61.867188 18.066406 61.867188 Z M 18.066406 61.867188 " fill-opacity="1" fill-rule="nonzero"/></svg>